G75*
G70*
%OFA0B0*%
%FSLAX24Y24*%
%IPPOS*%
%LPD*%
%AMOC8*
5,1,8,0,0,1.08239X$1,22.5*
%
%ADD10C,0.0820*%
%ADD11C,0.0740*%
%ADD12C,0.1380*%
%ADD13R,0.0820X0.0820*%
%ADD14C,0.1182*%
%ADD15OC8,0.0930*%
%ADD16R,0.0840X0.0840*%
%ADD17C,0.0840*%
D10*
X004956Y001559D03*
X005956Y001559D03*
X006956Y001559D03*
X007956Y001559D03*
X008956Y001559D03*
X009956Y001559D03*
X010956Y001559D03*
X011956Y001559D03*
X012956Y001559D03*
X013956Y001559D03*
X014956Y001559D03*
X015956Y001559D03*
X016956Y001559D03*
X017956Y001559D03*
X018956Y001559D03*
X018054Y002661D03*
X018054Y003661D03*
X017054Y003661D03*
X016054Y003661D03*
X015054Y003661D03*
X014054Y003661D03*
X013054Y003661D03*
X012054Y003661D03*
X011054Y003661D03*
X010054Y003661D03*
X009054Y003661D03*
X008054Y003661D03*
X007054Y004161D03*
X007054Y005161D03*
X007054Y006161D03*
X007054Y007161D03*
X009054Y007161D03*
X007054Y008161D03*
X007054Y009161D03*
X008054Y009661D03*
X009054Y009661D03*
X010054Y009661D03*
X011054Y009661D03*
X012054Y009661D03*
X013054Y009661D03*
X014054Y009661D03*
X015054Y009661D03*
X016054Y009661D03*
X017054Y009661D03*
X018054Y009661D03*
X019054Y009661D03*
X019054Y012161D03*
X018054Y012161D03*
X017054Y012161D03*
X015054Y012161D03*
X014054Y012161D03*
X012054Y012161D03*
X011054Y012161D03*
X009054Y012161D03*
X008054Y012161D03*
X005929Y013161D03*
X005929Y014161D03*
X004179Y014161D03*
X009054Y008286D03*
X013054Y008286D03*
X013054Y007161D03*
X019054Y003661D03*
X022054Y002661D03*
X001554Y007161D03*
X001554Y008161D03*
D11*
X022954Y008776D03*
X023934Y008776D03*
X023934Y007516D03*
X022954Y007516D03*
D12*
X021054Y007716D03*
X025794Y007716D03*
D13*
X004179Y013161D03*
X003956Y001559D03*
D14*
X001791Y001559D03*
X001791Y013764D03*
X031318Y013764D03*
X031318Y001559D03*
D15*
X025429Y011411D03*
X025429Y013161D03*
X021429Y013161D03*
X021429Y011411D03*
D16*
X005554Y003911D03*
X005554Y002911D03*
X002554Y002911D03*
X002554Y003911D03*
D17*
X004304Y002911D03*
X005554Y004911D03*
X004304Y005661D03*
X005554Y010911D03*
X005554Y011911D03*
X002554Y011911D03*
X002554Y010911D03*
M02*
