G75*
G70*
%OFA0B0*%
%FSLAX24Y24*%
%IPPOS*%
%LPD*%
%AMOC8*
5,1,8,0,0,1.08239X$1,22.5*
%
%ADD10C,0.0740*%
%ADD11C,0.0660*%
%ADD12C,0.1300*%
%ADD13R,0.0740X0.0740*%
%ADD14OC8,0.0850*%
%ADD15R,0.0760X0.0760*%
%ADD16C,0.0760*%
%ADD17C,0.0700*%
%ADD18C,0.0120*%
%ADD19C,0.0100*%
D10*
X004956Y001559D03*
X005956Y001559D03*
X006956Y001559D03*
X007956Y001559D03*
X008956Y001559D03*
X009956Y001559D03*
X010956Y001559D03*
X011956Y001559D03*
X012956Y001559D03*
X013956Y001559D03*
X014956Y001559D03*
X015956Y001559D03*
X016956Y001559D03*
X017956Y001559D03*
X018956Y001559D03*
X018054Y002661D03*
X018054Y003661D03*
X017054Y003661D03*
X016054Y003661D03*
X015054Y003661D03*
X014054Y003661D03*
X013054Y003661D03*
X012054Y003661D03*
X011054Y003661D03*
X010054Y003661D03*
X009054Y003661D03*
X008054Y003661D03*
X007054Y004161D03*
X007054Y005161D03*
X007054Y006161D03*
X007054Y007161D03*
X009054Y007161D03*
X007054Y008161D03*
X007054Y009161D03*
X008054Y009661D03*
X009054Y009661D03*
X010054Y009661D03*
X011054Y009661D03*
X012054Y009661D03*
X013054Y009661D03*
X014054Y009661D03*
X015054Y009661D03*
X016054Y009661D03*
X017054Y009661D03*
X018054Y009661D03*
X019054Y009661D03*
X019054Y012161D03*
X018054Y012161D03*
X017054Y012161D03*
X015054Y012161D03*
X014054Y012161D03*
X012054Y012161D03*
X011054Y012161D03*
X009054Y012161D03*
X008054Y012161D03*
X005929Y013161D03*
X005929Y014161D03*
X004179Y014161D03*
X009054Y008286D03*
X013054Y008286D03*
X013054Y007161D03*
X019054Y003661D03*
X022054Y002661D03*
X001554Y007161D03*
X001554Y008161D03*
D11*
X022954Y008776D03*
X023934Y008776D03*
X023934Y007516D03*
X022954Y007516D03*
D12*
X021054Y007716D03*
X025794Y007716D03*
D13*
X004179Y013161D03*
X003956Y001559D03*
D14*
X021429Y011411D03*
X021429Y013161D03*
X025429Y013161D03*
X025429Y011411D03*
D15*
X005554Y003911D03*
X005554Y002911D03*
X002554Y002911D03*
X002554Y003911D03*
D16*
X004304Y002911D03*
X005554Y004911D03*
X004304Y005661D03*
X005554Y010911D03*
X005554Y011911D03*
X002554Y011911D03*
X002554Y010911D03*
D17*
X002554Y011911D01*
X005554Y011911D02*
X005554Y010911D01*
X009054Y007161D02*
X008054Y006161D01*
X007054Y006161D01*
X005554Y002911D02*
X005956Y002260D01*
X005956Y001559D01*
X003956Y001559D02*
X003657Y001559D01*
X002554Y002911D01*
D18*
X002411Y000750D02*
X002189Y000621D01*
X030920Y000621D01*
X030697Y000750D01*
X030509Y000938D01*
X030376Y001169D01*
X030307Y001426D01*
X030307Y001692D01*
X030376Y001949D01*
X030509Y002180D01*
X030697Y002368D01*
X030928Y002501D01*
X031185Y002570D01*
X031451Y002570D01*
X031708Y002501D01*
X031939Y002368D01*
X031969Y002338D01*
X031965Y012981D01*
X031939Y012954D01*
X031708Y012821D01*
X031451Y012752D01*
X031185Y012752D01*
X030928Y012821D01*
X030697Y012954D01*
X030509Y013143D01*
X030376Y013373D01*
X030307Y013630D01*
X030307Y013897D01*
X030376Y014154D01*
X030509Y014384D01*
X030697Y014573D01*
X030920Y014701D01*
X002189Y014701D01*
X002411Y014573D01*
X002600Y014384D01*
X002733Y014154D01*
X002802Y013897D01*
X002802Y013630D01*
X002733Y013373D01*
X002600Y013143D01*
X002411Y012954D01*
X002181Y012821D01*
X001924Y012752D01*
X001657Y012752D01*
X001400Y012821D01*
X001170Y012954D01*
X001014Y013110D01*
X001014Y002213D01*
X001170Y002368D01*
X001400Y002501D01*
X001657Y002570D01*
X001924Y002570D01*
X002014Y002546D01*
X002014Y002873D01*
X002516Y002873D01*
X002516Y002950D01*
X002516Y003371D01*
X002516Y003873D01*
X002014Y003873D01*
X002014Y003510D01*
X002025Y003469D01*
X002046Y003433D01*
X002068Y003411D01*
X002046Y003389D01*
X002025Y003353D01*
X002014Y003312D01*
X002014Y002950D01*
X002516Y002950D01*
X002593Y002950D01*
X002593Y003371D01*
X002593Y003873D01*
X002593Y003950D01*
X002516Y003950D01*
X002516Y004451D01*
X002153Y004451D01*
X002113Y004440D01*
X002076Y004419D01*
X002046Y004389D01*
X002025Y004353D01*
X002014Y004312D01*
X002014Y003950D01*
X002516Y003950D01*
X002516Y003873D01*
X002593Y003873D01*
X003094Y003873D01*
X003094Y003510D01*
X003083Y003469D01*
X003062Y003433D01*
X003041Y003411D01*
X003062Y003389D01*
X003083Y003353D01*
X003094Y003312D01*
X003094Y002950D01*
X002593Y002950D01*
X002593Y002873D01*
X003094Y002873D01*
X003094Y002510D01*
X003083Y002469D01*
X003062Y002433D01*
X003033Y002403D01*
X002996Y002382D01*
X002955Y002371D01*
X002593Y002371D01*
X002593Y002873D01*
X002516Y002873D01*
X002516Y002371D01*
X002406Y002371D01*
X002411Y002368D01*
X002600Y002180D01*
X002733Y001949D01*
X002802Y001692D01*
X002802Y001426D01*
X002733Y001169D01*
X002600Y000938D01*
X002411Y000750D01*
X002416Y000754D02*
X030693Y000754D01*
X030574Y000873D02*
X002534Y000873D01*
X002630Y000991D02*
X030478Y000991D01*
X030410Y001110D02*
X019239Y001110D01*
X019234Y001106D02*
X019301Y001155D01*
X019360Y001214D01*
X019409Y001281D01*
X019447Y001355D01*
X019473Y001435D01*
X019486Y001517D01*
X019486Y001519D01*
X018996Y001519D01*
X018996Y001599D01*
X018916Y001599D01*
X018916Y002089D01*
X018914Y002089D01*
X018832Y002076D01*
X018752Y002050D01*
X018678Y002012D01*
X018611Y001963D01*
X018552Y001904D01*
X018503Y001837D01*
X018465Y001762D01*
X018447Y001707D01*
X018388Y001848D01*
X018245Y001991D01*
X018057Y002069D01*
X017854Y002069D01*
X017667Y001991D01*
X017524Y001848D01*
X017456Y001684D01*
X017388Y001848D01*
X017245Y001991D01*
X017057Y002069D01*
X016854Y002069D01*
X016667Y001991D01*
X016524Y001848D01*
X016456Y001684D01*
X016388Y001848D01*
X016245Y001991D01*
X016057Y002069D01*
X015854Y002069D01*
X015667Y001991D01*
X015524Y001848D01*
X015456Y001684D01*
X015388Y001848D01*
X015245Y001991D01*
X015057Y002069D01*
X014854Y002069D01*
X014667Y001991D01*
X014524Y001848D01*
X014456Y001684D01*
X014388Y001848D01*
X014245Y001991D01*
X014057Y002069D01*
X013854Y002069D01*
X013667Y001991D01*
X013524Y001848D01*
X013456Y001684D01*
X013388Y001848D01*
X013245Y001991D01*
X013057Y002069D01*
X012854Y002069D01*
X012667Y001991D01*
X012524Y001848D01*
X012456Y001684D01*
X012388Y001848D01*
X012245Y001991D01*
X012057Y002069D01*
X011854Y002069D01*
X011667Y001991D01*
X011524Y001848D01*
X011456Y001684D01*
X011388Y001848D01*
X011245Y001991D01*
X011057Y002069D01*
X010854Y002069D01*
X010667Y001991D01*
X010524Y001848D01*
X010456Y001684D01*
X010388Y001848D01*
X010245Y001991D01*
X010057Y002069D01*
X009854Y002069D01*
X009667Y001991D01*
X009524Y001848D01*
X009456Y001684D01*
X009388Y001848D01*
X009245Y001991D01*
X009057Y002069D01*
X008854Y002069D01*
X008667Y001991D01*
X008524Y001848D01*
X008465Y001707D01*
X008447Y001762D01*
X008409Y001837D01*
X008360Y001904D01*
X008301Y001963D01*
X008234Y002012D01*
X008159Y002050D01*
X008080Y002076D01*
X007998Y002089D01*
X007996Y002089D01*
X007996Y001599D01*
X007916Y001599D01*
X007916Y002089D01*
X007914Y002089D01*
X007832Y002076D01*
X007752Y002050D01*
X007678Y002012D01*
X007611Y001963D01*
X007552Y001904D01*
X007503Y001837D01*
X007465Y001762D01*
X007447Y001707D01*
X007388Y001848D01*
X007245Y001991D01*
X007057Y002069D01*
X006854Y002069D01*
X006667Y001991D01*
X006524Y001848D01*
X006465Y001707D01*
X006447Y001762D01*
X006409Y001837D01*
X006360Y001904D01*
X006301Y001963D01*
X006234Y002012D01*
X006159Y002050D01*
X006080Y002076D01*
X005998Y002089D01*
X005996Y002089D01*
X005996Y001599D01*
X005916Y001599D01*
X005916Y002089D01*
X005914Y002089D01*
X005832Y002076D01*
X005752Y002050D01*
X005678Y002012D01*
X005611Y001963D01*
X005552Y001904D01*
X005503Y001837D01*
X005465Y001762D01*
X005447Y001707D01*
X005388Y001848D01*
X005245Y001991D01*
X005057Y002069D01*
X004854Y002069D01*
X004667Y001991D01*
X004524Y001848D01*
X004486Y001757D01*
X004486Y001950D01*
X004475Y001991D01*
X004454Y002027D01*
X004424Y002057D01*
X004388Y002078D01*
X004347Y002089D01*
X003996Y002089D01*
X003996Y001599D01*
X003916Y001599D01*
X003916Y002089D01*
X003565Y002089D01*
X003524Y002078D01*
X003488Y002057D01*
X003458Y002027D01*
X003437Y001991D01*
X003426Y001950D01*
X003426Y001599D01*
X003916Y001599D01*
X003916Y001519D01*
X003996Y001519D01*
X003996Y001029D01*
X004347Y001029D01*
X004388Y001040D01*
X004424Y001061D01*
X004454Y001091D01*
X004475Y001127D01*
X004486Y001168D01*
X004486Y001361D01*
X004524Y001270D01*
X004667Y001127D01*
X004854Y001049D01*
X005057Y001049D01*
X005245Y001127D01*
X005388Y001270D01*
X005447Y001411D01*
X005465Y001355D01*
X005503Y001281D01*
X005552Y001214D01*
X005611Y001155D01*
X005678Y001106D01*
X005752Y001068D01*
X005832Y001042D01*
X005914Y001029D01*
X005916Y001029D01*
X005916Y001519D01*
X005996Y001519D01*
X005996Y001029D01*
X005998Y001029D01*
X006080Y001042D01*
X006159Y001068D01*
X006234Y001106D01*
X006301Y001155D01*
X006360Y001214D01*
X006409Y001281D01*
X006447Y001355D01*
X006465Y001411D01*
X006524Y001270D01*
X006667Y001127D01*
X006854Y001049D01*
X007057Y001049D01*
X007245Y001127D01*
X007388Y001270D01*
X007447Y001411D01*
X007465Y001355D01*
X007503Y001281D01*
X007552Y001214D01*
X007611Y001155D01*
X007678Y001106D01*
X007752Y001068D01*
X007832Y001042D01*
X007914Y001029D01*
X007916Y001029D01*
X007916Y001519D01*
X007996Y001519D01*
X007996Y001029D01*
X007998Y001029D01*
X008080Y001042D01*
X008159Y001068D01*
X008234Y001106D01*
X008301Y001155D01*
X008360Y001214D01*
X008409Y001281D01*
X008447Y001355D01*
X008465Y001411D01*
X008524Y001270D01*
X008667Y001127D01*
X008854Y001049D01*
X009057Y001049D01*
X009245Y001127D01*
X009388Y001270D01*
X009456Y001433D01*
X009524Y001270D01*
X009667Y001127D01*
X009854Y001049D01*
X010057Y001049D01*
X010245Y001127D01*
X010388Y001270D01*
X010456Y001433D01*
X010524Y001270D01*
X010667Y001127D01*
X010854Y001049D01*
X011057Y001049D01*
X011245Y001127D01*
X011388Y001270D01*
X011456Y001433D01*
X011524Y001270D01*
X011667Y001127D01*
X011854Y001049D01*
X012057Y001049D01*
X012245Y001127D01*
X012388Y001270D01*
X012456Y001433D01*
X012524Y001270D01*
X012667Y001127D01*
X012854Y001049D01*
X013057Y001049D01*
X013245Y001127D01*
X013388Y001270D01*
X013456Y001433D01*
X013524Y001270D01*
X013667Y001127D01*
X013854Y001049D01*
X014057Y001049D01*
X014245Y001127D01*
X014388Y001270D01*
X014456Y001433D01*
X014524Y001270D01*
X014667Y001127D01*
X014854Y001049D01*
X015057Y001049D01*
X015245Y001127D01*
X015388Y001270D01*
X015456Y001433D01*
X015524Y001270D01*
X015667Y001127D01*
X015854Y001049D01*
X016057Y001049D01*
X016245Y001127D01*
X016388Y001270D01*
X016456Y001433D01*
X016524Y001270D01*
X016667Y001127D01*
X016854Y001049D01*
X017057Y001049D01*
X017245Y001127D01*
X017388Y001270D01*
X017456Y001433D01*
X017524Y001270D01*
X017667Y001127D01*
X017854Y001049D01*
X018057Y001049D01*
X018245Y001127D01*
X018388Y001270D01*
X018447Y001411D01*
X018465Y001355D01*
X018503Y001281D01*
X018552Y001214D01*
X018611Y001155D01*
X018678Y001106D01*
X018752Y001068D01*
X018832Y001042D01*
X018914Y001029D01*
X018916Y001029D01*
X018916Y001519D01*
X018996Y001519D01*
X018996Y001029D01*
X018998Y001029D01*
X019080Y001042D01*
X019159Y001068D01*
X019234Y001106D01*
X019371Y001228D02*
X030360Y001228D01*
X030328Y001347D02*
X019443Y001347D01*
X019478Y001465D02*
X030307Y001465D01*
X030307Y001584D02*
X018996Y001584D01*
X018996Y001599D02*
X019486Y001599D01*
X019486Y001601D01*
X019473Y001683D01*
X019447Y001762D01*
X019409Y001837D01*
X019360Y001904D01*
X019301Y001963D01*
X019234Y002012D01*
X019159Y002050D01*
X019080Y002076D01*
X018998Y002089D01*
X018996Y002089D01*
X018996Y001599D01*
X018996Y001702D02*
X018916Y001702D01*
X018916Y001821D02*
X018996Y001821D01*
X018996Y001939D02*
X018916Y001939D01*
X018916Y002058D02*
X018996Y002058D01*
X019135Y002058D02*
X030439Y002058D01*
X030373Y001939D02*
X019325Y001939D01*
X019417Y001821D02*
X030341Y001821D01*
X030310Y001702D02*
X019467Y001702D01*
X018996Y001465D02*
X018916Y001465D01*
X018916Y001347D02*
X018996Y001347D01*
X018996Y001228D02*
X018916Y001228D01*
X018916Y001110D02*
X018996Y001110D01*
X018673Y001110D02*
X018204Y001110D01*
X018346Y001228D02*
X018541Y001228D01*
X018469Y001347D02*
X018420Y001347D01*
X017708Y001110D02*
X017204Y001110D01*
X017346Y001228D02*
X017565Y001228D01*
X017492Y001347D02*
X017420Y001347D01*
X016708Y001110D02*
X016204Y001110D01*
X016346Y001228D02*
X016565Y001228D01*
X016492Y001347D02*
X016420Y001347D01*
X015708Y001110D02*
X015204Y001110D01*
X015346Y001228D02*
X015565Y001228D01*
X015492Y001347D02*
X015420Y001347D01*
X014708Y001110D02*
X014204Y001110D01*
X014346Y001228D02*
X014565Y001228D01*
X014492Y001347D02*
X014420Y001347D01*
X013708Y001110D02*
X013204Y001110D01*
X013346Y001228D02*
X013565Y001228D01*
X013492Y001347D02*
X013420Y001347D01*
X013448Y001702D02*
X013463Y001702D01*
X013512Y001821D02*
X013399Y001821D01*
X013297Y001939D02*
X013615Y001939D01*
X013828Y002058D02*
X013084Y002058D01*
X012828Y002058D02*
X012084Y002058D01*
X012297Y001939D02*
X012615Y001939D01*
X012512Y001821D02*
X012399Y001821D01*
X012448Y001702D02*
X012463Y001702D01*
X011828Y002058D02*
X011084Y002058D01*
X011297Y001939D02*
X011615Y001939D01*
X011512Y001821D02*
X011399Y001821D01*
X011448Y001702D02*
X011463Y001702D01*
X010828Y002058D02*
X010084Y002058D01*
X010297Y001939D02*
X010615Y001939D01*
X010512Y001821D02*
X010399Y001821D01*
X010448Y001702D02*
X010463Y001702D01*
X009828Y002058D02*
X009084Y002058D01*
X009297Y001939D02*
X009615Y001939D01*
X009512Y001821D02*
X009399Y001821D01*
X009448Y001702D02*
X009463Y001702D01*
X008828Y002058D02*
X008135Y002058D01*
X007996Y002058D02*
X007916Y002058D01*
X007916Y001939D02*
X007996Y001939D01*
X007996Y001821D02*
X007916Y001821D01*
X007916Y001702D02*
X007996Y001702D01*
X008325Y001939D02*
X008615Y001939D01*
X008512Y001821D02*
X008417Y001821D01*
X007996Y001465D02*
X007916Y001465D01*
X007916Y001347D02*
X007996Y001347D01*
X007996Y001228D02*
X007916Y001228D01*
X007916Y001110D02*
X007996Y001110D01*
X008239Y001110D02*
X008708Y001110D01*
X008565Y001228D02*
X008371Y001228D01*
X008443Y001347D02*
X008492Y001347D01*
X009204Y001110D02*
X009708Y001110D01*
X009565Y001228D02*
X009346Y001228D01*
X009420Y001347D02*
X009492Y001347D01*
X010204Y001110D02*
X010708Y001110D01*
X010565Y001228D02*
X010346Y001228D01*
X010420Y001347D02*
X010492Y001347D01*
X011204Y001110D02*
X011708Y001110D01*
X011565Y001228D02*
X011346Y001228D01*
X011420Y001347D02*
X011492Y001347D01*
X012204Y001110D02*
X012708Y001110D01*
X012565Y001228D02*
X012346Y001228D01*
X012420Y001347D02*
X012492Y001347D01*
X014084Y002058D02*
X014828Y002058D01*
X014615Y001939D02*
X014297Y001939D01*
X014399Y001821D02*
X014512Y001821D01*
X014463Y001702D02*
X014448Y001702D01*
X015084Y002058D02*
X015828Y002058D01*
X015615Y001939D02*
X015297Y001939D01*
X015399Y001821D02*
X015512Y001821D01*
X015463Y001702D02*
X015448Y001702D01*
X016084Y002058D02*
X016828Y002058D01*
X016615Y001939D02*
X016297Y001939D01*
X016399Y001821D02*
X016512Y001821D01*
X016463Y001702D02*
X016448Y001702D01*
X017084Y002058D02*
X017828Y002058D01*
X017892Y002176D02*
X002602Y002176D01*
X002670Y002058D02*
X003489Y002058D01*
X003426Y001939D02*
X002735Y001939D01*
X002767Y001821D02*
X003426Y001821D01*
X003426Y001702D02*
X002799Y001702D01*
X002802Y001584D02*
X003916Y001584D01*
X003916Y001519D02*
X003426Y001519D01*
X003426Y001168D01*
X003437Y001127D01*
X003458Y001091D01*
X003488Y001061D01*
X003524Y001040D01*
X003565Y001029D01*
X003916Y001029D01*
X003916Y001519D01*
X003916Y001465D02*
X003996Y001465D01*
X003996Y001347D02*
X003916Y001347D01*
X003916Y001228D02*
X003996Y001228D01*
X003996Y001110D02*
X003916Y001110D01*
X004465Y001110D02*
X004708Y001110D01*
X004565Y001228D02*
X004486Y001228D01*
X004486Y001347D02*
X004492Y001347D01*
X005204Y001110D02*
X005673Y001110D01*
X005541Y001228D02*
X005346Y001228D01*
X005420Y001347D02*
X005469Y001347D01*
X005916Y001347D02*
X005996Y001347D01*
X005996Y001465D02*
X005916Y001465D01*
X005916Y001228D02*
X005996Y001228D01*
X005996Y001110D02*
X005916Y001110D01*
X006239Y001110D02*
X006708Y001110D01*
X006565Y001228D02*
X006371Y001228D01*
X006443Y001347D02*
X006492Y001347D01*
X006512Y001821D02*
X006417Y001821D01*
X006325Y001939D02*
X006615Y001939D01*
X006828Y002058D02*
X006135Y002058D01*
X005996Y002058D02*
X005916Y002058D01*
X005916Y001939D02*
X005996Y001939D01*
X005996Y001821D02*
X005916Y001821D01*
X005916Y001702D02*
X005996Y001702D01*
X005587Y001939D02*
X005297Y001939D01*
X005399Y001821D02*
X005495Y001821D01*
X005777Y002058D02*
X005084Y002058D01*
X004828Y002058D02*
X004422Y002058D01*
X004486Y001939D02*
X004615Y001939D01*
X004512Y001821D02*
X004486Y001821D01*
X003996Y001821D02*
X003916Y001821D01*
X003916Y001939D02*
X003996Y001939D01*
X003996Y002058D02*
X003916Y002058D01*
X003916Y001702D02*
X003996Y001702D01*
X003426Y001465D02*
X002802Y001465D01*
X002781Y001347D02*
X003426Y001347D01*
X003426Y001228D02*
X002749Y001228D01*
X002699Y001110D02*
X003447Y001110D01*
X002213Y000635D02*
X030895Y000635D01*
X030507Y002176D02*
X022217Y002176D01*
X022156Y002151D02*
X022343Y002229D01*
X022487Y002372D01*
X022564Y002560D01*
X022564Y002763D01*
X022487Y002950D01*
X022343Y003094D01*
X022156Y003171D01*
X021953Y003171D01*
X021765Y003094D01*
X021622Y002950D01*
X021544Y002763D01*
X021544Y002560D01*
X021622Y002372D01*
X021765Y002229D01*
X021953Y002151D01*
X022156Y002151D01*
X021892Y002176D02*
X018217Y002176D01*
X018156Y002151D02*
X018343Y002229D01*
X018487Y002372D01*
X018564Y002560D01*
X018564Y002763D01*
X018487Y002950D01*
X018343Y003094D01*
X018180Y003161D01*
X018343Y003229D01*
X018487Y003372D01*
X018554Y003536D01*
X018622Y003372D01*
X018765Y003229D01*
X018953Y003151D01*
X019156Y003151D01*
X019343Y003229D01*
X019487Y003372D01*
X019564Y003560D01*
X019564Y003763D01*
X019487Y003950D01*
X019343Y004094D01*
X019156Y004171D01*
X018953Y004171D01*
X018765Y004094D01*
X018622Y003950D01*
X018554Y003787D01*
X018487Y003950D01*
X018343Y004094D01*
X018156Y004171D01*
X017953Y004171D01*
X017765Y004094D01*
X017622Y003950D01*
X017554Y003787D01*
X017487Y003950D01*
X017343Y004094D01*
X017156Y004171D01*
X016953Y004171D01*
X016765Y004094D01*
X016622Y003950D01*
X016554Y003787D01*
X016487Y003950D01*
X016343Y004094D01*
X016156Y004171D01*
X015953Y004171D01*
X015765Y004094D01*
X015622Y003950D01*
X015554Y003787D01*
X015487Y003950D01*
X015343Y004094D01*
X015156Y004171D01*
X014953Y004171D01*
X014765Y004094D01*
X014622Y003950D01*
X014554Y003787D01*
X014487Y003950D01*
X014343Y004094D01*
X014156Y004171D01*
X013953Y004171D01*
X013765Y004094D01*
X013622Y003950D01*
X013554Y003787D01*
X013487Y003950D01*
X013343Y004094D01*
X013156Y004171D01*
X012953Y004171D01*
X012765Y004094D01*
X012622Y003950D01*
X012554Y003787D01*
X012487Y003950D01*
X012343Y004094D01*
X012156Y004171D01*
X011953Y004171D01*
X011765Y004094D01*
X011622Y003950D01*
X011564Y003809D01*
X011545Y003865D01*
X011508Y003939D01*
X011459Y004006D01*
X011400Y004065D01*
X011332Y004115D01*
X011258Y004152D01*
X011178Y004178D01*
X011096Y004191D01*
X011094Y004191D01*
X011094Y003701D01*
X011014Y003701D01*
X011014Y004191D01*
X011013Y004191D01*
X010930Y004178D01*
X010851Y004152D01*
X010777Y004115D01*
X010709Y004065D01*
X010650Y004006D01*
X010601Y003939D01*
X010563Y003865D01*
X010545Y003809D01*
X010487Y003950D01*
X010343Y004094D01*
X010156Y004171D01*
X009953Y004171D01*
X009765Y004094D01*
X009622Y003950D01*
X009554Y003787D01*
X009487Y003950D01*
X009343Y004094D01*
X009156Y004171D01*
X008953Y004171D01*
X008765Y004094D01*
X008622Y003950D01*
X008554Y003787D01*
X008487Y003950D01*
X008343Y004094D01*
X008156Y004171D01*
X007953Y004171D01*
X007765Y004094D01*
X007622Y003950D01*
X007544Y003763D01*
X007544Y003560D01*
X007622Y003372D01*
X007765Y003229D01*
X007953Y003151D01*
X008156Y003151D01*
X008343Y003229D01*
X008487Y003372D01*
X008554Y003536D01*
X008622Y003372D01*
X008765Y003229D01*
X008953Y003151D01*
X009156Y003151D01*
X009343Y003229D01*
X009487Y003372D01*
X009554Y003536D01*
X009622Y003372D01*
X009765Y003229D01*
X009953Y003151D01*
X010156Y003151D01*
X010343Y003229D01*
X010487Y003372D01*
X010545Y003513D01*
X010563Y003458D01*
X010601Y003383D01*
X010650Y003316D01*
X010709Y003257D01*
X010777Y003208D01*
X010851Y003170D01*
X010930Y003144D01*
X011013Y003131D01*
X011014Y003131D01*
X011014Y003621D01*
X011094Y003621D01*
X011094Y003131D01*
X011096Y003131D01*
X011178Y003144D01*
X011258Y003170D01*
X011332Y003208D01*
X011400Y003257D01*
X011459Y003316D01*
X011508Y003383D01*
X011545Y003458D01*
X011564Y003513D01*
X011622Y003372D01*
X011765Y003229D01*
X011953Y003151D01*
X012156Y003151D01*
X012343Y003229D01*
X012487Y003372D01*
X012554Y003536D01*
X012622Y003372D01*
X012765Y003229D01*
X012953Y003151D01*
X013156Y003151D01*
X013343Y003229D01*
X013487Y003372D01*
X013554Y003536D01*
X013622Y003372D01*
X013765Y003229D01*
X013953Y003151D01*
X014156Y003151D01*
X014343Y003229D01*
X014487Y003372D01*
X014554Y003536D01*
X014622Y003372D01*
X014765Y003229D01*
X014953Y003151D01*
X015156Y003151D01*
X015343Y003229D01*
X015487Y003372D01*
X015554Y003536D01*
X015622Y003372D01*
X015765Y003229D01*
X015953Y003151D01*
X016156Y003151D01*
X016343Y003229D01*
X016487Y003372D01*
X016554Y003536D01*
X016622Y003372D01*
X016765Y003229D01*
X016953Y003151D01*
X017156Y003151D01*
X017343Y003229D01*
X017487Y003372D01*
X017554Y003536D01*
X017622Y003372D01*
X017765Y003229D01*
X017929Y003161D01*
X017765Y003094D01*
X017622Y002950D01*
X017544Y002763D01*
X017544Y002560D01*
X017622Y002372D01*
X017765Y002229D01*
X017953Y002151D01*
X018156Y002151D01*
X018084Y002058D02*
X018777Y002058D01*
X018587Y001939D02*
X018297Y001939D01*
X018399Y001821D02*
X018495Y001821D01*
X017615Y001939D02*
X017297Y001939D01*
X017399Y001821D02*
X017512Y001821D01*
X017463Y001702D02*
X017449Y001702D01*
X017699Y002295D02*
X002484Y002295D01*
X002516Y002414D02*
X002593Y002414D01*
X002593Y002532D02*
X002516Y002532D01*
X002516Y002651D02*
X002593Y002651D01*
X002593Y002769D02*
X002516Y002769D01*
X002516Y002888D02*
X001014Y002888D01*
X001014Y003006D02*
X002014Y003006D01*
X002014Y003125D02*
X001014Y003125D01*
X001014Y003243D02*
X002014Y003243D01*
X002030Y003362D02*
X001014Y003362D01*
X001014Y003480D02*
X002022Y003480D01*
X002014Y003599D02*
X001014Y003599D01*
X001014Y003718D02*
X002014Y003718D01*
X002014Y003836D02*
X001014Y003836D01*
X001014Y003955D02*
X002014Y003955D01*
X002014Y004073D02*
X001014Y004073D01*
X001014Y004192D02*
X002014Y004192D01*
X002014Y004310D02*
X001014Y004310D01*
X001014Y004429D02*
X002093Y004429D01*
X002516Y004429D02*
X002593Y004429D01*
X002593Y004451D02*
X002955Y004451D01*
X002996Y004440D01*
X003033Y004419D01*
X003062Y004389D01*
X003083Y004353D01*
X003094Y004312D01*
X003094Y003950D01*
X002593Y003950D01*
X002593Y004451D01*
X002593Y004310D02*
X002516Y004310D01*
X002516Y004192D02*
X002593Y004192D01*
X002593Y004073D02*
X002516Y004073D01*
X002516Y003955D02*
X002593Y003955D01*
X002593Y003836D02*
X002516Y003836D01*
X002516Y003718D02*
X002593Y003718D01*
X002593Y003599D02*
X002516Y003599D01*
X002516Y003480D02*
X002593Y003480D01*
X002593Y003362D02*
X002516Y003362D01*
X002516Y003243D02*
X002593Y003243D01*
X002593Y003125D02*
X002516Y003125D01*
X002516Y003006D02*
X002593Y003006D01*
X002593Y002888D02*
X003784Y002888D01*
X003784Y002808D02*
X003864Y002617D01*
X004010Y002470D01*
X004201Y002391D01*
X004408Y002391D01*
X004599Y002470D01*
X004745Y002617D01*
X004824Y002808D01*
X004824Y003015D01*
X004745Y003206D01*
X004599Y003352D01*
X004408Y003431D01*
X004201Y003431D01*
X004010Y003352D01*
X003864Y003206D01*
X003784Y003015D01*
X003784Y002808D01*
X003800Y002769D02*
X003094Y002769D01*
X003094Y002651D02*
X003849Y002651D01*
X003948Y002532D02*
X003094Y002532D01*
X003043Y002414D02*
X004147Y002414D01*
X004462Y002414D02*
X005066Y002414D01*
X005076Y002403D02*
X005113Y002382D01*
X005153Y002371D01*
X005516Y002371D01*
X005516Y002873D01*
X005014Y002873D01*
X005014Y002510D01*
X005025Y002469D01*
X005046Y002433D01*
X005076Y002403D01*
X005014Y002532D02*
X004661Y002532D01*
X004759Y002651D02*
X005014Y002651D01*
X005014Y002769D02*
X004808Y002769D01*
X004824Y002888D02*
X005516Y002888D01*
X005516Y002873D02*
X005516Y002950D01*
X005516Y003371D01*
X005516Y003873D01*
X005014Y003873D01*
X005014Y003510D01*
X005025Y003469D01*
X005046Y003433D01*
X005068Y003411D01*
X005046Y003389D01*
X005025Y003353D01*
X005014Y003312D01*
X005014Y002950D01*
X005516Y002950D01*
X005593Y002950D01*
X005593Y003371D01*
X005593Y003873D01*
X005593Y003950D01*
X006094Y003950D01*
X006094Y004312D01*
X006083Y004353D01*
X006062Y004389D01*
X006033Y004419D01*
X005996Y004440D01*
X005955Y004451D01*
X005802Y004451D01*
X005849Y004470D01*
X005988Y004610D01*
X006597Y004475D01*
X006601Y004471D01*
X006612Y004471D01*
X006623Y004469D01*
X006601Y004439D01*
X006563Y004365D01*
X006537Y004285D01*
X006524Y004203D01*
X006524Y004201D01*
X007014Y004201D01*
X007014Y004121D01*
X006524Y004121D01*
X006524Y004120D01*
X006537Y004037D01*
X006563Y003958D01*
X006601Y003883D01*
X006650Y003816D01*
X006709Y003757D01*
X006777Y003708D01*
X006851Y003670D01*
X006930Y003644D01*
X007013Y003631D01*
X007014Y003631D01*
X007014Y004121D01*
X007094Y004121D01*
X007094Y003631D01*
X007096Y003631D01*
X007178Y003644D01*
X007258Y003670D01*
X007332Y003708D01*
X007400Y003757D01*
X007459Y003816D01*
X007508Y003883D01*
X007545Y003958D01*
X007571Y004037D01*
X007584Y004120D01*
X007584Y004121D01*
X007095Y004121D01*
X007095Y004201D01*
X007584Y004201D01*
X007584Y004203D01*
X007571Y004285D01*
X007545Y004365D01*
X007508Y004439D01*
X007491Y004461D01*
X014137Y004461D01*
X014254Y004578D01*
X014254Y004578D01*
X018864Y009188D01*
X018953Y009151D01*
X019156Y009151D01*
X019343Y009229D01*
X019487Y009372D01*
X019564Y009560D01*
X019564Y009763D01*
X031966Y009763D01*
X031966Y009645D02*
X019564Y009645D01*
X019564Y009763D02*
X019487Y009950D01*
X019343Y010094D01*
X019156Y010171D01*
X018953Y010171D01*
X018765Y010094D01*
X018622Y009950D01*
X018554Y009787D01*
X018487Y009950D01*
X018343Y010094D01*
X018156Y010171D01*
X017953Y010171D01*
X017765Y010094D01*
X017622Y009950D01*
X017554Y009787D01*
X017487Y009950D01*
X017343Y010094D01*
X017156Y010171D01*
X016953Y010171D01*
X016765Y010094D01*
X016622Y009950D01*
X016554Y009787D01*
X016487Y009950D01*
X016343Y010094D01*
X016156Y010171D01*
X015953Y010171D01*
X015765Y010094D01*
X015622Y009950D01*
X015554Y009787D01*
X015487Y009950D01*
X015343Y010094D01*
X015156Y010171D01*
X014953Y010171D01*
X014765Y010094D01*
X014622Y009950D01*
X014554Y009787D01*
X014487Y009950D01*
X014343Y010094D01*
X014156Y010171D01*
X013953Y010171D01*
X013765Y010094D01*
X013622Y009950D01*
X013554Y009787D01*
X013487Y009950D01*
X013343Y010094D01*
X013156Y010171D01*
X012953Y010171D01*
X012765Y010094D01*
X012622Y009950D01*
X012554Y009787D01*
X012487Y009950D01*
X012343Y010094D01*
X012156Y010171D01*
X011953Y010171D01*
X011765Y010094D01*
X011622Y009950D01*
X011554Y009787D01*
X011487Y009950D01*
X011343Y010094D01*
X011156Y010171D01*
X010953Y010171D01*
X010765Y010094D01*
X010622Y009950D01*
X010554Y009787D01*
X010487Y009950D01*
X010343Y010094D01*
X010156Y010171D01*
X009953Y010171D01*
X009765Y010094D01*
X009622Y009950D01*
X009564Y009809D01*
X009545Y009865D01*
X009508Y009939D01*
X009459Y010006D01*
X009400Y010065D01*
X009332Y010115D01*
X009258Y010152D01*
X009178Y010178D01*
X009096Y010191D01*
X009094Y010191D01*
X009094Y009701D01*
X009014Y009701D01*
X009014Y010191D01*
X009013Y010191D01*
X008930Y010178D01*
X008851Y010152D01*
X008777Y010115D01*
X008709Y010065D01*
X008650Y010006D01*
X008601Y009939D01*
X008563Y009865D01*
X008545Y009809D01*
X008487Y009950D01*
X008343Y010094D01*
X008156Y010171D01*
X007953Y010171D01*
X007765Y010094D01*
X007622Y009950D01*
X007544Y009763D01*
X007544Y009560D01*
X007622Y009372D01*
X007765Y009229D01*
X007953Y009151D01*
X008156Y009151D01*
X008343Y009229D01*
X008487Y009372D01*
X008545Y009513D01*
X008563Y009458D01*
X008601Y009383D01*
X008650Y009316D01*
X008709Y009257D01*
X008777Y009208D01*
X008851Y009170D01*
X008930Y009144D01*
X009013Y009131D01*
X009014Y009131D01*
X009014Y009621D01*
X009094Y009621D01*
X009094Y009131D01*
X009096Y009131D01*
X009178Y009144D01*
X009258Y009170D01*
X009332Y009208D01*
X009400Y009257D01*
X009459Y009316D01*
X009508Y009383D01*
X009545Y009458D01*
X009564Y009513D01*
X009622Y009372D01*
X009765Y009229D01*
X009953Y009151D01*
X010156Y009151D01*
X010343Y009229D01*
X010487Y009372D01*
X010554Y009536D01*
X010622Y009372D01*
X010765Y009229D01*
X010953Y009151D01*
X011156Y009151D01*
X011343Y009229D01*
X011487Y009372D01*
X011554Y009536D01*
X011622Y009372D01*
X011765Y009229D01*
X011953Y009151D01*
X012156Y009151D01*
X012343Y009229D01*
X012487Y009372D01*
X012554Y009536D01*
X012622Y009372D01*
X012765Y009229D01*
X012953Y009151D01*
X013156Y009151D01*
X013343Y009229D01*
X013487Y009372D01*
X013554Y009536D01*
X013622Y009372D01*
X013765Y009229D01*
X013953Y009151D01*
X014156Y009151D01*
X014343Y009229D01*
X014487Y009372D01*
X014554Y009536D01*
X014622Y009372D01*
X014765Y009229D01*
X014953Y009151D01*
X015156Y009151D01*
X015343Y009229D01*
X015487Y009372D01*
X015554Y009536D01*
X015622Y009372D01*
X015765Y009229D01*
X015953Y009151D01*
X016156Y009151D01*
X016343Y009229D01*
X016487Y009372D01*
X016554Y009536D01*
X016622Y009372D01*
X016765Y009229D01*
X016953Y009151D01*
X017156Y009151D01*
X017343Y009229D01*
X017487Y009372D01*
X017554Y009536D01*
X017622Y009372D01*
X017765Y009229D01*
X017953Y009151D01*
X018156Y009151D01*
X018336Y009226D01*
X013971Y004861D01*
X007491Y004861D01*
X007508Y004883D01*
X007545Y004958D01*
X007571Y005037D01*
X007584Y005120D01*
X007584Y005121D01*
X007095Y005121D01*
X007095Y005201D01*
X007584Y005201D01*
X007584Y005203D01*
X007571Y005285D01*
X007545Y005365D01*
X007508Y005439D01*
X007459Y005506D01*
X007400Y005565D01*
X007332Y005615D01*
X007258Y005652D01*
X007202Y005670D01*
X007204Y005671D01*
X007957Y005671D01*
X008152Y005671D01*
X008332Y005746D01*
X009295Y006709D01*
X009343Y006729D01*
X009487Y006872D01*
X009564Y007060D01*
X009564Y007263D01*
X009487Y007450D01*
X009343Y007594D01*
X009156Y007671D01*
X008953Y007671D01*
X008765Y007594D01*
X008622Y007450D01*
X008602Y007402D01*
X007851Y006651D01*
X007204Y006651D01*
X007180Y006661D01*
X007343Y006729D01*
X007487Y006872D01*
X007564Y007060D01*
X007564Y007263D01*
X007487Y007450D01*
X007343Y007594D01*
X007180Y007661D01*
X007343Y007729D01*
X007487Y007872D01*
X007564Y008060D01*
X007564Y008263D01*
X007487Y008450D01*
X007343Y008594D01*
X007180Y008661D01*
X007343Y008729D01*
X007487Y008872D01*
X007564Y009060D01*
X007564Y009263D01*
X007487Y009450D01*
X007343Y009594D01*
X007156Y009671D01*
X006953Y009671D01*
X006765Y009594D01*
X006622Y009450D01*
X006544Y009263D01*
X006544Y009060D01*
X006622Y008872D01*
X006765Y008729D01*
X006929Y008661D01*
X006765Y008594D01*
X006622Y008450D01*
X006544Y008263D01*
X006544Y008060D01*
X006622Y007872D01*
X006765Y007729D01*
X006929Y007661D01*
X006765Y007594D01*
X006622Y007450D01*
X006544Y007263D01*
X006544Y007060D01*
X006622Y006872D01*
X006765Y006729D01*
X006929Y006661D01*
X006765Y006594D01*
X006622Y006450D01*
X006544Y006263D01*
X006544Y006060D01*
X006622Y005872D01*
X006765Y005729D01*
X006906Y005670D01*
X006851Y005652D01*
X006777Y005615D01*
X006709Y005565D01*
X006650Y005506D01*
X006601Y005439D01*
X006563Y005365D01*
X006537Y005285D01*
X006524Y005203D01*
X006524Y005201D01*
X007014Y005201D01*
X007014Y005121D01*
X006524Y005121D01*
X006524Y005120D01*
X006537Y005037D01*
X006563Y004958D01*
X006601Y004883D01*
X006074Y005001D01*
X006074Y005015D01*
X005995Y005206D01*
X005849Y005352D01*
X005658Y005431D01*
X005451Y005431D01*
X005260Y005352D01*
X005114Y005206D01*
X005034Y005015D01*
X005034Y004808D01*
X005114Y004617D01*
X005260Y004470D01*
X005306Y004451D01*
X005153Y004451D01*
X005113Y004440D01*
X005076Y004419D01*
X005046Y004389D01*
X005025Y004353D01*
X005014Y004312D01*
X005014Y003950D01*
X005516Y003950D01*
X005516Y003873D01*
X005593Y003873D01*
X006094Y003873D01*
X006094Y003510D01*
X006083Y003469D01*
X006062Y003433D01*
X006041Y003411D01*
X006062Y003389D01*
X006083Y003353D01*
X006094Y003312D01*
X006094Y002950D01*
X005593Y002950D01*
X005593Y002873D01*
X006094Y002873D01*
X006094Y002510D01*
X006083Y002469D01*
X006062Y002433D01*
X006033Y002403D01*
X005996Y002382D01*
X005955Y002371D01*
X005593Y002371D01*
X005593Y002873D01*
X005516Y002873D01*
X005593Y002888D02*
X017596Y002888D01*
X017547Y002769D02*
X006094Y002769D01*
X006094Y002651D02*
X017544Y002651D01*
X017556Y002532D02*
X006094Y002532D01*
X006043Y002414D02*
X017605Y002414D01*
X018409Y002295D02*
X021699Y002295D01*
X021605Y002414D02*
X018504Y002414D01*
X018553Y002532D02*
X021556Y002532D01*
X021544Y002651D02*
X018564Y002651D01*
X018562Y002769D02*
X021547Y002769D01*
X021596Y002888D02*
X018513Y002888D01*
X018430Y003006D02*
X021678Y003006D01*
X021841Y003125D02*
X018268Y003125D01*
X018358Y003243D02*
X018751Y003243D01*
X018632Y003362D02*
X018476Y003362D01*
X018531Y003480D02*
X018577Y003480D01*
X017841Y003125D02*
X006094Y003125D01*
X006094Y003243D02*
X007751Y003243D01*
X007632Y003362D02*
X006078Y003362D01*
X006086Y003480D02*
X007577Y003480D01*
X007544Y003599D02*
X006094Y003599D01*
X006094Y003718D02*
X006763Y003718D01*
X006635Y003836D02*
X006094Y003836D01*
X006094Y003955D02*
X006565Y003955D01*
X006532Y004073D02*
X006094Y004073D01*
X006094Y004192D02*
X007014Y004192D01*
X007095Y004192D02*
X031968Y004192D01*
X031968Y004310D02*
X007563Y004310D01*
X007513Y004429D02*
X031968Y004429D01*
X031968Y004547D02*
X014223Y004547D01*
X014342Y004666D02*
X031968Y004666D01*
X031968Y004784D02*
X014460Y004784D01*
X014579Y004903D02*
X031968Y004903D01*
X031968Y005022D02*
X014697Y005022D01*
X014816Y005140D02*
X031968Y005140D01*
X031968Y005259D02*
X014934Y005259D01*
X015053Y005377D02*
X031968Y005377D01*
X031968Y005496D02*
X015172Y005496D01*
X015290Y005614D02*
X031968Y005614D01*
X031968Y005733D02*
X015409Y005733D01*
X015527Y005851D02*
X031967Y005851D01*
X031967Y005970D02*
X015646Y005970D01*
X015764Y006088D02*
X031967Y006088D01*
X031967Y006207D02*
X015883Y006207D01*
X016001Y006326D02*
X031967Y006326D01*
X031967Y006444D02*
X016120Y006444D01*
X016238Y006563D02*
X031967Y006563D01*
X031967Y006681D02*
X016357Y006681D01*
X016476Y006800D02*
X031967Y006800D01*
X031967Y006918D02*
X016594Y006918D01*
X016713Y007037D02*
X020630Y007037D01*
X020607Y007047D02*
X020897Y006926D01*
X021211Y006926D01*
X021502Y007047D01*
X021724Y007269D01*
X021844Y007559D01*
X021844Y007873D01*
X021724Y008164D01*
X021502Y008386D01*
X021211Y008506D01*
X020897Y008506D01*
X020607Y008386D01*
X020385Y008164D01*
X020264Y007873D01*
X020264Y007559D01*
X020385Y007269D01*
X020607Y007047D01*
X020498Y007155D02*
X016831Y007155D01*
X016950Y007274D02*
X020382Y007274D01*
X020333Y007392D02*
X017068Y007392D01*
X017187Y007511D02*
X020284Y007511D01*
X020264Y007629D02*
X017305Y007629D01*
X017424Y007748D02*
X020264Y007748D01*
X020264Y007867D02*
X017542Y007867D01*
X017661Y007985D02*
X020311Y007985D01*
X020360Y008104D02*
X017780Y008104D01*
X017898Y008222D02*
X020443Y008222D01*
X020562Y008341D02*
X018017Y008341D01*
X018135Y008459D02*
X020784Y008459D01*
X021325Y008459D02*
X022607Y008459D01*
X022556Y008510D02*
X022688Y008378D01*
X022861Y008306D01*
X023048Y008306D01*
X023221Y008378D01*
X023353Y008510D01*
X023424Y008683D01*
X023424Y008870D01*
X023353Y009042D01*
X023221Y009175D01*
X023048Y009246D01*
X022861Y009246D01*
X022688Y009175D01*
X022556Y009042D01*
X022484Y008870D01*
X022484Y008683D01*
X022556Y008510D01*
X022528Y008578D02*
X018254Y008578D01*
X018372Y008696D02*
X022484Y008696D01*
X022484Y008815D02*
X018491Y008815D01*
X018609Y008933D02*
X022511Y008933D01*
X022565Y009052D02*
X018728Y009052D01*
X018846Y009171D02*
X018906Y009171D01*
X019202Y009171D02*
X022684Y009171D01*
X023225Y009171D02*
X023664Y009171D01*
X023668Y009175D02*
X023536Y009042D01*
X023464Y008870D01*
X023464Y008683D01*
X023536Y008510D01*
X023668Y008378D01*
X023841Y008306D01*
X024028Y008306D01*
X024201Y008378D01*
X024333Y008510D01*
X024404Y008683D01*
X024404Y008870D01*
X024333Y009042D01*
X024201Y009175D01*
X024028Y009246D01*
X023841Y009246D01*
X023668Y009175D01*
X023545Y009052D02*
X023343Y009052D01*
X023398Y008933D02*
X023491Y008933D01*
X023464Y008815D02*
X023424Y008815D01*
X023424Y008696D02*
X023464Y008696D01*
X023508Y008578D02*
X023381Y008578D01*
X023302Y008459D02*
X023587Y008459D01*
X023758Y008341D02*
X023131Y008341D01*
X022778Y008341D02*
X021547Y008341D01*
X021666Y008222D02*
X025183Y008222D01*
X025125Y008164D02*
X025004Y007873D01*
X025004Y007559D01*
X025125Y007269D01*
X025347Y007047D01*
X025637Y006926D01*
X025951Y006926D01*
X026242Y007047D01*
X026464Y007269D01*
X026584Y007559D01*
X026584Y007873D01*
X026464Y008164D01*
X026242Y008386D01*
X025951Y008506D01*
X025637Y008506D01*
X025347Y008386D01*
X025125Y008164D01*
X025100Y008104D02*
X021749Y008104D01*
X021798Y007985D02*
X022858Y007985D01*
X022861Y007986D02*
X022688Y007915D01*
X022556Y007782D01*
X022484Y007610D01*
X022484Y007423D01*
X022556Y007250D01*
X022688Y007118D01*
X022861Y007046D01*
X023048Y007046D01*
X023221Y007118D01*
X023353Y007250D01*
X023424Y007423D01*
X023424Y007610D01*
X023353Y007782D01*
X023221Y007915D01*
X023048Y007986D01*
X022861Y007986D01*
X023050Y007985D02*
X023792Y007985D01*
X023820Y007994D02*
X023746Y007970D01*
X023677Y007935D01*
X023615Y007890D01*
X023561Y007835D01*
X023515Y007773D01*
X023480Y007704D01*
X023456Y007631D01*
X023444Y007555D01*
X023444Y007546D01*
X023904Y007546D01*
X023904Y007486D01*
X023444Y007486D01*
X023444Y007478D01*
X023456Y007401D01*
X023480Y007328D01*
X023515Y007259D01*
X023561Y007197D01*
X023615Y007142D01*
X023677Y007097D01*
X023746Y007062D01*
X023820Y007038D01*
X023896Y007026D01*
X023904Y007026D01*
X023904Y007486D01*
X023964Y007486D01*
X023964Y007026D01*
X023973Y007026D01*
X024049Y007038D01*
X024122Y007062D01*
X024191Y007097D01*
X024254Y007142D01*
X024308Y007197D01*
X024353Y007259D01*
X024388Y007328D01*
X024412Y007401D01*
X024424Y007478D01*
X024424Y007486D01*
X023965Y007486D01*
X023965Y007546D01*
X024424Y007546D01*
X024424Y007555D01*
X024412Y007631D01*
X024388Y007704D01*
X024353Y007773D01*
X024308Y007835D01*
X024254Y007890D01*
X024191Y007935D01*
X024122Y007970D01*
X024049Y007994D01*
X023973Y008006D01*
X023964Y008006D01*
X023964Y007546D01*
X023904Y007546D01*
X023904Y008006D01*
X023896Y008006D01*
X023820Y007994D01*
X023904Y007985D02*
X023964Y007985D01*
X024077Y007985D02*
X025051Y007985D01*
X025004Y007867D02*
X024277Y007867D01*
X024366Y007748D02*
X025004Y007748D01*
X025004Y007629D02*
X024413Y007629D01*
X024409Y007392D02*
X025073Y007392D01*
X025122Y007274D02*
X024361Y007274D01*
X024266Y007155D02*
X025238Y007155D01*
X025370Y007037D02*
X024039Y007037D01*
X023964Y007037D02*
X023904Y007037D01*
X023829Y007037D02*
X021478Y007037D01*
X021611Y007155D02*
X022651Y007155D01*
X022546Y007274D02*
X021726Y007274D01*
X021775Y007392D02*
X022497Y007392D01*
X022484Y007511D02*
X021824Y007511D01*
X021844Y007629D02*
X022493Y007629D01*
X022542Y007748D02*
X021844Y007748D01*
X021844Y007867D02*
X022640Y007867D01*
X023269Y007867D02*
X023592Y007867D01*
X023503Y007748D02*
X023367Y007748D01*
X023416Y007629D02*
X023456Y007629D01*
X023424Y007511D02*
X023904Y007511D01*
X023965Y007511D02*
X025024Y007511D01*
X023964Y007629D02*
X023904Y007629D01*
X023904Y007748D02*
X023964Y007748D01*
X023964Y007867D02*
X023904Y007867D01*
X023904Y007392D02*
X023964Y007392D01*
X023964Y007274D02*
X023904Y007274D01*
X023904Y007155D02*
X023964Y007155D01*
X023602Y007155D02*
X023258Y007155D01*
X023363Y007274D02*
X023508Y007274D01*
X023459Y007392D02*
X023412Y007392D01*
X024111Y008341D02*
X025302Y008341D01*
X025524Y008459D02*
X024282Y008459D01*
X024361Y008578D02*
X031967Y008578D01*
X031967Y008696D02*
X024404Y008696D01*
X024404Y008815D02*
X031966Y008815D01*
X031966Y008933D02*
X024378Y008933D01*
X024323Y009052D02*
X031966Y009052D01*
X031966Y009171D02*
X024205Y009171D01*
X026065Y008459D02*
X031967Y008459D01*
X031967Y008341D02*
X026287Y008341D01*
X026406Y008222D02*
X031967Y008222D01*
X031967Y008104D02*
X026489Y008104D01*
X026538Y007985D02*
X031967Y007985D01*
X031967Y007867D02*
X026584Y007867D01*
X026584Y007748D02*
X031967Y007748D01*
X031967Y007629D02*
X026584Y007629D01*
X026564Y007511D02*
X031967Y007511D01*
X031967Y007392D02*
X026515Y007392D01*
X026466Y007274D02*
X031967Y007274D01*
X031967Y007155D02*
X026351Y007155D01*
X026218Y007037D02*
X031967Y007037D01*
X031966Y009289D02*
X019403Y009289D01*
X019501Y009408D02*
X031966Y009408D01*
X031966Y009526D02*
X019550Y009526D01*
X019054Y009661D02*
X014054Y004661D01*
X007429Y004661D01*
X007518Y004903D02*
X014013Y004903D01*
X014132Y005022D02*
X007566Y005022D01*
X007576Y005259D02*
X014369Y005259D01*
X014487Y005377D02*
X007539Y005377D01*
X007466Y005496D02*
X014606Y005496D01*
X014725Y005614D02*
X007332Y005614D01*
X006776Y005614D02*
X004824Y005614D01*
X004824Y005558D02*
X004745Y005367D01*
X004599Y005220D01*
X004408Y005141D01*
X004201Y005141D01*
X004010Y005220D01*
X003864Y005367D01*
X003784Y005558D01*
X003784Y005765D01*
X003864Y005956D01*
X004010Y006102D01*
X004201Y006181D01*
X004408Y006181D01*
X004599Y006102D01*
X004745Y005956D01*
X004824Y005765D01*
X004824Y005558D01*
X004799Y005496D02*
X006642Y005496D01*
X006570Y005377D02*
X005788Y005377D01*
X005942Y005259D02*
X006533Y005259D01*
X007014Y005140D02*
X006022Y005140D01*
X006071Y005022D02*
X006542Y005022D01*
X006513Y004903D02*
X006591Y004903D01*
X006679Y004661D02*
X005554Y004911D01*
X005034Y004903D02*
X001014Y004903D01*
X001014Y004784D02*
X005044Y004784D01*
X005093Y004666D02*
X001014Y004666D01*
X001014Y004547D02*
X005183Y004547D01*
X005093Y004429D02*
X003016Y004429D01*
X003094Y004310D02*
X005014Y004310D01*
X005014Y004192D02*
X003094Y004192D01*
X003094Y004073D02*
X005014Y004073D01*
X005014Y003955D02*
X003094Y003955D01*
X003094Y003836D02*
X005014Y003836D01*
X005014Y003718D02*
X003094Y003718D01*
X003094Y003599D02*
X005014Y003599D01*
X005022Y003480D02*
X003086Y003480D01*
X003078Y003362D02*
X004034Y003362D01*
X003901Y003243D02*
X003094Y003243D01*
X003094Y003125D02*
X003830Y003125D01*
X003784Y003006D02*
X003094Y003006D01*
X002014Y002769D02*
X001014Y002769D01*
X001014Y002651D02*
X002014Y002651D01*
X001516Y002532D02*
X001014Y002532D01*
X001014Y002414D02*
X001249Y002414D01*
X001097Y002295D02*
X001014Y002295D01*
X004575Y003362D02*
X005030Y003362D01*
X005014Y003243D02*
X004708Y003243D01*
X004779Y003125D02*
X005014Y003125D01*
X005014Y003006D02*
X004824Y003006D01*
X005516Y003006D02*
X005593Y003006D01*
X005593Y003125D02*
X005516Y003125D01*
X005516Y003243D02*
X005593Y003243D01*
X005593Y003362D02*
X005516Y003362D01*
X005516Y003480D02*
X005593Y003480D01*
X005593Y003599D02*
X005516Y003599D01*
X005516Y003718D02*
X005593Y003718D01*
X005593Y003836D02*
X005516Y003836D01*
X006094Y004310D02*
X006545Y004310D01*
X006596Y004429D02*
X006016Y004429D01*
X005926Y004547D02*
X006270Y004547D01*
X007014Y004073D02*
X007094Y004073D01*
X007094Y003955D02*
X007014Y003955D01*
X007014Y003836D02*
X007094Y003836D01*
X007094Y003718D02*
X007014Y003718D01*
X007345Y003718D02*
X007544Y003718D01*
X007575Y003836D02*
X007473Y003836D01*
X007544Y003955D02*
X007626Y003955D01*
X007577Y004073D02*
X007745Y004073D01*
X008364Y004073D02*
X008745Y004073D01*
X008626Y003955D02*
X008482Y003955D01*
X008534Y003836D02*
X008575Y003836D01*
X009364Y004073D02*
X009745Y004073D01*
X009626Y003955D02*
X009482Y003955D01*
X009534Y003836D02*
X009575Y003836D01*
X010364Y004073D02*
X010720Y004073D01*
X010612Y003955D02*
X010482Y003955D01*
X010534Y003836D02*
X010554Y003836D01*
X011014Y003836D02*
X011094Y003836D01*
X011094Y003718D02*
X011014Y003718D01*
X011014Y003599D02*
X011094Y003599D01*
X011094Y003480D02*
X011014Y003480D01*
X011014Y003362D02*
X011094Y003362D01*
X011094Y003243D02*
X011014Y003243D01*
X010728Y003243D02*
X010358Y003243D01*
X010476Y003362D02*
X010617Y003362D01*
X010556Y003480D02*
X010531Y003480D01*
X011381Y003243D02*
X011751Y003243D01*
X011632Y003362D02*
X011492Y003362D01*
X011553Y003480D02*
X011577Y003480D01*
X012358Y003243D02*
X012751Y003243D01*
X012632Y003362D02*
X012476Y003362D01*
X012531Y003480D02*
X012577Y003480D01*
X013358Y003243D02*
X013751Y003243D01*
X013632Y003362D02*
X013476Y003362D01*
X013531Y003480D02*
X013577Y003480D01*
X013575Y003836D02*
X013534Y003836D01*
X013482Y003955D02*
X013626Y003955D01*
X013745Y004073D02*
X013364Y004073D01*
X012745Y004073D02*
X012364Y004073D01*
X012482Y003955D02*
X012626Y003955D01*
X012575Y003836D02*
X012534Y003836D01*
X011745Y004073D02*
X011389Y004073D01*
X011496Y003955D02*
X011626Y003955D01*
X011575Y003836D02*
X011555Y003836D01*
X011094Y003955D02*
X011014Y003955D01*
X011014Y004073D02*
X011094Y004073D01*
X009751Y003243D02*
X009358Y003243D01*
X009476Y003362D02*
X009632Y003362D01*
X009577Y003480D02*
X009531Y003480D01*
X008751Y003243D02*
X008358Y003243D01*
X008476Y003362D02*
X008632Y003362D01*
X008577Y003480D02*
X008531Y003480D01*
X006094Y003006D02*
X017678Y003006D01*
X017751Y003243D02*
X017358Y003243D01*
X017476Y003362D02*
X017632Y003362D01*
X017577Y003480D02*
X017531Y003480D01*
X016751Y003243D02*
X016358Y003243D01*
X016476Y003362D02*
X016632Y003362D01*
X016577Y003480D02*
X016531Y003480D01*
X015751Y003243D02*
X015358Y003243D01*
X015476Y003362D02*
X015632Y003362D01*
X015577Y003480D02*
X015531Y003480D01*
X014751Y003243D02*
X014358Y003243D01*
X014476Y003362D02*
X014632Y003362D01*
X014577Y003480D02*
X014531Y003480D01*
X014534Y003836D02*
X014575Y003836D01*
X014626Y003955D02*
X014482Y003955D01*
X014364Y004073D02*
X014745Y004073D01*
X015364Y004073D02*
X015745Y004073D01*
X015626Y003955D02*
X015482Y003955D01*
X015534Y003836D02*
X015575Y003836D01*
X016364Y004073D02*
X016745Y004073D01*
X016626Y003955D02*
X016482Y003955D01*
X016534Y003836D02*
X016575Y003836D01*
X017364Y004073D02*
X017745Y004073D01*
X017626Y003955D02*
X017482Y003955D01*
X017534Y003836D02*
X017575Y003836D01*
X018364Y004073D02*
X018745Y004073D01*
X018626Y003955D02*
X018482Y003955D01*
X018534Y003836D02*
X018575Y003836D01*
X019364Y004073D02*
X031968Y004073D01*
X031968Y003955D02*
X019482Y003955D01*
X019534Y003836D02*
X031968Y003836D01*
X031968Y003718D02*
X019564Y003718D01*
X019564Y003599D02*
X031968Y003599D01*
X031968Y003480D02*
X019531Y003480D01*
X019476Y003362D02*
X031968Y003362D01*
X031968Y003243D02*
X019358Y003243D01*
X022268Y003125D02*
X031968Y003125D01*
X031968Y003006D02*
X022430Y003006D01*
X022513Y002888D02*
X031969Y002888D01*
X031969Y002769D02*
X022562Y002769D01*
X022564Y002651D02*
X031969Y002651D01*
X031969Y002532D02*
X031593Y002532D01*
X031860Y002414D02*
X031969Y002414D01*
X031043Y002532D02*
X022553Y002532D01*
X022504Y002414D02*
X030776Y002414D01*
X030624Y002295D02*
X022409Y002295D01*
X014843Y005733D02*
X008300Y005733D01*
X008437Y005851D02*
X014962Y005851D01*
X015080Y005970D02*
X008556Y005970D01*
X008674Y006088D02*
X015199Y006088D01*
X015317Y006207D02*
X008793Y006207D01*
X008912Y006326D02*
X015436Y006326D01*
X015554Y006444D02*
X009030Y006444D01*
X009149Y006563D02*
X015673Y006563D01*
X015791Y006681D02*
X013228Y006681D01*
X013156Y006651D02*
X013343Y006729D01*
X013487Y006872D01*
X013564Y007060D01*
X013564Y007263D01*
X013487Y007450D01*
X013343Y007594D01*
X013156Y007671D01*
X012953Y007671D01*
X012765Y007594D01*
X012622Y007450D01*
X012544Y007263D01*
X012544Y007060D01*
X012622Y006872D01*
X012765Y006729D01*
X012953Y006651D01*
X013156Y006651D01*
X012881Y006681D02*
X009267Y006681D01*
X009414Y006800D02*
X012695Y006800D01*
X012603Y006918D02*
X009506Y006918D01*
X009555Y007037D02*
X012554Y007037D01*
X012544Y007155D02*
X009564Y007155D01*
X009560Y007274D02*
X012549Y007274D01*
X012598Y007392D02*
X009511Y007392D01*
X009426Y007511D02*
X012683Y007511D01*
X012852Y007629D02*
X009257Y007629D01*
X009156Y007776D02*
X008953Y007776D01*
X008765Y007854D01*
X008622Y007997D01*
X008544Y008185D01*
X008544Y008388D01*
X008622Y008575D01*
X008765Y008719D01*
X008953Y008796D01*
X009156Y008796D01*
X009343Y008719D01*
X009487Y008575D01*
X009564Y008388D01*
X009564Y008185D01*
X009487Y007997D01*
X009343Y007854D01*
X009156Y007776D01*
X009356Y007867D02*
X012753Y007867D01*
X012765Y007854D02*
X012953Y007776D01*
X013156Y007776D01*
X013343Y007854D01*
X013487Y007997D01*
X013564Y008185D01*
X013564Y008388D01*
X013487Y008575D01*
X013343Y008719D01*
X013156Y008796D01*
X012953Y008796D01*
X012765Y008719D01*
X012622Y008575D01*
X012544Y008388D01*
X012544Y008185D01*
X012622Y007997D01*
X012765Y007854D01*
X012634Y007985D02*
X009474Y007985D01*
X009531Y008104D02*
X012578Y008104D01*
X012544Y008222D02*
X009564Y008222D01*
X009564Y008341D02*
X012544Y008341D01*
X012574Y008459D02*
X009535Y008459D01*
X009484Y008578D02*
X012625Y008578D01*
X012743Y008696D02*
X009365Y008696D01*
X008743Y008696D02*
X007265Y008696D01*
X007359Y008578D02*
X008625Y008578D01*
X008574Y008459D02*
X007477Y008459D01*
X007532Y008341D02*
X008544Y008341D01*
X008544Y008222D02*
X007564Y008222D01*
X007564Y008104D02*
X008578Y008104D01*
X008634Y007985D02*
X007533Y007985D01*
X007481Y007867D02*
X008753Y007867D01*
X008852Y007629D02*
X007257Y007629D01*
X007362Y007748D02*
X016858Y007748D01*
X016740Y007629D02*
X013257Y007629D01*
X013426Y007511D02*
X016621Y007511D01*
X016503Y007392D02*
X013511Y007392D01*
X013560Y007274D02*
X016384Y007274D01*
X016266Y007155D02*
X013564Y007155D01*
X013555Y007037D02*
X016147Y007037D01*
X016029Y006918D02*
X013506Y006918D01*
X013414Y006800D02*
X015910Y006800D01*
X016977Y007867D02*
X013356Y007867D01*
X013474Y007985D02*
X017095Y007985D01*
X017214Y008104D02*
X013531Y008104D01*
X013564Y008222D02*
X017332Y008222D01*
X017451Y008341D02*
X013564Y008341D01*
X013535Y008459D02*
X017570Y008459D01*
X017688Y008578D02*
X013484Y008578D01*
X013365Y008696D02*
X017807Y008696D01*
X017925Y008815D02*
X007429Y008815D01*
X007512Y008933D02*
X018044Y008933D01*
X018162Y009052D02*
X007561Y009052D01*
X007564Y009171D02*
X007906Y009171D01*
X007705Y009289D02*
X007553Y009289D01*
X007504Y009408D02*
X007607Y009408D01*
X007558Y009526D02*
X007411Y009526D01*
X007544Y009645D02*
X007220Y009645D01*
X006889Y009645D02*
X001014Y009645D01*
X001014Y009763D02*
X007545Y009763D01*
X007594Y009882D02*
X001014Y009882D01*
X001014Y010000D02*
X007672Y010000D01*
X007827Y010119D02*
X001014Y010119D01*
X001014Y010237D02*
X031966Y010237D01*
X031966Y010119D02*
X019282Y010119D01*
X019436Y010000D02*
X031966Y010000D01*
X031966Y009882D02*
X019515Y009882D01*
X018827Y010119D02*
X018282Y010119D01*
X018436Y010000D02*
X018672Y010000D01*
X018594Y009882D02*
X018515Y009882D01*
X017827Y010119D02*
X017282Y010119D01*
X017436Y010000D02*
X017672Y010000D01*
X017594Y009882D02*
X017515Y009882D01*
X017550Y009526D02*
X017558Y009526D01*
X017607Y009408D02*
X017501Y009408D01*
X017403Y009289D02*
X017705Y009289D01*
X017906Y009171D02*
X017202Y009171D01*
X016906Y009171D02*
X016202Y009171D01*
X016403Y009289D02*
X016705Y009289D01*
X016607Y009408D02*
X016501Y009408D01*
X016550Y009526D02*
X016558Y009526D01*
X016594Y009882D02*
X016515Y009882D01*
X016436Y010000D02*
X016672Y010000D01*
X016827Y010119D02*
X016282Y010119D01*
X015827Y010119D02*
X015282Y010119D01*
X015436Y010000D02*
X015672Y010000D01*
X015594Y009882D02*
X015515Y009882D01*
X015550Y009526D02*
X015558Y009526D01*
X015607Y009408D02*
X015501Y009408D01*
X015403Y009289D02*
X015705Y009289D01*
X015906Y009171D02*
X015202Y009171D01*
X014906Y009171D02*
X014202Y009171D01*
X014403Y009289D02*
X014705Y009289D01*
X014607Y009408D02*
X014501Y009408D01*
X014550Y009526D02*
X014558Y009526D01*
X014594Y009882D02*
X014515Y009882D01*
X014436Y010000D02*
X014672Y010000D01*
X014827Y010119D02*
X014282Y010119D01*
X013827Y010119D02*
X013282Y010119D01*
X013436Y010000D02*
X013672Y010000D01*
X013594Y009882D02*
X013515Y009882D01*
X013550Y009526D02*
X013558Y009526D01*
X013607Y009408D02*
X013501Y009408D01*
X013403Y009289D02*
X013705Y009289D01*
X013906Y009171D02*
X013202Y009171D01*
X012906Y009171D02*
X012202Y009171D01*
X012403Y009289D02*
X012705Y009289D01*
X012607Y009408D02*
X012501Y009408D01*
X012550Y009526D02*
X012558Y009526D01*
X012594Y009882D02*
X012515Y009882D01*
X012436Y010000D02*
X012672Y010000D01*
X012827Y010119D02*
X012282Y010119D01*
X011827Y010119D02*
X011282Y010119D01*
X011436Y010000D02*
X011672Y010000D01*
X011594Y009882D02*
X011515Y009882D01*
X011550Y009526D02*
X011558Y009526D01*
X011607Y009408D02*
X011501Y009408D01*
X011403Y009289D02*
X011705Y009289D01*
X011906Y009171D02*
X011202Y009171D01*
X010906Y009171D02*
X010202Y009171D01*
X010403Y009289D02*
X010705Y009289D01*
X010607Y009408D02*
X010501Y009408D01*
X010550Y009526D02*
X010558Y009526D01*
X010594Y009882D02*
X010515Y009882D01*
X010436Y010000D02*
X010672Y010000D01*
X010827Y010119D02*
X010282Y010119D01*
X009827Y010119D02*
X009324Y010119D01*
X009463Y010000D02*
X009672Y010000D01*
X009594Y009882D02*
X009537Y009882D01*
X009094Y009882D02*
X009014Y009882D01*
X009014Y010000D02*
X009094Y010000D01*
X009094Y010119D02*
X009014Y010119D01*
X008785Y010119D02*
X008282Y010119D01*
X008436Y010000D02*
X008646Y010000D01*
X008572Y009882D02*
X008515Y009882D01*
X009014Y009763D02*
X009094Y009763D01*
X009094Y009526D02*
X009014Y009526D01*
X009014Y009408D02*
X009094Y009408D01*
X009094Y009289D02*
X009014Y009289D01*
X009014Y009171D02*
X009094Y009171D01*
X009259Y009171D02*
X009906Y009171D01*
X009705Y009289D02*
X009432Y009289D01*
X009520Y009408D02*
X009607Y009408D01*
X008850Y009171D02*
X008202Y009171D01*
X008403Y009289D02*
X008677Y009289D01*
X008589Y009408D02*
X008501Y009408D01*
X006844Y008696D02*
X001014Y008696D01*
X001014Y008578D02*
X001250Y008578D01*
X001265Y008594D02*
X001122Y008450D01*
X001044Y008263D01*
X001044Y008060D01*
X001122Y007872D01*
X001265Y007729D01*
X001429Y007661D01*
X001265Y007594D01*
X001122Y007450D01*
X001044Y007263D01*
X001044Y007060D01*
X001122Y006872D01*
X001265Y006729D01*
X001453Y006651D01*
X001656Y006651D01*
X001843Y006729D01*
X001987Y006872D01*
X002064Y007060D01*
X002064Y007263D01*
X001987Y007450D01*
X001843Y007594D01*
X001680Y007661D01*
X001843Y007729D01*
X001987Y007872D01*
X002064Y008060D01*
X002064Y008263D01*
X001987Y008450D01*
X001843Y008594D01*
X001656Y008671D01*
X001453Y008671D01*
X001265Y008594D01*
X001131Y008459D02*
X001014Y008459D01*
X001014Y008341D02*
X001077Y008341D01*
X001044Y008222D02*
X001014Y008222D01*
X001014Y008104D02*
X001044Y008104D01*
X001014Y007985D02*
X001075Y007985D01*
X001128Y007867D02*
X001014Y007867D01*
X001014Y007748D02*
X001246Y007748D01*
X001352Y007629D02*
X001014Y007629D01*
X001014Y007511D02*
X001183Y007511D01*
X001098Y007392D02*
X001014Y007392D01*
X001014Y007274D02*
X001049Y007274D01*
X001044Y007155D02*
X001014Y007155D01*
X001014Y007037D02*
X001054Y007037D01*
X001014Y006918D02*
X001103Y006918D01*
X001014Y006800D02*
X001195Y006800D01*
X001014Y006681D02*
X001381Y006681D01*
X001728Y006681D02*
X006881Y006681D01*
X006734Y006563D02*
X001014Y006563D01*
X001014Y006444D02*
X006619Y006444D01*
X006570Y006326D02*
X001014Y006326D01*
X001014Y006207D02*
X006544Y006207D01*
X006544Y006088D02*
X004612Y006088D01*
X004731Y005970D02*
X006582Y005970D01*
X006643Y005851D02*
X004788Y005851D01*
X004824Y005733D02*
X006762Y005733D01*
X007095Y005140D02*
X014250Y005140D01*
X008683Y007511D02*
X007426Y007511D01*
X007511Y007392D02*
X008593Y007392D01*
X008474Y007274D02*
X007560Y007274D01*
X007564Y007155D02*
X008355Y007155D01*
X008237Y007037D02*
X007555Y007037D01*
X007506Y006918D02*
X008118Y006918D01*
X008000Y006800D02*
X007414Y006800D01*
X007228Y006681D02*
X007881Y006681D01*
X006695Y006800D02*
X001914Y006800D01*
X002006Y006918D02*
X006603Y006918D01*
X006554Y007037D02*
X002055Y007037D01*
X002064Y007155D02*
X006544Y007155D01*
X006549Y007274D02*
X002060Y007274D01*
X002011Y007392D02*
X006598Y007392D01*
X006683Y007511D02*
X001926Y007511D01*
X001757Y007629D02*
X006852Y007629D01*
X006746Y007748D02*
X001862Y007748D01*
X001981Y007867D02*
X006628Y007867D01*
X006575Y007985D02*
X002033Y007985D01*
X002064Y008104D02*
X006544Y008104D01*
X006544Y008222D02*
X002064Y008222D01*
X002032Y008341D02*
X006577Y008341D01*
X006631Y008459D02*
X001977Y008459D01*
X001859Y008578D02*
X006750Y008578D01*
X006679Y008815D02*
X001014Y008815D01*
X001014Y008933D02*
X006597Y008933D01*
X006548Y009052D02*
X001014Y009052D01*
X001014Y009171D02*
X006544Y009171D01*
X006555Y009289D02*
X001014Y009289D01*
X001014Y009408D02*
X006604Y009408D01*
X006698Y009526D02*
X001014Y009526D01*
X001014Y010356D02*
X031966Y010356D01*
X031966Y010475D02*
X005853Y010475D01*
X005849Y010470D02*
X005995Y010617D01*
X006074Y010808D01*
X006074Y011015D01*
X006044Y011087D01*
X006044Y011735D01*
X006074Y011808D01*
X006074Y012015D01*
X005995Y012206D01*
X005849Y012352D01*
X005658Y012431D01*
X005451Y012431D01*
X005260Y012352D01*
X005114Y012206D01*
X005034Y012015D01*
X005034Y011808D01*
X005064Y011735D01*
X005064Y011087D01*
X005034Y011015D01*
X005034Y010808D01*
X005114Y010617D01*
X005260Y010470D01*
X005451Y010391D01*
X005658Y010391D01*
X005849Y010470D01*
X005971Y010593D02*
X031966Y010593D01*
X031966Y010712D02*
X006034Y010712D01*
X006074Y010830D02*
X025183Y010830D01*
X025187Y010826D02*
X025389Y010826D01*
X025389Y011371D01*
X024844Y011371D01*
X024844Y011169D01*
X025187Y010826D01*
X025065Y010949D02*
X021766Y010949D01*
X021663Y010846D02*
X021195Y010846D01*
X020864Y011177D01*
X020864Y011645D01*
X021195Y011976D01*
X021663Y011976D01*
X021994Y011645D01*
X021994Y011177D01*
X021663Y010846D01*
X021884Y011067D02*
X024946Y011067D01*
X024844Y011186D02*
X021994Y011186D01*
X021994Y011304D02*
X024844Y011304D01*
X024844Y011451D02*
X025389Y011451D01*
X025389Y011371D01*
X025469Y011371D01*
X025469Y010826D01*
X025672Y010826D01*
X026014Y011169D01*
X026014Y011371D01*
X025470Y011371D01*
X025470Y011451D01*
X026014Y011451D01*
X026014Y011654D01*
X025672Y011996D01*
X025469Y011996D01*
X025469Y011451D01*
X025389Y011451D01*
X025389Y011996D01*
X025187Y011996D01*
X024844Y011654D01*
X024844Y011451D01*
X024844Y011541D02*
X021994Y011541D01*
X021994Y011423D02*
X025389Y011423D01*
X025470Y011423D02*
X031966Y011423D01*
X031966Y011541D02*
X026014Y011541D01*
X026008Y011660D02*
X031966Y011660D01*
X031965Y011779D02*
X025889Y011779D01*
X025771Y011897D02*
X031965Y011897D01*
X031965Y012016D02*
X019564Y012016D01*
X019571Y012037D02*
X019584Y012120D01*
X019584Y012121D01*
X019095Y012121D01*
X019095Y012201D01*
X019584Y012201D01*
X019584Y012203D01*
X019571Y012285D01*
X019545Y012365D01*
X019508Y012439D01*
X019459Y012506D01*
X019400Y012565D01*
X019332Y012615D01*
X019258Y012652D01*
X019178Y012678D01*
X019096Y012691D01*
X019094Y012691D01*
X019094Y012201D01*
X019014Y012201D01*
X019014Y012691D01*
X019013Y012691D01*
X018930Y012678D01*
X018851Y012652D01*
X018777Y012615D01*
X018709Y012565D01*
X018650Y012506D01*
X018601Y012439D01*
X018563Y012365D01*
X018545Y012309D01*
X018487Y012450D01*
X018343Y012594D01*
X018156Y012671D01*
X017953Y012671D01*
X017765Y012594D01*
X017622Y012450D01*
X017554Y012287D01*
X017487Y012450D01*
X017343Y012594D01*
X017156Y012671D01*
X016953Y012671D01*
X016765Y012594D01*
X016622Y012450D01*
X016544Y012263D01*
X016544Y012060D01*
X016622Y011872D01*
X016765Y011729D01*
X016953Y011651D01*
X017156Y011651D01*
X017343Y011729D01*
X017487Y011872D01*
X017554Y012036D01*
X017622Y011872D01*
X017765Y011729D01*
X017953Y011651D01*
X018156Y011651D01*
X018343Y011729D01*
X018487Y011872D01*
X018545Y012013D01*
X018563Y011958D01*
X018601Y011883D01*
X018650Y011816D01*
X018709Y011757D01*
X018777Y011708D01*
X018851Y011670D01*
X018930Y011644D01*
X019013Y011631D01*
X019014Y011631D01*
X019014Y012121D01*
X019094Y012121D01*
X019094Y011631D01*
X019096Y011631D01*
X019178Y011644D01*
X019258Y011670D01*
X019332Y011708D01*
X019400Y011757D01*
X019459Y011816D01*
X019508Y011883D01*
X019545Y011958D01*
X019571Y012037D01*
X019514Y011897D02*
X021116Y011897D01*
X020998Y011779D02*
X019421Y011779D01*
X019227Y011660D02*
X020879Y011660D01*
X020864Y011541D02*
X006044Y011541D01*
X006044Y011423D02*
X020864Y011423D01*
X020864Y011304D02*
X006044Y011304D01*
X006044Y011186D02*
X020864Y011186D01*
X020974Y011067D02*
X006053Y011067D01*
X006074Y010949D02*
X021093Y010949D01*
X021861Y011779D02*
X024969Y011779D01*
X025088Y011897D02*
X021742Y011897D01*
X021980Y011660D02*
X024851Y011660D01*
X025389Y011660D02*
X025469Y011660D01*
X025469Y011779D02*
X025389Y011779D01*
X025389Y011897D02*
X025469Y011897D01*
X025469Y011541D02*
X025389Y011541D01*
X025389Y011304D02*
X025469Y011304D01*
X025469Y011186D02*
X025389Y011186D01*
X025389Y011067D02*
X025469Y011067D01*
X025469Y010949D02*
X025389Y010949D01*
X025389Y010830D02*
X025469Y010830D01*
X025676Y010830D02*
X031966Y010830D01*
X031966Y010949D02*
X025794Y010949D01*
X025913Y011067D02*
X031966Y011067D01*
X031966Y011186D02*
X026014Y011186D01*
X026014Y011304D02*
X031966Y011304D01*
X031965Y012134D02*
X019095Y012134D01*
X019094Y012016D02*
X019014Y012016D01*
X019014Y011897D02*
X019094Y011897D01*
X019094Y011779D02*
X019014Y011779D01*
X019014Y011660D02*
X019094Y011660D01*
X018882Y011660D02*
X018177Y011660D01*
X017932Y011660D02*
X017177Y011660D01*
X016932Y011660D02*
X015227Y011660D01*
X015258Y011670D02*
X015332Y011708D01*
X015400Y011757D01*
X015459Y011816D01*
X015508Y011883D01*
X015545Y011958D01*
X015571Y012037D01*
X015584Y012120D01*
X015584Y012121D01*
X015095Y012121D01*
X015095Y012201D01*
X015584Y012201D01*
X015584Y012203D01*
X015571Y012285D01*
X015545Y012365D01*
X015508Y012439D01*
X015459Y012506D01*
X015400Y012565D01*
X015332Y012615D01*
X015258Y012652D01*
X015178Y012678D01*
X015096Y012691D01*
X015094Y012691D01*
X015094Y012201D01*
X015014Y012201D01*
X015014Y012691D01*
X015013Y012691D01*
X014930Y012678D01*
X014851Y012652D01*
X014777Y012615D01*
X014709Y012565D01*
X014650Y012506D01*
X014601Y012439D01*
X014563Y012365D01*
X014545Y012309D01*
X014487Y012450D01*
X014343Y012594D01*
X014156Y012671D01*
X013953Y012671D01*
X013765Y012594D01*
X013622Y012450D01*
X013544Y012263D01*
X013544Y012060D01*
X013622Y011872D01*
X013765Y011729D01*
X013953Y011651D01*
X014156Y011651D01*
X014343Y011729D01*
X014487Y011872D01*
X014545Y012013D01*
X014563Y011958D01*
X014601Y011883D01*
X014650Y011816D01*
X014709Y011757D01*
X014777Y011708D01*
X014851Y011670D01*
X014930Y011644D01*
X015013Y011631D01*
X015014Y011631D01*
X015014Y012121D01*
X015094Y012121D01*
X015094Y011631D01*
X015096Y011631D01*
X015178Y011644D01*
X015258Y011670D01*
X015094Y011660D02*
X015014Y011660D01*
X015014Y011779D02*
X015094Y011779D01*
X015094Y011897D02*
X015014Y011897D01*
X015014Y012016D02*
X015094Y012016D01*
X015095Y012134D02*
X016544Y012134D01*
X016544Y012253D02*
X015576Y012253D01*
X015542Y012371D02*
X016589Y012371D01*
X016662Y012490D02*
X015471Y012490D01*
X015341Y012608D02*
X016801Y012608D01*
X017308Y012608D02*
X017801Y012608D01*
X017662Y012490D02*
X017447Y012490D01*
X017519Y012371D02*
X017589Y012371D01*
X017563Y012016D02*
X017546Y012016D01*
X017497Y011897D02*
X017612Y011897D01*
X017716Y011779D02*
X017393Y011779D01*
X016716Y011779D02*
X015421Y011779D01*
X015514Y011897D02*
X016612Y011897D01*
X016563Y012016D02*
X015564Y012016D01*
X015094Y012253D02*
X015014Y012253D01*
X015014Y012371D02*
X015094Y012371D01*
X015094Y012490D02*
X015014Y012490D01*
X015014Y012608D02*
X015094Y012608D01*
X014768Y012608D02*
X014308Y012608D01*
X014447Y012490D02*
X014638Y012490D01*
X014566Y012371D02*
X014519Y012371D01*
X013801Y012608D02*
X012341Y012608D01*
X012332Y012615D02*
X012258Y012652D01*
X012178Y012678D01*
X012096Y012691D01*
X012094Y012691D01*
X012094Y012201D01*
X012014Y012201D01*
X012014Y012691D01*
X012013Y012691D01*
X011930Y012678D01*
X011851Y012652D01*
X011777Y012615D01*
X011709Y012565D01*
X011650Y012506D01*
X011601Y012439D01*
X011563Y012365D01*
X011545Y012309D01*
X011487Y012450D01*
X011343Y012594D01*
X011156Y012671D01*
X010953Y012671D01*
X010765Y012594D01*
X010622Y012450D01*
X010544Y012263D01*
X010544Y012060D01*
X010622Y011872D01*
X010765Y011729D01*
X010953Y011651D01*
X011156Y011651D01*
X011343Y011729D01*
X011487Y011872D01*
X011545Y012013D01*
X011563Y011958D01*
X011601Y011883D01*
X011650Y011816D01*
X011709Y011757D01*
X011777Y011708D01*
X011851Y011670D01*
X011930Y011644D01*
X012013Y011631D01*
X012014Y011631D01*
X012014Y012121D01*
X012094Y012121D01*
X012094Y011631D01*
X012096Y011631D01*
X012178Y011644D01*
X012258Y011670D01*
X012332Y011708D01*
X012400Y011757D01*
X012459Y011816D01*
X012508Y011883D01*
X012545Y011958D01*
X012571Y012037D01*
X012584Y012120D01*
X012584Y012121D01*
X012095Y012121D01*
X012095Y012201D01*
X012584Y012201D01*
X012584Y012203D01*
X012571Y012285D01*
X012545Y012365D01*
X012508Y012439D01*
X012459Y012506D01*
X012400Y012565D01*
X012332Y012615D01*
X012471Y012490D02*
X013662Y012490D01*
X013589Y012371D02*
X012542Y012371D01*
X012576Y012253D02*
X013544Y012253D01*
X013544Y012134D02*
X012095Y012134D01*
X012094Y012016D02*
X012014Y012016D01*
X012014Y011897D02*
X012094Y011897D01*
X012094Y011779D02*
X012014Y011779D01*
X012014Y011660D02*
X012094Y011660D01*
X012227Y011660D02*
X013932Y011660D01*
X014177Y011660D02*
X014882Y011660D01*
X014688Y011779D02*
X014393Y011779D01*
X014497Y011897D02*
X014594Y011897D01*
X013716Y011779D02*
X012421Y011779D01*
X012514Y011897D02*
X013612Y011897D01*
X013563Y012016D02*
X012564Y012016D01*
X012094Y012253D02*
X012014Y012253D01*
X012014Y012371D02*
X012094Y012371D01*
X012094Y012490D02*
X012014Y012490D01*
X012014Y012608D02*
X012094Y012608D01*
X011768Y012608D02*
X011308Y012608D01*
X011447Y012490D02*
X011638Y012490D01*
X011566Y012371D02*
X011519Y012371D01*
X010801Y012608D02*
X009341Y012608D01*
X009332Y012615D02*
X009258Y012652D01*
X009178Y012678D01*
X009096Y012691D01*
X009094Y012691D01*
X009094Y012201D01*
X009014Y012201D01*
X009014Y012691D01*
X009013Y012691D01*
X008930Y012678D01*
X008851Y012652D01*
X008777Y012615D01*
X008709Y012565D01*
X008650Y012506D01*
X008601Y012439D01*
X008563Y012365D01*
X008545Y012309D01*
X008487Y012450D01*
X008343Y012594D01*
X008156Y012671D01*
X007953Y012671D01*
X007765Y012594D01*
X007622Y012450D01*
X007544Y012263D01*
X007544Y012060D01*
X007622Y011872D01*
X007765Y011729D01*
X007953Y011651D01*
X008156Y011651D01*
X008343Y011729D01*
X008487Y011872D01*
X008545Y012013D01*
X008563Y011958D01*
X008601Y011883D01*
X008650Y011816D01*
X008709Y011757D01*
X008777Y011708D01*
X008851Y011670D01*
X008930Y011644D01*
X009013Y011631D01*
X009014Y011631D01*
X009014Y012121D01*
X009094Y012121D01*
X009094Y011631D01*
X009096Y011631D01*
X009178Y011644D01*
X009258Y011670D01*
X009332Y011708D01*
X009400Y011757D01*
X009459Y011816D01*
X009508Y011883D01*
X009545Y011958D01*
X009571Y012037D01*
X009584Y012120D01*
X009584Y012121D01*
X009095Y012121D01*
X009095Y012201D01*
X009584Y012201D01*
X009584Y012203D01*
X009571Y012285D01*
X009545Y012365D01*
X009508Y012439D01*
X009459Y012506D01*
X009400Y012565D01*
X009332Y012615D01*
X009471Y012490D02*
X010662Y012490D01*
X010589Y012371D02*
X009542Y012371D01*
X009576Y012253D02*
X010544Y012253D01*
X010544Y012134D02*
X009095Y012134D01*
X009094Y012016D02*
X009014Y012016D01*
X009014Y011897D02*
X009094Y011897D01*
X009094Y011779D02*
X009014Y011779D01*
X009014Y011660D02*
X009094Y011660D01*
X009227Y011660D02*
X010932Y011660D01*
X011177Y011660D02*
X011882Y011660D01*
X011688Y011779D02*
X011393Y011779D01*
X011497Y011897D02*
X011594Y011897D01*
X010716Y011779D02*
X009421Y011779D01*
X009514Y011897D02*
X010612Y011897D01*
X010563Y012016D02*
X009564Y012016D01*
X009094Y012253D02*
X009014Y012253D01*
X009014Y012371D02*
X009094Y012371D01*
X009094Y012490D02*
X009014Y012490D01*
X009014Y012608D02*
X009094Y012608D01*
X008768Y012608D02*
X008308Y012608D01*
X008447Y012490D02*
X008638Y012490D01*
X008566Y012371D02*
X008519Y012371D01*
X008497Y011897D02*
X008594Y011897D01*
X008688Y011779D02*
X008393Y011779D01*
X008177Y011660D02*
X008882Y011660D01*
X007932Y011660D02*
X006044Y011660D01*
X006062Y011779D02*
X007716Y011779D01*
X007612Y011897D02*
X006074Y011897D01*
X006074Y012016D02*
X007563Y012016D01*
X007544Y012134D02*
X006025Y012134D01*
X005948Y012253D02*
X007544Y012253D01*
X007589Y012371D02*
X005803Y012371D01*
X005306Y012371D02*
X002803Y012371D01*
X002849Y012352D02*
X002658Y012431D01*
X002451Y012431D01*
X002260Y012352D01*
X002114Y012206D01*
X002034Y012015D01*
X002034Y011808D01*
X002064Y011735D01*
X002064Y011087D01*
X002034Y011015D01*
X002034Y010808D01*
X002114Y010617D01*
X002260Y010470D01*
X002451Y010391D01*
X002658Y010391D01*
X002849Y010470D01*
X002995Y010617D01*
X003074Y010808D01*
X003074Y011015D01*
X003044Y011087D01*
X003044Y011735D01*
X003074Y011808D01*
X003074Y012015D01*
X002995Y012206D01*
X002849Y012352D01*
X002948Y012253D02*
X005160Y012253D01*
X005084Y012134D02*
X003025Y012134D01*
X003074Y012016D02*
X005035Y012016D01*
X005034Y011897D02*
X003074Y011897D01*
X003062Y011779D02*
X005046Y011779D01*
X005064Y011660D02*
X003044Y011660D01*
X003044Y011541D02*
X005064Y011541D01*
X005064Y011423D02*
X003044Y011423D01*
X003044Y011304D02*
X005064Y011304D01*
X005064Y011186D02*
X003044Y011186D01*
X003053Y011067D02*
X005056Y011067D01*
X005034Y010949D02*
X003074Y010949D01*
X003074Y010830D02*
X005034Y010830D01*
X005074Y010712D02*
X003034Y010712D01*
X002971Y010593D02*
X005137Y010593D01*
X005256Y010475D02*
X002853Y010475D01*
X002256Y010475D02*
X001014Y010475D01*
X001014Y010593D02*
X002137Y010593D01*
X002074Y010712D02*
X001014Y010712D01*
X001014Y010830D02*
X002034Y010830D01*
X002034Y010949D02*
X001014Y010949D01*
X001014Y011067D02*
X002056Y011067D01*
X002064Y011186D02*
X001014Y011186D01*
X001014Y011304D02*
X002064Y011304D01*
X002064Y011423D02*
X001014Y011423D01*
X001014Y011541D02*
X002064Y011541D01*
X002064Y011660D02*
X001014Y011660D01*
X001014Y011779D02*
X002046Y011779D01*
X002034Y011897D02*
X001014Y011897D01*
X001014Y012016D02*
X002035Y012016D01*
X002084Y012134D02*
X001014Y012134D01*
X001014Y012253D02*
X002160Y012253D01*
X002306Y012371D02*
X001014Y012371D01*
X001014Y012490D02*
X007662Y012490D01*
X007801Y012608D02*
X001014Y012608D01*
X001014Y012727D02*
X003676Y012727D01*
X003669Y012733D02*
X003751Y012651D01*
X004607Y012651D01*
X004689Y012733D01*
X004689Y013589D01*
X004607Y013671D01*
X004385Y013671D01*
X004457Y013708D01*
X004525Y013757D01*
X004584Y013816D01*
X004633Y013883D01*
X004670Y013958D01*
X004696Y014037D01*
X004709Y014120D01*
X004709Y014121D01*
X004220Y014121D01*
X004220Y014201D01*
X004709Y014201D01*
X004709Y014203D01*
X004696Y014285D01*
X004670Y014365D01*
X004633Y014439D01*
X004584Y014506D01*
X004525Y014565D01*
X004457Y014615D01*
X004383Y014652D01*
X004303Y014678D01*
X004221Y014691D01*
X004219Y014691D01*
X004219Y014201D01*
X004139Y014201D01*
X004139Y014121D01*
X003649Y014121D01*
X003649Y014120D01*
X003662Y014037D01*
X003688Y013958D01*
X003726Y013883D01*
X003775Y013816D01*
X003834Y013757D01*
X003902Y013708D01*
X003974Y013671D01*
X003751Y013671D01*
X003669Y013589D01*
X003669Y012733D01*
X003669Y012845D02*
X002222Y012845D01*
X002421Y012964D02*
X003669Y012964D01*
X003669Y013082D02*
X002539Y013082D01*
X002633Y013201D02*
X003669Y013201D01*
X003669Y013320D02*
X002702Y013320D01*
X002750Y013438D02*
X003669Y013438D01*
X003669Y013557D02*
X002782Y013557D01*
X002802Y013675D02*
X003966Y013675D01*
X003797Y013794D02*
X002802Y013794D01*
X002798Y013912D02*
X003711Y013912D01*
X003664Y014031D02*
X002766Y014031D01*
X002734Y014149D02*
X004139Y014149D01*
X004139Y014201D02*
X003649Y014201D01*
X003649Y014203D01*
X003662Y014285D01*
X003688Y014365D01*
X003726Y014439D01*
X003775Y014506D01*
X003834Y014565D01*
X003902Y014615D01*
X003976Y014652D01*
X004055Y014678D01*
X004138Y014691D01*
X004139Y014691D01*
X004139Y014201D01*
X004139Y014268D02*
X004219Y014268D01*
X004219Y014386D02*
X004139Y014386D01*
X004139Y014505D02*
X004219Y014505D01*
X004219Y014624D02*
X004139Y014624D01*
X003919Y014624D02*
X002323Y014624D01*
X002479Y014505D02*
X003774Y014505D01*
X003699Y014386D02*
X002598Y014386D01*
X002667Y014268D02*
X003660Y014268D01*
X004220Y014149D02*
X005889Y014149D01*
X005889Y014121D02*
X005399Y014121D01*
X005399Y014120D01*
X005412Y014037D01*
X005438Y013958D01*
X005476Y013883D01*
X005525Y013816D01*
X005584Y013757D01*
X005652Y013708D01*
X005726Y013670D01*
X005781Y013652D01*
X005640Y013594D01*
X005497Y013450D01*
X005419Y013263D01*
X005419Y013060D01*
X005497Y012872D01*
X005640Y012729D01*
X005828Y012651D01*
X006031Y012651D01*
X006218Y012729D01*
X006362Y012872D01*
X006439Y013060D01*
X006439Y013263D01*
X006362Y013450D01*
X006218Y013594D01*
X006077Y013652D01*
X006133Y013670D01*
X006207Y013708D01*
X006275Y013757D01*
X006334Y013816D01*
X006383Y013883D01*
X006420Y013958D01*
X006446Y014037D01*
X006459Y014120D01*
X006459Y014121D01*
X005970Y014121D01*
X005970Y014201D01*
X006459Y014201D01*
X006459Y014203D01*
X006446Y014285D01*
X006420Y014365D01*
X006383Y014439D01*
X006334Y014506D01*
X006275Y014565D01*
X006207Y014615D01*
X006133Y014652D01*
X006053Y014678D01*
X005971Y014691D01*
X005969Y014691D01*
X005969Y014201D01*
X005889Y014201D01*
X005889Y014121D01*
X005889Y014201D02*
X005399Y014201D01*
X005399Y014203D01*
X005412Y014285D01*
X005438Y014365D01*
X005476Y014439D01*
X005525Y014506D01*
X005584Y014565D01*
X005652Y014615D01*
X005726Y014652D01*
X005805Y014678D01*
X005888Y014691D01*
X005889Y014691D01*
X005889Y014201D01*
X005889Y014268D02*
X005969Y014268D01*
X005969Y014386D02*
X005889Y014386D01*
X005889Y014505D02*
X005969Y014505D01*
X005969Y014624D02*
X005889Y014624D01*
X005669Y014624D02*
X004439Y014624D01*
X004585Y014505D02*
X005524Y014505D01*
X005449Y014386D02*
X004659Y014386D01*
X004699Y014268D02*
X005410Y014268D01*
X005414Y014031D02*
X004694Y014031D01*
X004647Y013912D02*
X005461Y013912D01*
X005547Y013794D02*
X004561Y013794D01*
X004393Y013675D02*
X005716Y013675D01*
X005604Y013557D02*
X004689Y013557D01*
X004689Y013438D02*
X005492Y013438D01*
X005443Y013320D02*
X004689Y013320D01*
X004689Y013201D02*
X005419Y013201D01*
X005419Y013082D02*
X004689Y013082D01*
X004689Y012964D02*
X005459Y012964D01*
X005524Y012845D02*
X004689Y012845D01*
X004683Y012727D02*
X005645Y012727D01*
X006213Y012727D02*
X021065Y012727D01*
X021183Y012608D02*
X019341Y012608D01*
X019471Y012490D02*
X031965Y012490D01*
X031965Y012608D02*
X025704Y012608D01*
X025672Y012576D02*
X026014Y012919D01*
X026014Y013121D01*
X025470Y013121D01*
X025470Y013201D01*
X030475Y013201D01*
X030407Y013320D02*
X026014Y013320D01*
X026014Y013404D02*
X026014Y013201D01*
X025470Y013201D01*
X025469Y013201D02*
X025389Y013201D01*
X021994Y013201D01*
X021994Y013082D02*
X024844Y013082D01*
X024844Y013121D02*
X024844Y012919D01*
X025187Y012576D01*
X025389Y012576D01*
X025389Y013121D01*
X024844Y013121D01*
X024844Y013201D02*
X025389Y013201D01*
X025389Y013121D01*
X025469Y013121D01*
X025469Y012576D01*
X025672Y012576D01*
X025469Y012608D02*
X025389Y012608D01*
X025389Y012727D02*
X025469Y012727D01*
X025469Y012845D02*
X025389Y012845D01*
X025389Y012964D02*
X025469Y012964D01*
X025469Y013082D02*
X025389Y013082D01*
X025389Y013201D02*
X025389Y013746D01*
X025187Y013746D01*
X024844Y013404D01*
X024844Y013201D01*
X024844Y013320D02*
X021994Y013320D01*
X021994Y013395D02*
X021663Y013726D01*
X021195Y013726D01*
X020864Y013395D01*
X020864Y012927D01*
X021195Y012596D01*
X021663Y012596D01*
X021994Y012927D01*
X021994Y013395D01*
X021951Y013438D02*
X024879Y013438D01*
X024997Y013557D02*
X021833Y013557D01*
X021714Y013675D02*
X025116Y013675D01*
X025389Y013675D02*
X025469Y013675D01*
X025469Y013746D02*
X025672Y013746D01*
X026014Y013404D01*
X025980Y013438D02*
X030358Y013438D01*
X030327Y013557D02*
X025861Y013557D01*
X025743Y013675D02*
X030307Y013675D01*
X030307Y013794D02*
X006311Y013794D01*
X006397Y013912D02*
X030311Y013912D01*
X030343Y014031D02*
X006444Y014031D01*
X005970Y014149D02*
X030375Y014149D01*
X030442Y014268D02*
X006449Y014268D01*
X006409Y014386D02*
X030511Y014386D01*
X030629Y014505D02*
X006335Y014505D01*
X006189Y014624D02*
X030785Y014624D01*
X030569Y013082D02*
X026014Y013082D01*
X026014Y012964D02*
X030688Y012964D01*
X030886Y012845D02*
X025941Y012845D01*
X025822Y012727D02*
X031965Y012727D01*
X031965Y012845D02*
X031750Y012845D01*
X031948Y012964D02*
X031965Y012964D01*
X031965Y012371D02*
X019542Y012371D01*
X019576Y012253D02*
X031965Y012253D01*
X025469Y013201D02*
X025469Y013746D01*
X025469Y013557D02*
X025389Y013557D01*
X025389Y013438D02*
X025469Y013438D01*
X025469Y013320D02*
X025389Y013320D01*
X024844Y012964D02*
X021994Y012964D01*
X021912Y012845D02*
X024918Y012845D01*
X025036Y012727D02*
X021794Y012727D01*
X021675Y012608D02*
X025155Y012608D01*
X021144Y013675D02*
X006143Y013675D01*
X006255Y013557D02*
X021026Y013557D01*
X020907Y013438D02*
X006367Y013438D01*
X006416Y013320D02*
X020864Y013320D01*
X020864Y013201D02*
X006439Y013201D01*
X006439Y013082D02*
X020864Y013082D01*
X020864Y012964D02*
X006400Y012964D01*
X006335Y012845D02*
X020946Y012845D01*
X019094Y012608D02*
X019014Y012608D01*
X019014Y012490D02*
X019094Y012490D01*
X019094Y012371D02*
X019014Y012371D01*
X019014Y012253D02*
X019094Y012253D01*
X018638Y012490D02*
X018447Y012490D01*
X018519Y012371D02*
X018566Y012371D01*
X018768Y012608D02*
X018308Y012608D01*
X018497Y011897D02*
X018594Y011897D01*
X018688Y011779D02*
X018393Y011779D01*
X018281Y009171D02*
X018202Y009171D01*
X005320Y005377D02*
X004749Y005377D01*
X004637Y005259D02*
X005166Y005259D01*
X005086Y005140D02*
X001014Y005140D01*
X001014Y005022D02*
X005037Y005022D01*
X003972Y005259D02*
X001014Y005259D01*
X001014Y005377D02*
X003859Y005377D01*
X003810Y005496D02*
X001014Y005496D01*
X001014Y005614D02*
X003784Y005614D01*
X003784Y005733D02*
X001014Y005733D01*
X001014Y005851D02*
X003820Y005851D01*
X003878Y005970D02*
X001014Y005970D01*
X001014Y006088D02*
X003996Y006088D01*
X005516Y002769D02*
X005593Y002769D01*
X005593Y002651D02*
X005516Y002651D01*
X005516Y002532D02*
X005593Y002532D01*
X005593Y002414D02*
X005516Y002414D01*
X007084Y002058D02*
X007777Y002058D01*
X007587Y001939D02*
X007297Y001939D01*
X007399Y001821D02*
X007495Y001821D01*
X007469Y001347D02*
X007420Y001347D01*
X007346Y001228D02*
X007541Y001228D01*
X007673Y001110D02*
X007204Y001110D01*
X001359Y012845D02*
X001014Y012845D01*
X001014Y012964D02*
X001160Y012964D01*
X001042Y013082D02*
X001014Y013082D01*
D19*
X006679Y004661D02*
X007429Y004661D01*
M02*
