%
M48
M72
T01C0.0315
T02C0.0354
T03C0.0360
T04C0.0394
T05C0.0400
T06C0.0900
T07C0.1102
%
T01
X4304Y2911
T02
X9054Y7161
X9054Y8286
X13054Y8286
X13054Y7161
X18054Y2661
X22054Y2661
T03
X22954Y7516
X23934Y7516
X23934Y8776
X22954Y8776
T04
X5554Y10911
X5554Y11911
X2554Y11911
X2554Y10911
X4304Y5661
X5554Y4911
X5554Y3911
X5554Y2911
X2554Y2911
X2554Y3911
T05
X7054Y4161
X8054Y3661
X9054Y3661
X10054Y3661
X11054Y3661
X12054Y3661
X13054Y3661
X14054Y3661
X15054Y3661
X16054Y3661
X17054Y3661
X18054Y3661
X19054Y3661
X18956Y1559
X17956Y1559
X16956Y1559
X15956Y1559
X14956Y1559
X13956Y1559
X12956Y1559
X11956Y1559
X10956Y1559
X9956Y1559
X8956Y1559
X7956Y1559
X6956Y1559
X5956Y1559
X4956Y1559
X3956Y1559
X7054Y5161
X7054Y6161
X7054Y7161
X7054Y8161
X7054Y9161
X8054Y9661
X9054Y9661
X10054Y9661
X11054Y9661
X12054Y9661
X13054Y9661
X14054Y9661
X15054Y9661
X16054Y9661
X17054Y9661
X18054Y9661
X19054Y9661
X21429Y11411
X19054Y12161
X18054Y12161
X17054Y12161
X15054Y12161
X14054Y12161
X12054Y12161
X11054Y12161
X9054Y12161
X8054Y12161
X5929Y13161
X4179Y13161
X4179Y14161
X5929Y14161
X1554Y8161
X1554Y7161
X21429Y13161
X25429Y13161
X25429Y11411
T06
X25794Y7716
X21054Y7716
T07
X1791Y1559
X1791Y13764
X31318Y13764
X31318Y1559
M30
