G75*
G70*
%OFA0B0*%
%FSLAX24Y24*%
%IPPOS*%
%LPD*%
%AMOC8*
5,1,8,0,0,1.08239X$1,22.5*
%
%ADD10C,0.0000*%
%ADD11C,0.0740*%
%ADD12C,0.0660*%
%ADD13C,0.1300*%
%ADD14R,0.0550X0.0137*%
%ADD15R,0.0740X0.0740*%
%ADD16OC8,0.0850*%
%ADD17R,0.0531X0.0236*%
%ADD18R,0.0787X0.0472*%
%ADD19R,0.0760X0.0760*%
%ADD20C,0.0760*%
%ADD21C,0.0120*%
%ADD22C,0.0700*%
%ADD23C,0.0400*%
%ADD24C,0.0320*%
D10*
X000554Y000161D02*
X000554Y015161D01*
X032424Y015161D01*
X032429Y000161D01*
X000554Y000161D01*
X001240Y001559D02*
X001242Y001606D01*
X001248Y001652D01*
X001258Y001698D01*
X001271Y001743D01*
X001289Y001786D01*
X001310Y001828D01*
X001334Y001868D01*
X001362Y001905D01*
X001393Y001940D01*
X001427Y001973D01*
X001463Y002002D01*
X001502Y002028D01*
X001543Y002051D01*
X001586Y002070D01*
X001630Y002086D01*
X001675Y002098D01*
X001721Y002106D01*
X001768Y002110D01*
X001814Y002110D01*
X001861Y002106D01*
X001907Y002098D01*
X001952Y002086D01*
X001996Y002070D01*
X002039Y002051D01*
X002080Y002028D01*
X002119Y002002D01*
X002155Y001973D01*
X002189Y001940D01*
X002220Y001905D01*
X002248Y001868D01*
X002272Y001828D01*
X002293Y001786D01*
X002311Y001743D01*
X002324Y001698D01*
X002334Y001652D01*
X002340Y001606D01*
X002342Y001559D01*
X002340Y001512D01*
X002334Y001466D01*
X002324Y001420D01*
X002311Y001375D01*
X002293Y001332D01*
X002272Y001290D01*
X002248Y001250D01*
X002220Y001213D01*
X002189Y001178D01*
X002155Y001145D01*
X002119Y001116D01*
X002080Y001090D01*
X002039Y001067D01*
X001996Y001048D01*
X001952Y001032D01*
X001907Y001020D01*
X001861Y001012D01*
X001814Y001008D01*
X001768Y001008D01*
X001721Y001012D01*
X001675Y001020D01*
X001630Y001032D01*
X001586Y001048D01*
X001543Y001067D01*
X001502Y001090D01*
X001463Y001116D01*
X001427Y001145D01*
X001393Y001178D01*
X001362Y001213D01*
X001334Y001250D01*
X001310Y001290D01*
X001289Y001332D01*
X001271Y001375D01*
X001258Y001420D01*
X001248Y001466D01*
X001242Y001512D01*
X001240Y001559D01*
X001240Y013764D02*
X001242Y013811D01*
X001248Y013857D01*
X001258Y013903D01*
X001271Y013948D01*
X001289Y013991D01*
X001310Y014033D01*
X001334Y014073D01*
X001362Y014110D01*
X001393Y014145D01*
X001427Y014178D01*
X001463Y014207D01*
X001502Y014233D01*
X001543Y014256D01*
X001586Y014275D01*
X001630Y014291D01*
X001675Y014303D01*
X001721Y014311D01*
X001768Y014315D01*
X001814Y014315D01*
X001861Y014311D01*
X001907Y014303D01*
X001952Y014291D01*
X001996Y014275D01*
X002039Y014256D01*
X002080Y014233D01*
X002119Y014207D01*
X002155Y014178D01*
X002189Y014145D01*
X002220Y014110D01*
X002248Y014073D01*
X002272Y014033D01*
X002293Y013991D01*
X002311Y013948D01*
X002324Y013903D01*
X002334Y013857D01*
X002340Y013811D01*
X002342Y013764D01*
X002340Y013717D01*
X002334Y013671D01*
X002324Y013625D01*
X002311Y013580D01*
X002293Y013537D01*
X002272Y013495D01*
X002248Y013455D01*
X002220Y013418D01*
X002189Y013383D01*
X002155Y013350D01*
X002119Y013321D01*
X002080Y013295D01*
X002039Y013272D01*
X001996Y013253D01*
X001952Y013237D01*
X001907Y013225D01*
X001861Y013217D01*
X001814Y013213D01*
X001768Y013213D01*
X001721Y013217D01*
X001675Y013225D01*
X001630Y013237D01*
X001586Y013253D01*
X001543Y013272D01*
X001502Y013295D01*
X001463Y013321D01*
X001427Y013350D01*
X001393Y013383D01*
X001362Y013418D01*
X001334Y013455D01*
X001310Y013495D01*
X001289Y013537D01*
X001271Y013580D01*
X001258Y013625D01*
X001248Y013671D01*
X001242Y013717D01*
X001240Y013764D01*
X030767Y013764D02*
X030769Y013811D01*
X030775Y013857D01*
X030785Y013903D01*
X030798Y013948D01*
X030816Y013991D01*
X030837Y014033D01*
X030861Y014073D01*
X030889Y014110D01*
X030920Y014145D01*
X030954Y014178D01*
X030990Y014207D01*
X031029Y014233D01*
X031070Y014256D01*
X031113Y014275D01*
X031157Y014291D01*
X031202Y014303D01*
X031248Y014311D01*
X031295Y014315D01*
X031341Y014315D01*
X031388Y014311D01*
X031434Y014303D01*
X031479Y014291D01*
X031523Y014275D01*
X031566Y014256D01*
X031607Y014233D01*
X031646Y014207D01*
X031682Y014178D01*
X031716Y014145D01*
X031747Y014110D01*
X031775Y014073D01*
X031799Y014033D01*
X031820Y013991D01*
X031838Y013948D01*
X031851Y013903D01*
X031861Y013857D01*
X031867Y013811D01*
X031869Y013764D01*
X031867Y013717D01*
X031861Y013671D01*
X031851Y013625D01*
X031838Y013580D01*
X031820Y013537D01*
X031799Y013495D01*
X031775Y013455D01*
X031747Y013418D01*
X031716Y013383D01*
X031682Y013350D01*
X031646Y013321D01*
X031607Y013295D01*
X031566Y013272D01*
X031523Y013253D01*
X031479Y013237D01*
X031434Y013225D01*
X031388Y013217D01*
X031341Y013213D01*
X031295Y013213D01*
X031248Y013217D01*
X031202Y013225D01*
X031157Y013237D01*
X031113Y013253D01*
X031070Y013272D01*
X031029Y013295D01*
X030990Y013321D01*
X030954Y013350D01*
X030920Y013383D01*
X030889Y013418D01*
X030861Y013455D01*
X030837Y013495D01*
X030816Y013537D01*
X030798Y013580D01*
X030785Y013625D01*
X030775Y013671D01*
X030769Y013717D01*
X030767Y013764D01*
X030767Y001559D02*
X030769Y001606D01*
X030775Y001652D01*
X030785Y001698D01*
X030798Y001743D01*
X030816Y001786D01*
X030837Y001828D01*
X030861Y001868D01*
X030889Y001905D01*
X030920Y001940D01*
X030954Y001973D01*
X030990Y002002D01*
X031029Y002028D01*
X031070Y002051D01*
X031113Y002070D01*
X031157Y002086D01*
X031202Y002098D01*
X031248Y002106D01*
X031295Y002110D01*
X031341Y002110D01*
X031388Y002106D01*
X031434Y002098D01*
X031479Y002086D01*
X031523Y002070D01*
X031566Y002051D01*
X031607Y002028D01*
X031646Y002002D01*
X031682Y001973D01*
X031716Y001940D01*
X031747Y001905D01*
X031775Y001868D01*
X031799Y001828D01*
X031820Y001786D01*
X031838Y001743D01*
X031851Y001698D01*
X031861Y001652D01*
X031867Y001606D01*
X031869Y001559D01*
X031867Y001512D01*
X031861Y001466D01*
X031851Y001420D01*
X031838Y001375D01*
X031820Y001332D01*
X031799Y001290D01*
X031775Y001250D01*
X031747Y001213D01*
X031716Y001178D01*
X031682Y001145D01*
X031646Y001116D01*
X031607Y001090D01*
X031566Y001067D01*
X031523Y001048D01*
X031479Y001032D01*
X031434Y001020D01*
X031388Y001012D01*
X031341Y001008D01*
X031295Y001008D01*
X031248Y001012D01*
X031202Y001020D01*
X031157Y001032D01*
X031113Y001048D01*
X031070Y001067D01*
X031029Y001090D01*
X030990Y001116D01*
X030954Y001145D01*
X030920Y001178D01*
X030889Y001213D01*
X030861Y001250D01*
X030837Y001290D01*
X030816Y001332D01*
X030798Y001375D01*
X030785Y001420D01*
X030775Y001466D01*
X030769Y001512D01*
X030767Y001559D01*
D11*
X022054Y002661D03*
X019054Y003661D03*
X018054Y003661D03*
X017054Y003661D03*
X016054Y003661D03*
X015054Y003661D03*
X014054Y003661D03*
X013054Y003661D03*
X012054Y003661D03*
X011054Y003661D03*
X010054Y003661D03*
X009054Y003661D03*
X008054Y003661D03*
X007054Y004161D03*
X007054Y005161D03*
X007054Y006161D03*
X007054Y007161D03*
X009054Y007161D03*
X007054Y008161D03*
X007054Y009161D03*
X008054Y009661D03*
X009054Y009661D03*
X010054Y009661D03*
X011054Y009661D03*
X012054Y009661D03*
X013054Y009661D03*
X014054Y009661D03*
X015054Y009661D03*
X016054Y009661D03*
X017054Y009661D03*
X018054Y009661D03*
X019054Y009661D03*
X019054Y012161D03*
X018054Y012161D03*
X017054Y012161D03*
X015054Y012161D03*
X014054Y012161D03*
X012054Y012161D03*
X011054Y012161D03*
X009054Y012161D03*
X008054Y012161D03*
X005929Y013161D03*
X005929Y014161D03*
X004179Y014161D03*
X009054Y008286D03*
X013054Y008286D03*
X013054Y007161D03*
X018054Y002661D03*
X017956Y001559D03*
X018956Y001559D03*
X016956Y001559D03*
X015956Y001559D03*
X014956Y001559D03*
X013956Y001559D03*
X012956Y001559D03*
X011956Y001559D03*
X010956Y001559D03*
X009956Y001559D03*
X008956Y001559D03*
X007956Y001559D03*
X006956Y001559D03*
X005956Y001559D03*
X004956Y001559D03*
X001554Y007161D03*
X001554Y008161D03*
D12*
X022954Y008776D03*
X023934Y008776D03*
X023934Y007516D03*
X022954Y007516D03*
D13*
X021054Y007716D03*
X025794Y007716D03*
D14*
X018494Y007813D03*
X018494Y007557D03*
X018494Y007301D03*
X018494Y007045D03*
X018494Y006789D03*
X018494Y006533D03*
X018494Y006277D03*
X018494Y006021D03*
X018494Y005766D03*
X018494Y005510D03*
X018494Y005254D03*
X018494Y004998D03*
X015615Y004998D03*
X015615Y005254D03*
X015615Y005510D03*
X015615Y005766D03*
X015615Y006021D03*
X015615Y006277D03*
X015615Y006533D03*
X015615Y006789D03*
X015615Y007045D03*
X015615Y007301D03*
X015615Y007557D03*
X015615Y007813D03*
X015615Y008069D03*
X015615Y008325D03*
X018494Y008325D03*
X018494Y008069D03*
D15*
X004179Y013161D03*
X003956Y001559D03*
D16*
X021429Y011411D03*
X021429Y013161D03*
X025429Y013161D03*
X025429Y011411D03*
D17*
X030129Y005630D03*
X030129Y005236D03*
X030129Y004842D03*
X030129Y004449D03*
X030129Y004055D03*
X030129Y003661D03*
D18*
X031586Y003149D03*
X031586Y006142D03*
D19*
X005554Y003911D03*
X005554Y002911D03*
X002554Y002911D03*
X002554Y003911D03*
D20*
X004304Y002911D03*
X005554Y004911D03*
X004304Y005661D03*
X005554Y010911D03*
X005554Y011911D03*
X002554Y011911D03*
X002554Y010911D03*
D21*
X002064Y011087D02*
X002034Y011015D01*
X002034Y010808D01*
X002114Y010617D01*
X002260Y010470D01*
X002451Y010391D01*
X002658Y010391D01*
X002849Y010470D01*
X002995Y010617D01*
X003074Y010808D01*
X003074Y011015D01*
X003044Y011087D01*
X003044Y011670D01*
X004320Y012651D01*
X004607Y012651D01*
X004627Y012671D01*
X005780Y012671D01*
X005828Y012651D01*
X006031Y012651D01*
X006218Y012729D01*
X006362Y012872D01*
X006439Y013060D01*
X006439Y013263D01*
X006362Y013450D01*
X006218Y013594D01*
X006077Y013652D01*
X006133Y013670D01*
X006207Y013708D01*
X006275Y013757D01*
X006334Y013816D01*
X006383Y013883D01*
X006420Y013958D01*
X006446Y014037D01*
X006459Y014120D01*
X006459Y014121D01*
X005970Y014121D01*
X005970Y014201D01*
X006459Y014201D01*
X006459Y014203D01*
X006446Y014285D01*
X006420Y014365D01*
X006383Y014439D01*
X006334Y014506D01*
X006275Y014565D01*
X006207Y014615D01*
X006133Y014652D01*
X006053Y014678D01*
X005971Y014691D01*
X005969Y014691D01*
X005969Y014201D01*
X005889Y014201D01*
X005889Y014121D01*
X005399Y014121D01*
X005399Y014120D01*
X005412Y014037D01*
X005438Y013958D01*
X005476Y013883D01*
X005525Y013816D01*
X005584Y013757D01*
X005652Y013708D01*
X005726Y013670D01*
X005781Y013652D01*
X005780Y013651D01*
X004627Y013651D01*
X004607Y013671D01*
X004385Y013671D01*
X004457Y013708D01*
X004525Y013757D01*
X004584Y013816D01*
X004633Y013883D01*
X004670Y013958D01*
X004696Y014037D01*
X004709Y014120D01*
X004709Y014121D01*
X004220Y014121D01*
X004220Y014201D01*
X004709Y014201D01*
X004709Y014203D01*
X004696Y014285D01*
X004670Y014365D01*
X004633Y014439D01*
X004584Y014506D01*
X004525Y014565D01*
X004457Y014615D01*
X004383Y014652D01*
X004303Y014678D01*
X004221Y014691D01*
X004219Y014691D01*
X004219Y014201D01*
X004139Y014201D01*
X004139Y014121D01*
X003649Y014121D01*
X003649Y014120D01*
X003662Y014037D01*
X003688Y013958D01*
X003726Y013883D01*
X003775Y013816D01*
X003834Y013757D01*
X003902Y013708D01*
X003974Y013671D01*
X003751Y013671D01*
X003669Y013589D01*
X003669Y013387D01*
X002398Y012409D01*
X002260Y012352D01*
X002114Y012206D01*
X002034Y012015D01*
X002034Y011808D01*
X002064Y011735D01*
X002064Y011087D01*
X002056Y011067D02*
X001014Y011067D01*
X001014Y010949D02*
X002034Y010949D01*
X002034Y010830D02*
X001014Y010830D01*
X001014Y010712D02*
X002074Y010712D01*
X002137Y010593D02*
X001014Y010593D01*
X001014Y010475D02*
X002256Y010475D01*
X002853Y010475D02*
X005256Y010475D01*
X005260Y010470D02*
X005451Y010391D01*
X005658Y010391D01*
X005730Y010421D01*
X006711Y010421D01*
X007594Y009441D01*
X007622Y009372D01*
X007765Y009229D01*
X007953Y009151D01*
X008156Y009151D01*
X008343Y009229D01*
X008487Y009372D01*
X008545Y009513D01*
X008563Y009458D01*
X008601Y009383D01*
X008650Y009316D01*
X008709Y009257D01*
X008777Y009208D01*
X008851Y009170D01*
X008930Y009144D01*
X009013Y009131D01*
X009014Y009131D01*
X009014Y009621D01*
X009094Y009621D01*
X009094Y009131D01*
X009096Y009131D01*
X009178Y009144D01*
X009258Y009170D01*
X009332Y009208D01*
X009400Y009257D01*
X009459Y009316D01*
X009508Y009383D01*
X009545Y009458D01*
X009564Y009513D01*
X009622Y009372D01*
X009765Y009229D01*
X009953Y009151D01*
X010156Y009151D01*
X010276Y009201D01*
X009851Y008776D01*
X009204Y008776D01*
X009156Y008796D01*
X008953Y008796D01*
X008765Y008719D01*
X008622Y008575D01*
X008544Y008388D01*
X008544Y008185D01*
X008564Y008137D01*
X008564Y007311D01*
X008544Y007263D01*
X008544Y007079D01*
X008504Y007119D01*
X008504Y007828D01*
X008504Y007994D01*
X007527Y008971D01*
X007564Y009060D01*
X007564Y009263D01*
X007487Y009450D01*
X007343Y009594D01*
X007156Y009671D01*
X006953Y009671D01*
X006765Y009594D01*
X006622Y009450D01*
X006544Y009263D01*
X006544Y009060D01*
X006622Y008872D01*
X006765Y008729D01*
X006929Y008661D01*
X006765Y008594D01*
X006622Y008450D01*
X006544Y008263D01*
X006544Y008060D01*
X006622Y007872D01*
X006765Y007729D01*
X006929Y007661D01*
X006765Y007594D01*
X006622Y007450D01*
X006544Y007263D01*
X006544Y007060D01*
X006622Y006872D01*
X006765Y006729D01*
X006929Y006661D01*
X006765Y006594D01*
X006633Y006461D01*
X005864Y006461D01*
X005745Y006461D01*
X005634Y006416D01*
X004824Y005605D01*
X004824Y005765D01*
X004745Y005956D01*
X004599Y006102D01*
X004408Y006181D01*
X004201Y006181D01*
X004083Y006132D01*
X002037Y007993D01*
X002064Y008060D01*
X002064Y008263D01*
X001987Y008450D01*
X001843Y008594D01*
X001656Y008671D01*
X001453Y008671D01*
X001265Y008594D01*
X001122Y008450D01*
X001044Y008263D01*
X001044Y008060D01*
X001122Y007872D01*
X001265Y007729D01*
X001429Y007661D01*
X001265Y007594D01*
X001122Y007450D01*
X001044Y007263D01*
X001044Y007060D01*
X001122Y006872D01*
X001265Y006729D01*
X001453Y006651D01*
X001656Y006651D01*
X001745Y006688D01*
X004104Y004328D01*
X004104Y003391D01*
X004010Y003352D01*
X003864Y003206D01*
X003784Y003015D01*
X003784Y002808D01*
X003864Y002617D01*
X004010Y002470D01*
X004201Y002391D01*
X004408Y002391D01*
X004599Y002470D01*
X004629Y002501D01*
X004629Y001954D01*
X004524Y001848D01*
X004486Y001757D01*
X004486Y001950D01*
X004475Y001991D01*
X004454Y002027D01*
X004424Y002057D01*
X004388Y002078D01*
X004347Y002089D01*
X003996Y002089D01*
X003996Y001599D01*
X003916Y001599D01*
X003916Y002089D01*
X003565Y002089D01*
X003524Y002078D01*
X003488Y002057D01*
X003458Y002027D01*
X003437Y001991D01*
X003426Y001950D01*
X003426Y001599D01*
X003916Y001599D01*
X003916Y001519D01*
X003996Y001519D01*
X003996Y001029D01*
X004347Y001029D01*
X004388Y001040D01*
X004424Y001061D01*
X004454Y001091D01*
X004475Y001127D01*
X004486Y001168D01*
X004486Y001326D01*
X004514Y001259D01*
X004589Y001183D01*
X004589Y000979D01*
X004589Y000844D01*
X004641Y000719D01*
X004739Y000621D01*
X002189Y000621D01*
X002411Y000750D01*
X002600Y000938D01*
X002733Y001169D01*
X002802Y001426D01*
X002802Y001692D01*
X002733Y001949D01*
X002600Y002180D01*
X002411Y002368D01*
X002406Y002371D01*
X002516Y002371D01*
X002516Y002873D01*
X002014Y002873D01*
X002014Y002546D01*
X001924Y002570D01*
X001657Y002570D01*
X001400Y002501D01*
X001170Y002368D01*
X001014Y002213D01*
X001014Y013110D01*
X001170Y012954D01*
X001400Y012821D01*
X001657Y012752D01*
X001924Y012752D01*
X002181Y012821D01*
X002411Y012954D01*
X002600Y013143D01*
X002733Y013373D01*
X002802Y013630D01*
X002802Y013897D01*
X002733Y014154D01*
X002600Y014384D01*
X002411Y014573D01*
X002189Y014701D01*
X030920Y014701D01*
X030697Y014573D01*
X030509Y014384D01*
X030376Y014154D01*
X030307Y013897D01*
X030307Y013630D01*
X030376Y013373D01*
X030509Y013143D01*
X030697Y012954D01*
X030928Y012821D01*
X031185Y012752D01*
X031451Y012752D01*
X031708Y012821D01*
X031939Y012954D01*
X031965Y012981D01*
X031967Y006518D01*
X031134Y006518D01*
X031052Y006436D01*
X031052Y005847D01*
X031134Y005765D01*
X031968Y005765D01*
X031968Y003526D01*
X031134Y003526D01*
X031052Y003444D01*
X031052Y002855D01*
X031134Y002773D01*
X031969Y002773D01*
X031969Y002338D01*
X031939Y002368D01*
X031708Y002501D01*
X031451Y002570D01*
X031185Y002570D01*
X030928Y002501D01*
X030697Y002368D01*
X030509Y002180D01*
X030376Y001949D01*
X030307Y001692D01*
X030307Y001426D01*
X030376Y001169D01*
X030509Y000938D01*
X030697Y000750D01*
X030920Y000621D01*
X020495Y000621D01*
X022025Y002151D01*
X022156Y002151D01*
X022343Y002229D01*
X022487Y002372D01*
X022564Y002560D01*
X022564Y002763D01*
X022527Y002852D01*
X023531Y003855D01*
X029723Y003855D01*
X029714Y003841D01*
X029704Y003800D01*
X029704Y003661D01*
X029704Y003522D01*
X029714Y003481D01*
X029736Y003445D01*
X029765Y003415D01*
X029802Y003394D01*
X029842Y003383D01*
X030129Y003383D01*
X030129Y003661D01*
X029704Y003661D01*
X030129Y003661D01*
X030129Y003661D01*
X030129Y003661D01*
X030129Y003383D01*
X030416Y003383D01*
X030457Y003394D01*
X030493Y003415D01*
X030523Y003445D01*
X030544Y003481D01*
X030555Y003522D01*
X030555Y003661D01*
X030130Y003661D01*
X030130Y003661D01*
X030555Y003661D01*
X030555Y003800D01*
X030544Y003841D01*
X030527Y003871D01*
X030535Y003879D01*
X030535Y004231D01*
X030514Y004252D01*
X030535Y004273D01*
X030535Y004625D01*
X030514Y004645D01*
X030535Y004666D01*
X030535Y005018D01*
X030527Y005026D01*
X030544Y005056D01*
X030555Y005097D01*
X030555Y005236D01*
X030130Y005236D01*
X030130Y005236D01*
X030555Y005236D01*
X030555Y005375D01*
X030544Y005416D01*
X030527Y005446D01*
X030535Y005454D01*
X030535Y005806D01*
X030453Y005888D01*
X029806Y005888D01*
X029724Y005806D01*
X029724Y005454D01*
X029732Y005446D01*
X029714Y005416D01*
X029704Y005375D01*
X029704Y005236D01*
X029704Y005097D01*
X029714Y005056D01*
X029723Y005042D01*
X021903Y005042D01*
X021785Y004925D01*
X020721Y003861D01*
X019523Y003861D01*
X019487Y003950D01*
X019343Y004094D01*
X019156Y004171D01*
X018953Y004171D01*
X018765Y004094D01*
X018622Y003950D01*
X018554Y003787D01*
X018487Y003950D01*
X018343Y004094D01*
X018156Y004171D01*
X017953Y004171D01*
X017765Y004094D01*
X017622Y003950D01*
X017554Y003787D01*
X017487Y003950D01*
X017343Y004094D01*
X017156Y004171D01*
X016953Y004171D01*
X016765Y004094D01*
X016622Y003950D01*
X016554Y003787D01*
X016487Y003950D01*
X016343Y004094D01*
X016156Y004171D01*
X015953Y004171D01*
X015765Y004094D01*
X015622Y003950D01*
X015554Y003787D01*
X015487Y003950D01*
X015343Y004094D01*
X015156Y004171D01*
X014953Y004171D01*
X014765Y004094D01*
X014622Y003950D01*
X014554Y003787D01*
X014487Y003950D01*
X014343Y004094D01*
X014156Y004171D01*
X013953Y004171D01*
X013765Y004094D01*
X013622Y003950D01*
X013554Y003787D01*
X013487Y003950D01*
X013343Y004094D01*
X013156Y004171D01*
X012953Y004171D01*
X012765Y004094D01*
X012622Y003950D01*
X012554Y003787D01*
X012487Y003950D01*
X012343Y004094D01*
X012156Y004171D01*
X011953Y004171D01*
X011765Y004094D01*
X011622Y003950D01*
X011564Y003809D01*
X011545Y003865D01*
X011508Y003939D01*
X011459Y004006D01*
X011400Y004065D01*
X011332Y004115D01*
X011258Y004152D01*
X011178Y004178D01*
X011096Y004191D01*
X011094Y004191D01*
X011094Y003701D01*
X011014Y003701D01*
X011014Y004191D01*
X011013Y004191D01*
X010930Y004178D01*
X010851Y004152D01*
X010777Y004115D01*
X010709Y004065D01*
X010650Y004006D01*
X010601Y003939D01*
X010563Y003865D01*
X010545Y003809D01*
X010487Y003950D01*
X010343Y004094D01*
X010156Y004171D01*
X009953Y004171D01*
X009765Y004094D01*
X009622Y003950D01*
X009554Y003787D01*
X009487Y003950D01*
X009343Y004094D01*
X009156Y004171D01*
X008953Y004171D01*
X008765Y004094D01*
X008622Y003950D01*
X008554Y003787D01*
X008487Y003950D01*
X008343Y004094D01*
X008254Y004130D01*
X008254Y005328D01*
X008762Y005836D01*
X013762Y005836D01*
X013879Y005953D01*
X015027Y007101D01*
X015200Y007101D01*
X015200Y006935D01*
X015191Y006919D01*
X015180Y006879D01*
X015180Y006789D01*
X015180Y006700D01*
X015191Y006659D01*
X015200Y006643D01*
X015200Y006407D01*
X015201Y006405D01*
X015200Y006404D01*
X015200Y006151D01*
X015201Y006149D01*
X015200Y006148D01*
X015200Y005895D01*
X015201Y005894D01*
X015200Y005892D01*
X015200Y005639D01*
X015201Y005638D01*
X015200Y005636D01*
X015200Y005383D01*
X015201Y005382D01*
X015200Y005380D01*
X015200Y005127D01*
X015201Y005126D01*
X015200Y005124D01*
X015200Y004871D01*
X015282Y004789D01*
X015948Y004789D01*
X016030Y004871D01*
X016030Y005124D01*
X016028Y005126D01*
X016030Y005127D01*
X016030Y005380D01*
X016028Y005382D01*
X016030Y005383D01*
X016030Y005636D01*
X016028Y005638D01*
X016030Y005639D01*
X016030Y005892D01*
X016028Y005894D01*
X016030Y005895D01*
X016030Y006148D01*
X016028Y006149D01*
X016030Y006151D01*
X016030Y006404D01*
X016028Y006405D01*
X016030Y006407D01*
X016030Y006643D01*
X016039Y006659D01*
X016050Y006700D01*
X016050Y006789D01*
X015615Y006789D01*
X015615Y006789D01*
X016050Y006789D01*
X016050Y006879D01*
X016039Y006919D01*
X016030Y006935D01*
X016030Y007172D01*
X016028Y007173D01*
X016030Y007174D01*
X016030Y007336D01*
X016971Y007336D01*
X017137Y007336D01*
X018079Y008278D01*
X018079Y008198D01*
X018080Y008197D01*
X018079Y008195D01*
X018079Y007959D01*
X018070Y007943D01*
X018059Y007902D01*
X018059Y007813D01*
X018493Y007813D01*
X018493Y007813D01*
X018059Y007813D01*
X018059Y007723D01*
X018069Y007685D01*
X018059Y007646D01*
X018059Y007557D01*
X018493Y007557D01*
X018493Y007557D01*
X018059Y007557D01*
X018059Y007467D01*
X018070Y007427D01*
X018079Y007411D01*
X018079Y007174D01*
X018080Y007173D01*
X018079Y007172D01*
X018079Y006919D01*
X018080Y006917D01*
X018079Y006916D01*
X018079Y006679D01*
X018070Y006664D01*
X018059Y006623D01*
X018059Y006533D01*
X018059Y006444D01*
X016030Y006444D01*
X016030Y006326D02*
X018079Y006326D01*
X018079Y006387D02*
X018079Y006151D01*
X018080Y006149D01*
X018079Y006148D01*
X018079Y005912D01*
X018070Y005896D01*
X018059Y005855D01*
X018059Y005766D01*
X018493Y005766D01*
X018493Y005765D01*
X018059Y005765D01*
X018059Y005676D01*
X018070Y005635D01*
X018079Y005620D01*
X018079Y005383D01*
X018080Y005382D01*
X018079Y005380D01*
X018079Y005127D01*
X018080Y005126D01*
X018079Y005124D01*
X018079Y004871D01*
X018161Y004789D01*
X018827Y004789D01*
X018835Y004798D01*
X020353Y004798D01*
X020519Y004798D01*
X022795Y007074D01*
X022861Y007046D01*
X023048Y007046D01*
X023221Y007118D01*
X023353Y007250D01*
X023424Y007423D01*
X023424Y007610D01*
X023353Y007782D01*
X023221Y007915D01*
X023048Y007986D01*
X022861Y007986D01*
X022688Y007915D01*
X022556Y007782D01*
X022504Y007658D01*
X022504Y008043D01*
X022795Y008334D01*
X022861Y008306D01*
X023048Y008306D01*
X023221Y008378D01*
X023353Y008510D01*
X023424Y008683D01*
X023424Y008870D01*
X023386Y008961D01*
X023444Y008961D01*
X023444Y008679D01*
X023519Y008499D01*
X023657Y008361D01*
X023837Y008286D01*
X024032Y008286D01*
X024212Y008361D01*
X024350Y008499D01*
X024424Y008679D01*
X024424Y010504D01*
X024350Y010684D01*
X024212Y010822D01*
X023207Y011827D01*
X023027Y011901D01*
X022832Y011901D01*
X021919Y011901D01*
X021919Y012852D01*
X021994Y012927D01*
X021994Y013395D01*
X021663Y013726D01*
X021195Y013726D01*
X021120Y013651D01*
X020277Y013651D01*
X017957Y013651D01*
X010332Y013651D01*
X010152Y013577D01*
X010014Y013439D01*
X010014Y013439D01*
X009777Y013202D01*
X009777Y013202D01*
X009639Y013064D01*
X009564Y012884D01*
X009564Y012307D01*
X009545Y012365D01*
X009508Y012439D01*
X009459Y012506D01*
X009400Y012565D01*
X009332Y012615D01*
X009258Y012652D01*
X009178Y012678D01*
X009096Y012691D01*
X009094Y012691D01*
X009094Y012201D01*
X009014Y012201D01*
X009014Y012691D01*
X009013Y012691D01*
X008930Y012678D01*
X008851Y012652D01*
X008777Y012615D01*
X008709Y012565D01*
X008650Y012506D01*
X008601Y012439D01*
X008563Y012365D01*
X008545Y012309D01*
X008487Y012450D01*
X008343Y012594D01*
X008156Y012671D01*
X007953Y012671D01*
X007765Y012594D01*
X007622Y012450D01*
X007544Y012263D01*
X007544Y012060D01*
X007564Y012011D01*
X007564Y011259D01*
X007564Y011064D01*
X007639Y010884D01*
X007777Y010746D01*
X007957Y010671D01*
X009851Y010671D01*
X010564Y009958D01*
X010564Y009811D01*
X010554Y009787D01*
X010487Y009950D01*
X010343Y010094D01*
X010156Y010171D01*
X009953Y010171D01*
X009765Y010094D01*
X009622Y009950D01*
X009564Y009809D01*
X009545Y009865D01*
X009508Y009939D01*
X009459Y010006D01*
X009400Y010065D01*
X009332Y010115D01*
X009258Y010152D01*
X009178Y010178D01*
X009096Y010191D01*
X009094Y010191D01*
X009094Y009701D01*
X009014Y009701D01*
X009014Y010191D01*
X009013Y010191D01*
X008930Y010178D01*
X008851Y010152D01*
X008777Y010115D01*
X008709Y010065D01*
X008650Y010006D01*
X008601Y009939D01*
X008563Y009865D01*
X008545Y009809D01*
X008487Y009950D01*
X008343Y010094D01*
X008313Y010106D01*
X007350Y011176D01*
X007345Y011189D01*
X007285Y011249D01*
X007228Y011311D01*
X007216Y011317D01*
X007207Y011327D01*
X007129Y011359D01*
X007052Y011395D01*
X007039Y011396D01*
X007027Y011401D01*
X006942Y011401D01*
X006858Y011406D01*
X006845Y011401D01*
X006044Y011401D01*
X006044Y011735D01*
X006074Y011808D01*
X006074Y012015D01*
X005995Y012206D01*
X005849Y012352D01*
X005658Y012431D01*
X005451Y012431D01*
X005260Y012352D01*
X005114Y012206D01*
X005034Y012015D01*
X005034Y011808D01*
X005064Y011735D01*
X005064Y011087D01*
X005034Y011015D01*
X005034Y010808D01*
X005114Y010617D01*
X005260Y010470D01*
X005137Y010593D02*
X002971Y010593D01*
X003034Y010712D02*
X005074Y010712D01*
X005034Y010830D02*
X003074Y010830D01*
X003074Y010949D02*
X005034Y010949D01*
X005056Y011067D02*
X003053Y011067D01*
X003044Y011186D02*
X005064Y011186D01*
X005064Y011304D02*
X003044Y011304D01*
X003044Y011423D02*
X005064Y011423D01*
X005064Y011541D02*
X003044Y011541D01*
X003044Y011660D02*
X005064Y011660D01*
X005046Y011779D02*
X003185Y011779D01*
X003339Y011897D02*
X005034Y011897D01*
X005035Y012016D02*
X003494Y012016D01*
X003648Y012134D02*
X005084Y012134D01*
X005160Y012253D02*
X003802Y012253D01*
X003956Y012371D02*
X005306Y012371D01*
X005803Y012371D02*
X007589Y012371D01*
X007544Y012253D02*
X005948Y012253D01*
X006025Y012134D02*
X007544Y012134D01*
X007563Y012016D02*
X006074Y012016D01*
X006074Y011897D02*
X007564Y011897D01*
X007564Y011779D02*
X006062Y011779D01*
X006044Y011660D02*
X007564Y011660D01*
X007564Y011541D02*
X006044Y011541D01*
X006044Y011423D02*
X007564Y011423D01*
X007564Y011304D02*
X007235Y011304D01*
X007346Y011186D02*
X007564Y011186D01*
X007564Y011067D02*
X007448Y011067D01*
X007555Y010949D02*
X007612Y010949D01*
X007661Y010830D02*
X007692Y010830D01*
X007768Y010712D02*
X007859Y010712D01*
X007875Y010593D02*
X009930Y010593D01*
X010048Y010475D02*
X007982Y010475D01*
X008088Y010356D02*
X010167Y010356D01*
X010285Y010237D02*
X008195Y010237D01*
X008302Y010119D02*
X008785Y010119D01*
X008646Y010000D02*
X008436Y010000D01*
X008515Y009882D02*
X008572Y009882D01*
X009014Y009882D02*
X009094Y009882D01*
X009094Y010000D02*
X009014Y010000D01*
X009014Y010119D02*
X009094Y010119D01*
X009324Y010119D02*
X009827Y010119D01*
X009672Y010000D02*
X009463Y010000D01*
X009537Y009882D02*
X009594Y009882D01*
X009094Y009763D02*
X009014Y009763D01*
X009014Y009526D02*
X009094Y009526D01*
X009094Y009408D02*
X009014Y009408D01*
X009014Y009289D02*
X009094Y009289D01*
X009094Y009171D02*
X009014Y009171D01*
X008850Y009171D02*
X008202Y009171D01*
X008403Y009289D02*
X008677Y009289D01*
X008589Y009408D02*
X008501Y009408D01*
X007906Y009171D02*
X007564Y009171D01*
X007553Y009289D02*
X007705Y009289D01*
X007607Y009408D02*
X007504Y009408D01*
X007517Y009526D02*
X007411Y009526D01*
X007410Y009645D02*
X007220Y009645D01*
X007303Y009763D02*
X001014Y009763D01*
X001014Y009645D02*
X006889Y009645D01*
X006698Y009526D02*
X001014Y009526D01*
X001014Y009408D02*
X006604Y009408D01*
X006555Y009289D02*
X001014Y009289D01*
X001014Y009171D02*
X006544Y009171D01*
X006548Y009052D02*
X001014Y009052D01*
X001014Y008933D02*
X006597Y008933D01*
X006679Y008815D02*
X001014Y008815D01*
X001014Y008696D02*
X006844Y008696D01*
X006750Y008578D02*
X001859Y008578D01*
X001977Y008459D02*
X006631Y008459D01*
X006577Y008341D02*
X002032Y008341D01*
X002064Y008222D02*
X006544Y008222D01*
X006544Y008104D02*
X002064Y008104D01*
X002045Y007985D02*
X006575Y007985D01*
X006628Y007867D02*
X002176Y007867D01*
X002306Y007748D02*
X006746Y007748D01*
X006852Y007629D02*
X002437Y007629D01*
X002567Y007511D02*
X006683Y007511D01*
X006598Y007392D02*
X002697Y007392D01*
X002828Y007274D02*
X006549Y007274D01*
X006544Y007155D02*
X002958Y007155D01*
X003089Y007037D02*
X006554Y007037D01*
X006603Y006918D02*
X003219Y006918D01*
X003349Y006800D02*
X006695Y006800D01*
X006881Y006681D02*
X003480Y006681D01*
X003610Y006563D02*
X006734Y006563D01*
X007180Y006661D02*
X007343Y006729D01*
X007487Y006872D01*
X007523Y006961D01*
X007721Y006961D01*
X008521Y006161D01*
X007971Y005611D01*
X007854Y005494D01*
X007854Y004130D01*
X007765Y004094D01*
X007622Y003950D01*
X007544Y003763D01*
X007544Y003560D01*
X007622Y003372D01*
X007765Y003229D01*
X007953Y003151D01*
X008156Y003151D01*
X008343Y003229D01*
X008487Y003372D01*
X008554Y003536D01*
X008622Y003372D01*
X008765Y003229D01*
X008953Y003151D01*
X009156Y003151D01*
X009343Y003229D01*
X009487Y003372D01*
X009554Y003536D01*
X009622Y003372D01*
X009765Y003229D01*
X009953Y003151D01*
X010156Y003151D01*
X010343Y003229D01*
X010487Y003372D01*
X010545Y003513D01*
X010563Y003458D01*
X010601Y003383D01*
X010650Y003316D01*
X010709Y003257D01*
X010777Y003208D01*
X010851Y003170D01*
X010930Y003144D01*
X011013Y003131D01*
X011014Y003131D01*
X011014Y003621D01*
X011094Y003621D01*
X011094Y003131D01*
X011096Y003131D01*
X011178Y003144D01*
X011258Y003170D01*
X011332Y003208D01*
X011400Y003257D01*
X011459Y003316D01*
X011508Y003383D01*
X011545Y003458D01*
X011564Y003513D01*
X011622Y003372D01*
X011765Y003229D01*
X011854Y003192D01*
X011854Y002744D01*
X011721Y002611D01*
X007262Y002611D01*
X007096Y002611D01*
X006846Y002361D01*
X006729Y002244D01*
X006729Y002017D01*
X006667Y001991D01*
X006524Y001848D01*
X006465Y001707D01*
X006447Y001762D01*
X006409Y001837D01*
X006360Y001904D01*
X006301Y001963D01*
X006234Y002012D01*
X006159Y002050D01*
X006080Y002076D01*
X005998Y002089D01*
X005996Y002089D01*
X005996Y001599D01*
X005916Y001599D01*
X005916Y002089D01*
X005914Y002089D01*
X005832Y002076D01*
X005752Y002050D01*
X005678Y002012D01*
X005611Y001963D01*
X005552Y001904D01*
X005503Y001837D01*
X005465Y001762D01*
X005447Y001707D01*
X005388Y001848D01*
X005245Y001991D01*
X005229Y001998D01*
X005229Y002371D01*
X005516Y002371D01*
X005516Y002873D01*
X005593Y002873D01*
X005593Y002950D01*
X005516Y002950D01*
X005516Y003371D01*
X005516Y003873D01*
X005593Y003873D01*
X005593Y003950D01*
X006094Y003950D01*
X006094Y004312D01*
X006083Y004353D01*
X006062Y004389D01*
X006033Y004419D01*
X005996Y004440D01*
X005955Y004451D01*
X005802Y004451D01*
X005849Y004470D01*
X005995Y004617D01*
X006074Y004808D01*
X006074Y005015D01*
X005995Y005206D01*
X005849Y005352D01*
X005658Y005431D01*
X005499Y005431D01*
X005929Y005861D01*
X006633Y005861D01*
X006765Y005729D01*
X006906Y005670D01*
X006851Y005652D01*
X006777Y005615D01*
X006709Y005565D01*
X006650Y005506D01*
X006601Y005439D01*
X006563Y005365D01*
X006537Y005285D01*
X006524Y005203D01*
X006524Y005201D01*
X007014Y005201D01*
X007014Y005121D01*
X006524Y005121D01*
X006524Y005120D01*
X006537Y005037D01*
X006563Y004958D01*
X006601Y004883D01*
X006650Y004816D01*
X006709Y004757D01*
X006777Y004708D01*
X006851Y004670D01*
X006878Y004661D01*
X006851Y004652D01*
X006777Y004615D01*
X006709Y004565D01*
X006650Y004506D01*
X006601Y004439D01*
X006563Y004365D01*
X006537Y004285D01*
X006524Y004203D01*
X006524Y004201D01*
X007014Y004201D01*
X007014Y004121D01*
X006524Y004121D01*
X006524Y004120D01*
X006537Y004037D01*
X006563Y003958D01*
X006601Y003883D01*
X006650Y003816D01*
X006709Y003757D01*
X006777Y003708D01*
X006851Y003670D01*
X006930Y003644D01*
X007013Y003631D01*
X007014Y003631D01*
X007014Y004121D01*
X007094Y004121D01*
X007094Y003631D01*
X007096Y003631D01*
X007178Y003644D01*
X007258Y003670D01*
X007332Y003708D01*
X007400Y003757D01*
X007459Y003816D01*
X007508Y003883D01*
X007545Y003958D01*
X007571Y004037D01*
X007584Y004120D01*
X007584Y004121D01*
X007095Y004121D01*
X007095Y004201D01*
X007584Y004201D01*
X007584Y004203D01*
X007571Y004285D01*
X007545Y004365D01*
X007508Y004439D01*
X007459Y004506D01*
X007400Y004565D01*
X007332Y004615D01*
X007258Y004652D01*
X007231Y004661D01*
X007258Y004670D01*
X007332Y004708D01*
X007400Y004757D01*
X007459Y004816D01*
X007508Y004883D01*
X007545Y004958D01*
X007571Y005037D01*
X007584Y005120D01*
X007584Y005121D01*
X007095Y005121D01*
X007095Y005201D01*
X007584Y005201D01*
X007584Y005203D01*
X007571Y005285D01*
X007545Y005365D01*
X007508Y005439D01*
X007459Y005506D01*
X007400Y005565D01*
X007332Y005615D01*
X007258Y005652D01*
X007202Y005670D01*
X007343Y005729D01*
X007487Y005872D01*
X007564Y006060D01*
X007564Y006263D01*
X007487Y006450D01*
X007343Y006594D01*
X007180Y006661D01*
X007228Y006681D02*
X008002Y006681D01*
X008120Y006563D02*
X007374Y006563D01*
X007489Y006444D02*
X008239Y006444D01*
X008357Y006326D02*
X007538Y006326D01*
X007564Y006207D02*
X008476Y006207D01*
X008449Y006088D02*
X007564Y006088D01*
X007527Y005970D02*
X008330Y005970D01*
X008212Y005851D02*
X007466Y005851D01*
X007347Y005733D02*
X008093Y005733D01*
X007974Y005614D02*
X007332Y005614D01*
X007466Y005496D02*
X007856Y005496D01*
X007854Y005377D02*
X007539Y005377D01*
X007576Y005259D02*
X007854Y005259D01*
X007854Y005140D02*
X007095Y005140D01*
X007094Y005121D02*
X007094Y004691D01*
X007094Y004201D01*
X007014Y004201D01*
X007014Y004691D01*
X007014Y005121D01*
X007094Y005121D01*
X007014Y005140D02*
X006022Y005140D01*
X006071Y005022D02*
X006542Y005022D01*
X006591Y004903D02*
X006074Y004903D01*
X006065Y004784D02*
X006682Y004784D01*
X006864Y004666D02*
X006015Y004666D01*
X005926Y004547D02*
X006691Y004547D01*
X006596Y004429D02*
X006016Y004429D01*
X006094Y004310D02*
X006545Y004310D01*
X006094Y004192D02*
X007014Y004192D01*
X007095Y004192D02*
X007854Y004192D01*
X007854Y004310D02*
X007563Y004310D01*
X007513Y004429D02*
X007854Y004429D01*
X007854Y004547D02*
X007418Y004547D01*
X007245Y004666D02*
X007854Y004666D01*
X007854Y004784D02*
X007427Y004784D01*
X007518Y004903D02*
X007854Y004903D01*
X007854Y005022D02*
X007566Y005022D01*
X007094Y005022D02*
X007014Y005022D01*
X007014Y004903D02*
X007094Y004903D01*
X007094Y004784D02*
X007014Y004784D01*
X007014Y004666D02*
X007094Y004666D01*
X007094Y004547D02*
X007014Y004547D01*
X007014Y004429D02*
X007094Y004429D01*
X007094Y004310D02*
X007014Y004310D01*
X007014Y004073D02*
X007094Y004073D01*
X007094Y003955D02*
X007014Y003955D01*
X007014Y003836D02*
X007094Y003836D01*
X007094Y003718D02*
X007014Y003718D01*
X006763Y003718D02*
X006094Y003718D01*
X006094Y003836D02*
X006635Y003836D01*
X006565Y003955D02*
X006094Y003955D01*
X006094Y003873D02*
X005593Y003873D01*
X005593Y003371D01*
X005593Y002950D01*
X006094Y002950D01*
X006094Y003312D01*
X006083Y003353D01*
X006062Y003389D01*
X006041Y003411D01*
X006062Y003433D01*
X006083Y003469D01*
X006094Y003510D01*
X006094Y003873D01*
X006094Y004073D02*
X006532Y004073D01*
X007345Y003718D02*
X007544Y003718D01*
X007544Y003599D02*
X006094Y003599D01*
X006086Y003480D02*
X007577Y003480D01*
X007632Y003362D02*
X006078Y003362D01*
X006094Y003243D02*
X007751Y003243D01*
X008054Y003661D02*
X008054Y005411D01*
X008679Y006036D01*
X013679Y006036D01*
X014944Y007301D01*
X015615Y007301D01*
X015636Y007536D02*
X017054Y007536D01*
X016054Y007536D01*
X016054Y007869D01*
X016295Y007869D01*
X016412Y007986D01*
X016504Y008078D01*
X016504Y008244D01*
X016504Y008361D01*
X016729Y008586D01*
X016762Y008586D01*
X017137Y008961D01*
X017254Y009078D01*
X017254Y009111D01*
X017304Y009161D01*
X017929Y009161D01*
X017953Y009151D01*
X018156Y009151D01*
X018180Y009161D01*
X018929Y009161D01*
X018953Y009151D01*
X019156Y009151D01*
X019180Y009161D01*
X019429Y009161D01*
X020179Y009911D01*
X020179Y013036D01*
X020844Y013036D01*
X020844Y012919D01*
X021187Y012576D01*
X021389Y012576D01*
X021389Y013036D01*
X021429Y013036D01*
X021429Y011451D01*
X021389Y011451D01*
X021389Y011371D01*
X020844Y011371D01*
X020844Y011169D01*
X021187Y010826D01*
X021389Y010826D01*
X021389Y011371D01*
X021469Y011371D01*
X021469Y010826D01*
X021672Y010826D01*
X022014Y011169D01*
X022014Y011371D01*
X021470Y011371D01*
X021470Y011411D01*
X022929Y011411D01*
X023929Y010411D01*
X023929Y009161D01*
X023904Y009161D01*
X023904Y009266D01*
X023896Y009266D01*
X023820Y009254D01*
X023746Y009230D01*
X023677Y009195D01*
X023631Y009161D01*
X023234Y009161D01*
X023221Y009175D01*
X023048Y009246D01*
X022861Y009246D01*
X022688Y009175D01*
X022675Y009161D01*
X021304Y009161D01*
X020179Y008036D01*
X020179Y006911D01*
X019554Y006286D01*
X018929Y006286D01*
X018929Y006367D01*
X018918Y006408D01*
X018909Y006423D01*
X018909Y006660D01*
X018907Y006661D01*
X018909Y006663D01*
X018909Y006916D01*
X018907Y006917D01*
X018909Y006919D01*
X018909Y007172D01*
X018907Y007173D01*
X018909Y007174D01*
X018909Y007428D01*
X018907Y007429D01*
X018909Y007430D01*
X018909Y007683D01*
X018907Y007685D01*
X018909Y007686D01*
X018909Y007939D01*
X018907Y007941D01*
X018909Y007942D01*
X018909Y008195D01*
X018907Y008197D01*
X018909Y008198D01*
X018909Y008451D01*
X018827Y008533D01*
X018804Y008533D01*
X018804Y008536D01*
X018054Y008536D01*
X017054Y007536D01*
X018054Y008536D01*
X020179Y008536D01*
X020179Y006911D01*
X019545Y006277D01*
X018494Y006277D01*
X018079Y006207D02*
X016030Y006207D01*
X016030Y006088D02*
X018079Y006088D01*
X018079Y005970D02*
X016030Y005970D01*
X016030Y005851D02*
X018059Y005851D01*
X018059Y005733D02*
X016030Y005733D01*
X016030Y005614D02*
X018079Y005614D01*
X018079Y005496D02*
X016030Y005496D01*
X016030Y005377D02*
X018079Y005377D01*
X018079Y005259D02*
X016030Y005259D01*
X016030Y005140D02*
X018079Y005140D01*
X018079Y005022D02*
X016030Y005022D01*
X016030Y004903D02*
X018079Y004903D01*
X018494Y004998D02*
X020436Y004998D01*
X022954Y007516D01*
X023424Y007511D02*
X023904Y007511D01*
X023904Y007486D02*
X023904Y007546D01*
X023444Y007546D01*
X023444Y007555D01*
X023456Y007631D01*
X023480Y007704D01*
X023515Y007773D01*
X023561Y007835D01*
X023615Y007890D01*
X023677Y007935D01*
X023746Y007970D01*
X023820Y007994D01*
X023896Y008006D01*
X023904Y008006D01*
X023904Y007546D01*
X023964Y007546D01*
X023964Y008006D01*
X023973Y008006D01*
X024049Y007994D01*
X024122Y007970D01*
X024191Y007935D01*
X024254Y007890D01*
X024308Y007835D01*
X024353Y007773D01*
X024388Y007704D01*
X024412Y007631D01*
X024424Y007555D01*
X024424Y007546D01*
X023965Y007546D01*
X023965Y007486D01*
X024424Y007486D01*
X024424Y007478D01*
X024412Y007401D01*
X024388Y007328D01*
X024353Y007259D01*
X024308Y007197D01*
X024254Y007142D01*
X024191Y007097D01*
X024122Y007062D01*
X024049Y007038D01*
X023973Y007026D01*
X023964Y007026D01*
X023964Y007486D01*
X023904Y007486D01*
X023444Y007486D01*
X023444Y007478D01*
X023456Y007401D01*
X023480Y007328D01*
X023515Y007259D01*
X023561Y007197D01*
X023615Y007142D01*
X023677Y007097D01*
X023746Y007062D01*
X023820Y007038D01*
X023896Y007026D01*
X023904Y007026D01*
X023904Y007486D01*
X023965Y007511D02*
X025024Y007511D01*
X025004Y007559D02*
X025125Y007269D01*
X025347Y007047D01*
X025637Y006926D01*
X025951Y006926D01*
X026242Y007047D01*
X026464Y007269D01*
X026584Y007559D01*
X026584Y007873D01*
X026464Y008164D01*
X026242Y008386D01*
X025951Y008506D01*
X025637Y008506D01*
X025347Y008386D01*
X025125Y008164D01*
X025004Y007873D01*
X025004Y007559D01*
X025004Y007629D02*
X024413Y007629D01*
X024366Y007748D02*
X025004Y007748D01*
X025004Y007867D02*
X024277Y007867D01*
X024077Y007985D02*
X025051Y007985D01*
X025100Y008104D02*
X022565Y008104D01*
X022504Y007985D02*
X022858Y007985D01*
X023050Y007985D02*
X023792Y007985D01*
X023904Y007985D02*
X023964Y007985D01*
X023964Y007867D02*
X023904Y007867D01*
X023904Y007748D02*
X023964Y007748D01*
X023964Y007629D02*
X023904Y007629D01*
X023904Y007392D02*
X023964Y007392D01*
X023964Y007274D02*
X023904Y007274D01*
X023904Y007155D02*
X023964Y007155D01*
X023964Y007037D02*
X023904Y007037D01*
X023829Y007037D02*
X022758Y007037D01*
X022639Y006918D02*
X031967Y006918D01*
X031967Y006800D02*
X022521Y006800D01*
X022402Y006681D02*
X031967Y006681D01*
X031967Y006563D02*
X022284Y006563D01*
X022165Y006444D02*
X031061Y006444D01*
X031052Y006326D02*
X022046Y006326D01*
X021928Y006207D02*
X031052Y006207D01*
X031052Y006088D02*
X021809Y006088D01*
X021691Y005970D02*
X031052Y005970D01*
X031052Y005851D02*
X030490Y005851D01*
X030535Y005733D02*
X031968Y005733D01*
X031968Y005614D02*
X030535Y005614D01*
X030535Y005496D02*
X031968Y005496D01*
X031968Y005377D02*
X030555Y005377D01*
X030555Y005259D02*
X031968Y005259D01*
X031968Y005140D02*
X030555Y005140D01*
X030532Y005022D02*
X031968Y005022D01*
X031968Y004903D02*
X030535Y004903D01*
X030535Y004784D02*
X031968Y004784D01*
X031968Y004666D02*
X030535Y004666D01*
X030535Y004547D02*
X031968Y004547D01*
X031968Y004429D02*
X030535Y004429D01*
X030535Y004310D02*
X031968Y004310D01*
X031968Y004192D02*
X030535Y004192D01*
X030535Y004073D02*
X031968Y004073D01*
X031968Y003955D02*
X030535Y003955D01*
X030546Y003836D02*
X031968Y003836D01*
X031968Y003718D02*
X030555Y003718D01*
X030555Y003599D02*
X031968Y003599D01*
X031089Y003480D02*
X030544Y003480D01*
X030129Y003480D02*
X030129Y003480D01*
X030129Y003599D02*
X030129Y003599D01*
X029704Y003599D02*
X023275Y003599D01*
X023393Y003718D02*
X029704Y003718D01*
X029713Y003836D02*
X023512Y003836D01*
X023448Y004055D02*
X030129Y004055D01*
X030129Y004449D02*
X022092Y004449D01*
X020554Y002911D01*
X018804Y002911D01*
X018054Y003661D01*
X017575Y003836D02*
X017534Y003836D01*
X017482Y003955D02*
X017626Y003955D01*
X017745Y004073D02*
X017364Y004073D01*
X016745Y004073D02*
X016364Y004073D01*
X016482Y003955D02*
X016626Y003955D01*
X016575Y003836D02*
X016534Y003836D01*
X016956Y003563D02*
X017054Y003661D01*
X016956Y003563D02*
X016956Y001559D01*
X015956Y001559D02*
X015956Y003563D01*
X016054Y003661D01*
X015575Y003836D02*
X015534Y003836D01*
X015482Y003955D02*
X015626Y003955D01*
X015745Y004073D02*
X015364Y004073D01*
X014745Y004073D02*
X014364Y004073D01*
X014482Y003955D02*
X014626Y003955D01*
X014575Y003836D02*
X014534Y003836D01*
X014956Y003563D02*
X015054Y003661D01*
X014956Y003563D02*
X014956Y001559D01*
X013956Y001559D02*
X013956Y003563D01*
X014054Y003661D01*
X013575Y003836D02*
X013534Y003836D01*
X013482Y003955D02*
X013626Y003955D01*
X013745Y004073D02*
X013364Y004073D01*
X012745Y004073D02*
X012364Y004073D01*
X012482Y003955D02*
X012626Y003955D01*
X012575Y003836D02*
X012534Y003836D01*
X012054Y003661D02*
X012054Y002661D01*
X011804Y002411D01*
X007179Y002411D01*
X006929Y002161D01*
X006929Y001585D01*
X006956Y001559D01*
X007447Y001707D02*
X007388Y001848D01*
X007245Y001991D01*
X007129Y002039D01*
X007129Y002078D01*
X007262Y002211D01*
X008947Y002211D01*
X008769Y002033D01*
X008667Y001991D01*
X008524Y001848D01*
X008465Y001707D01*
X008447Y001762D01*
X008409Y001837D01*
X008360Y001904D01*
X008301Y001963D01*
X008234Y002012D01*
X008159Y002050D01*
X008080Y002076D01*
X007998Y002089D01*
X007996Y002089D01*
X007996Y001599D01*
X007916Y001599D01*
X007916Y002089D01*
X007914Y002089D01*
X007832Y002076D01*
X007752Y002050D01*
X007678Y002012D01*
X007611Y001963D01*
X007552Y001904D01*
X007503Y001837D01*
X007465Y001762D01*
X007447Y001707D01*
X007399Y001821D02*
X007495Y001821D01*
X007587Y001939D02*
X007297Y001939D01*
X007129Y002058D02*
X007777Y002058D01*
X007916Y002058D02*
X007996Y002058D01*
X007996Y001939D02*
X007916Y001939D01*
X007916Y001821D02*
X007996Y001821D01*
X007996Y001702D02*
X007916Y001702D01*
X008325Y001939D02*
X008615Y001939D01*
X008512Y001821D02*
X008417Y001821D01*
X008135Y002058D02*
X008793Y002058D01*
X008912Y002176D02*
X007227Y002176D01*
X006899Y002414D02*
X006043Y002414D01*
X006033Y002403D02*
X006062Y002433D01*
X006083Y002469D01*
X006094Y002510D01*
X006094Y002873D01*
X005593Y002873D01*
X005593Y002371D01*
X005955Y002371D01*
X005996Y002382D01*
X006033Y002403D01*
X006094Y002532D02*
X007017Y002532D01*
X006780Y002295D02*
X005229Y002295D01*
X005229Y002176D02*
X006729Y002176D01*
X006729Y002058D02*
X006135Y002058D01*
X005996Y002058D02*
X005916Y002058D01*
X005916Y001939D02*
X005996Y001939D01*
X005996Y001821D02*
X005916Y001821D01*
X005916Y001702D02*
X005996Y001702D01*
X006325Y001939D02*
X006615Y001939D01*
X006512Y001821D02*
X006417Y001821D01*
X005777Y002058D02*
X005229Y002058D01*
X005297Y001939D02*
X005587Y001939D01*
X005495Y001821D02*
X005399Y001821D01*
X004615Y001939D02*
X004486Y001939D01*
X004486Y001821D02*
X004512Y001821D01*
X003996Y001821D02*
X003916Y001821D01*
X003916Y001939D02*
X003996Y001939D01*
X003996Y002058D02*
X003916Y002058D01*
X004422Y002058D02*
X004629Y002058D01*
X004629Y002176D02*
X002602Y002176D01*
X002670Y002058D02*
X003489Y002058D01*
X003426Y001939D02*
X002735Y001939D01*
X002767Y001821D02*
X003426Y001821D01*
X003426Y001702D02*
X002799Y001702D01*
X002802Y001584D02*
X003916Y001584D01*
X003916Y001519D02*
X003426Y001519D01*
X003426Y001168D01*
X003437Y001127D01*
X003458Y001091D01*
X003488Y001061D01*
X003524Y001040D01*
X003565Y001029D01*
X003916Y001029D01*
X003916Y001519D01*
X003916Y001465D02*
X003996Y001465D01*
X003996Y001347D02*
X003916Y001347D01*
X003916Y001228D02*
X003996Y001228D01*
X003996Y001110D02*
X003916Y001110D01*
X004465Y001110D02*
X004589Y001110D01*
X004589Y000991D02*
X002630Y000991D01*
X002699Y001110D02*
X003447Y001110D01*
X003426Y001228D02*
X002749Y001228D01*
X002781Y001347D02*
X003426Y001347D01*
X003426Y001465D02*
X002802Y001465D01*
X002534Y000873D02*
X004589Y000873D01*
X004626Y000754D02*
X002416Y000754D01*
X002213Y000635D02*
X004724Y000635D01*
X004544Y001228D02*
X004486Y001228D01*
X003996Y001702D02*
X003916Y001702D01*
X004629Y002295D02*
X002484Y002295D01*
X002516Y002414D02*
X002593Y002414D01*
X002593Y002371D02*
X002955Y002371D01*
X002996Y002382D01*
X003033Y002403D01*
X003062Y002433D01*
X003083Y002469D01*
X003094Y002510D01*
X003094Y002873D01*
X002593Y002873D01*
X002593Y002950D01*
X002516Y002950D01*
X002516Y003371D01*
X002516Y003873D01*
X002014Y003873D01*
X002014Y003510D01*
X002025Y003469D01*
X002046Y003433D01*
X002068Y003411D01*
X002046Y003389D01*
X002025Y003353D01*
X002014Y003312D01*
X002014Y002950D01*
X002516Y002950D01*
X002516Y002873D01*
X002593Y002873D01*
X002593Y002371D01*
X002593Y002532D02*
X002516Y002532D01*
X002516Y002651D02*
X002593Y002651D01*
X002593Y002769D02*
X002516Y002769D01*
X002516Y002888D02*
X001014Y002888D01*
X001014Y003006D02*
X002014Y003006D01*
X002014Y003125D02*
X001014Y003125D01*
X001014Y003243D02*
X002014Y003243D01*
X002030Y003362D02*
X001014Y003362D01*
X001014Y003480D02*
X002022Y003480D01*
X002014Y003599D02*
X001014Y003599D01*
X001014Y003718D02*
X002014Y003718D01*
X002014Y003836D02*
X001014Y003836D01*
X001014Y003955D02*
X002014Y003955D01*
X002014Y003950D02*
X002516Y003950D01*
X002516Y004451D01*
X002153Y004451D01*
X002113Y004440D01*
X002076Y004419D01*
X002046Y004389D01*
X002025Y004353D01*
X002014Y004312D01*
X002014Y003950D01*
X002014Y004073D02*
X001014Y004073D01*
X001014Y004192D02*
X002014Y004192D01*
X002014Y004310D02*
X001014Y004310D01*
X001014Y004429D02*
X002093Y004429D01*
X002516Y004429D02*
X002593Y004429D01*
X002593Y004451D02*
X002593Y003950D01*
X002516Y003950D01*
X002516Y003873D01*
X002593Y003873D01*
X002593Y003950D01*
X003094Y003950D01*
X003094Y004312D01*
X003083Y004353D01*
X003062Y004389D01*
X003033Y004419D01*
X002996Y004440D01*
X002955Y004451D01*
X002593Y004451D01*
X002593Y004310D02*
X002516Y004310D01*
X002516Y004192D02*
X002593Y004192D01*
X002593Y004073D02*
X002516Y004073D01*
X002516Y003955D02*
X002593Y003955D01*
X002593Y003873D02*
X003094Y003873D01*
X003094Y003510D01*
X003083Y003469D01*
X003062Y003433D01*
X003041Y003411D01*
X003062Y003389D01*
X003083Y003353D01*
X003094Y003312D01*
X003094Y002950D01*
X002593Y002950D01*
X002593Y003371D01*
X002593Y003873D01*
X002593Y003836D02*
X002516Y003836D01*
X002516Y003718D02*
X002593Y003718D01*
X002593Y003599D02*
X002516Y003599D01*
X002516Y003480D02*
X002593Y003480D01*
X002593Y003362D02*
X002516Y003362D01*
X002516Y003243D02*
X002593Y003243D01*
X002593Y003125D02*
X002516Y003125D01*
X002516Y003006D02*
X002593Y003006D01*
X002593Y002888D02*
X003784Y002888D01*
X003784Y003006D02*
X003094Y003006D01*
X003094Y003125D02*
X003830Y003125D01*
X003901Y003243D02*
X003094Y003243D01*
X003078Y003362D02*
X004034Y003362D01*
X004104Y003480D02*
X003086Y003480D01*
X003094Y003599D02*
X004104Y003599D01*
X004104Y003718D02*
X003094Y003718D01*
X003094Y003836D02*
X004104Y003836D01*
X004104Y003955D02*
X003094Y003955D01*
X003094Y004073D02*
X004104Y004073D01*
X004104Y004192D02*
X003094Y004192D01*
X003094Y004310D02*
X004104Y004310D01*
X004004Y004429D02*
X003016Y004429D01*
X003767Y004666D02*
X001014Y004666D01*
X001014Y004784D02*
X003648Y004784D01*
X003530Y004903D02*
X001014Y004903D01*
X001014Y005022D02*
X003411Y005022D01*
X003293Y005140D02*
X001014Y005140D01*
X001014Y005259D02*
X003174Y005259D01*
X003056Y005377D02*
X001014Y005377D01*
X001014Y005496D02*
X002937Y005496D01*
X002818Y005614D02*
X001014Y005614D01*
X001014Y005733D02*
X002700Y005733D01*
X002581Y005851D02*
X001014Y005851D01*
X001014Y005970D02*
X002463Y005970D01*
X002344Y006088D02*
X001014Y006088D01*
X001014Y006207D02*
X002226Y006207D01*
X002107Y006326D02*
X001014Y006326D01*
X001014Y006444D02*
X001989Y006444D01*
X001870Y006563D02*
X001014Y006563D01*
X001014Y006681D02*
X001381Y006681D01*
X001195Y006800D02*
X001014Y006800D01*
X001014Y006918D02*
X001103Y006918D01*
X001054Y007037D02*
X001014Y007037D01*
X001014Y007155D02*
X001044Y007155D01*
X001049Y007274D02*
X001014Y007274D01*
X001014Y007392D02*
X001098Y007392D01*
X001014Y007511D02*
X001183Y007511D01*
X001014Y007629D02*
X001352Y007629D01*
X001246Y007748D02*
X001014Y007748D01*
X001014Y007867D02*
X001128Y007867D01*
X001075Y007985D02*
X001014Y007985D01*
X001014Y008104D02*
X001044Y008104D01*
X001044Y008222D02*
X001014Y008222D01*
X001014Y008341D02*
X001077Y008341D01*
X001131Y008459D02*
X001014Y008459D01*
X001014Y008578D02*
X001250Y008578D01*
X001554Y008161D02*
X004304Y005661D01*
X004824Y005614D02*
X004833Y005614D01*
X004824Y005733D02*
X004952Y005733D01*
X005070Y005851D02*
X004788Y005851D01*
X004731Y005970D02*
X005189Y005970D01*
X005307Y006088D02*
X004612Y006088D01*
X004001Y006207D02*
X005426Y006207D01*
X005544Y006326D02*
X003871Y006326D01*
X003741Y006444D02*
X005703Y006444D01*
X005919Y005851D02*
X006643Y005851D01*
X006762Y005733D02*
X005800Y005733D01*
X005682Y005614D02*
X006776Y005614D01*
X006642Y005496D02*
X005563Y005496D01*
X005788Y005377D02*
X006570Y005377D01*
X006533Y005259D02*
X005942Y005259D01*
X004304Y004411D02*
X001554Y007161D01*
X001728Y006681D02*
X001752Y006681D01*
X001014Y004547D02*
X003885Y004547D01*
X004304Y004411D02*
X004304Y002911D01*
X003948Y002532D02*
X003094Y002532D01*
X003094Y002651D02*
X003849Y002651D01*
X003800Y002769D02*
X003094Y002769D01*
X003043Y002414D02*
X004147Y002414D01*
X004462Y002414D02*
X004629Y002414D01*
X005516Y002414D02*
X005593Y002414D01*
X005593Y002532D02*
X005516Y002532D01*
X005516Y002651D02*
X005593Y002651D01*
X005593Y002769D02*
X005516Y002769D01*
X005593Y002888D02*
X011854Y002888D01*
X011854Y003006D02*
X006094Y003006D01*
X006094Y003125D02*
X011854Y003125D01*
X011751Y003243D02*
X011381Y003243D01*
X011492Y003362D02*
X011632Y003362D01*
X011577Y003480D02*
X011553Y003480D01*
X011094Y003480D02*
X011014Y003480D01*
X011014Y003362D02*
X011094Y003362D01*
X011094Y003243D02*
X011014Y003243D01*
X010728Y003243D02*
X010358Y003243D01*
X010476Y003362D02*
X010617Y003362D01*
X010556Y003480D02*
X010531Y003480D01*
X011014Y003599D02*
X011094Y003599D01*
X011094Y003718D02*
X011014Y003718D01*
X011014Y003836D02*
X011094Y003836D01*
X011094Y003955D02*
X011014Y003955D01*
X011014Y004073D02*
X011094Y004073D01*
X011389Y004073D02*
X011745Y004073D01*
X011626Y003955D02*
X011496Y003955D01*
X011555Y003836D02*
X011575Y003836D01*
X010720Y004073D02*
X010364Y004073D01*
X010482Y003955D02*
X010612Y003955D01*
X010554Y003836D02*
X010534Y003836D01*
X009745Y004073D02*
X009364Y004073D01*
X009482Y003955D02*
X009626Y003955D01*
X009575Y003836D02*
X009534Y003836D01*
X009531Y003480D02*
X009577Y003480D01*
X009632Y003362D02*
X009476Y003362D01*
X009358Y003243D02*
X009751Y003243D01*
X008751Y003243D02*
X008358Y003243D01*
X008476Y003362D02*
X008632Y003362D01*
X008577Y003480D02*
X008531Y003480D01*
X008534Y003836D02*
X008575Y003836D01*
X008626Y003955D02*
X008482Y003955D01*
X008364Y004073D02*
X008745Y004073D01*
X008254Y004192D02*
X021052Y004192D01*
X021171Y004310D02*
X008254Y004310D01*
X008254Y004429D02*
X021289Y004429D01*
X021408Y004547D02*
X008254Y004547D01*
X008254Y004666D02*
X021526Y004666D01*
X021645Y004784D02*
X008254Y004784D01*
X008254Y004903D02*
X015200Y004903D01*
X015200Y005022D02*
X008254Y005022D01*
X008254Y005140D02*
X015200Y005140D01*
X015200Y005259D02*
X008254Y005259D01*
X008303Y005377D02*
X015200Y005377D01*
X015200Y005496D02*
X008422Y005496D01*
X008540Y005614D02*
X015200Y005614D01*
X015200Y005733D02*
X008659Y005733D01*
X008679Y006286D02*
X007804Y007161D01*
X007054Y007161D01*
X007414Y006800D02*
X007883Y006800D01*
X007764Y006918D02*
X007506Y006918D01*
X008304Y007036D02*
X008304Y007911D01*
X007054Y009161D01*
X007561Y009052D02*
X010127Y009052D01*
X010202Y009171D02*
X010246Y009171D01*
X010009Y008933D02*
X007565Y008933D01*
X007683Y008815D02*
X009890Y008815D01*
X009906Y009171D02*
X009259Y009171D01*
X009432Y009289D02*
X009705Y009289D01*
X009607Y009408D02*
X009520Y009408D01*
X010515Y009882D02*
X010564Y009882D01*
X010522Y010000D02*
X010436Y010000D01*
X010404Y010119D02*
X010282Y010119D01*
X012313Y011186D02*
X014747Y011186D01*
X014628Y011304D02*
X012194Y011304D01*
X012076Y011423D02*
X014510Y011423D01*
X014391Y011541D02*
X011957Y011541D01*
X012013Y011631D02*
X012014Y011631D01*
X012014Y012121D01*
X012094Y012121D01*
X012094Y011631D01*
X012096Y011631D01*
X012178Y011644D01*
X012258Y011670D01*
X012332Y011708D01*
X012400Y011757D01*
X012459Y011816D01*
X012508Y011883D01*
X012545Y011958D01*
X012571Y012037D01*
X012584Y012120D01*
X012584Y012121D01*
X012095Y012121D01*
X012095Y012201D01*
X012584Y012201D01*
X012584Y012203D01*
X012571Y012285D01*
X012545Y012365D01*
X012508Y012439D01*
X012459Y012506D01*
X012400Y012565D01*
X012332Y012615D01*
X012258Y012652D01*
X012200Y012671D01*
X014909Y012671D01*
X014851Y012652D01*
X014777Y012615D01*
X014709Y012565D01*
X014650Y012506D01*
X014601Y012439D01*
X014563Y012365D01*
X014545Y012309D01*
X014487Y012450D01*
X014343Y012594D01*
X014156Y012671D01*
X013953Y012671D01*
X013765Y012594D01*
X013622Y012450D01*
X013544Y012263D01*
X013544Y012060D01*
X013622Y011872D01*
X013765Y011729D01*
X013953Y011651D01*
X014156Y011651D01*
X014245Y011688D01*
X014947Y010986D01*
X014846Y010986D01*
X012512Y010986D01*
X011805Y011694D01*
X011851Y011670D01*
X011930Y011644D01*
X012013Y011631D01*
X012014Y011660D02*
X012094Y011660D01*
X012094Y011779D02*
X012014Y011779D01*
X012014Y011897D02*
X012094Y011897D01*
X012094Y012016D02*
X012014Y012016D01*
X012095Y012134D02*
X013544Y012134D01*
X013544Y012253D02*
X012576Y012253D01*
X012542Y012371D02*
X013589Y012371D01*
X013662Y012490D02*
X012471Y012490D01*
X012341Y012608D02*
X013801Y012608D01*
X014308Y012608D02*
X014768Y012608D01*
X014638Y012490D02*
X014447Y012490D01*
X014519Y012371D02*
X014566Y012371D01*
X014054Y012161D02*
X015054Y011161D01*
X016054Y011161D01*
X017054Y010161D01*
X017054Y009661D01*
X017054Y009161D01*
X016679Y008786D01*
X014679Y008786D01*
X013054Y007161D01*
X013429Y006536D02*
X014804Y007911D01*
X014804Y008286D01*
X015054Y008536D01*
X016179Y008536D01*
X016304Y008411D01*
X016304Y008161D01*
X016212Y008069D01*
X016087Y008069D01*
X015929Y008069D01*
X015615Y008069D01*
X015218Y008325D02*
X015054Y008161D01*
X015054Y007786D01*
X013554Y006286D01*
X008679Y006286D01*
X008804Y006536D02*
X008304Y007036D01*
X008504Y007155D02*
X008544Y007155D01*
X008549Y007274D02*
X008504Y007274D01*
X008504Y007392D02*
X008564Y007392D01*
X008564Y007511D02*
X008504Y007511D01*
X008504Y007629D02*
X008564Y007629D01*
X008564Y007748D02*
X008504Y007748D01*
X008504Y007867D02*
X008564Y007867D01*
X008564Y007985D02*
X008504Y007985D01*
X008564Y008104D02*
X008395Y008104D01*
X008276Y008222D02*
X008544Y008222D01*
X008544Y008341D02*
X008158Y008341D01*
X008039Y008459D02*
X008574Y008459D01*
X008625Y008578D02*
X007921Y008578D01*
X007802Y008696D02*
X008743Y008696D01*
X007197Y009882D02*
X001014Y009882D01*
X001014Y010000D02*
X007090Y010000D01*
X006983Y010119D02*
X001014Y010119D01*
X001014Y010237D02*
X006877Y010237D01*
X006770Y010356D02*
X001014Y010356D01*
X001014Y011186D02*
X002064Y011186D01*
X002064Y011304D02*
X001014Y011304D01*
X001014Y011423D02*
X002064Y011423D01*
X002064Y011541D02*
X001014Y011541D01*
X001014Y011660D02*
X002064Y011660D01*
X002046Y011779D02*
X001014Y011779D01*
X001014Y011897D02*
X002034Y011897D01*
X002035Y012016D02*
X001014Y012016D01*
X001014Y012134D02*
X002084Y012134D01*
X002160Y012253D02*
X001014Y012253D01*
X001014Y012371D02*
X002306Y012371D01*
X002503Y012490D02*
X001014Y012490D01*
X001014Y012608D02*
X002657Y012608D01*
X002811Y012727D02*
X001014Y012727D01*
X001014Y012845D02*
X001359Y012845D01*
X001160Y012964D02*
X001014Y012964D01*
X001014Y013082D02*
X001042Y013082D01*
X002222Y012845D02*
X002965Y012845D01*
X003119Y012964D02*
X002421Y012964D01*
X002539Y013082D02*
X003273Y013082D01*
X003427Y013201D02*
X002633Y013201D01*
X002702Y013320D02*
X003582Y013320D01*
X003669Y013438D02*
X002750Y013438D01*
X002782Y013557D02*
X003669Y013557D01*
X003797Y013794D02*
X002802Y013794D01*
X002798Y013912D02*
X003711Y013912D01*
X003664Y014031D02*
X002766Y014031D01*
X002734Y014149D02*
X004139Y014149D01*
X004139Y014201D02*
X003649Y014201D01*
X003649Y014203D01*
X003662Y014285D01*
X003688Y014365D01*
X003726Y014439D01*
X003775Y014506D01*
X003834Y014565D01*
X003902Y014615D01*
X003976Y014652D01*
X004055Y014678D01*
X004138Y014691D01*
X004139Y014691D01*
X004139Y014201D01*
X004139Y014268D02*
X004219Y014268D01*
X004219Y014386D02*
X004139Y014386D01*
X004139Y014505D02*
X004219Y014505D01*
X004219Y014624D02*
X004139Y014624D01*
X003919Y014624D02*
X002323Y014624D01*
X002479Y014505D02*
X003774Y014505D01*
X003699Y014386D02*
X002598Y014386D01*
X002667Y014268D02*
X003660Y014268D01*
X004220Y014149D02*
X005889Y014149D01*
X005889Y014201D02*
X005399Y014201D01*
X005399Y014203D01*
X005412Y014285D01*
X005438Y014365D01*
X005476Y014439D01*
X005525Y014506D01*
X005584Y014565D01*
X005652Y014615D01*
X005726Y014652D01*
X005805Y014678D01*
X005888Y014691D01*
X005889Y014691D01*
X005889Y014201D01*
X005889Y014268D02*
X005969Y014268D01*
X005969Y014386D02*
X005889Y014386D01*
X005889Y014505D02*
X005969Y014505D01*
X005969Y014624D02*
X005889Y014624D01*
X005669Y014624D02*
X004439Y014624D01*
X004585Y014505D02*
X005524Y014505D01*
X005449Y014386D02*
X004659Y014386D01*
X004699Y014268D02*
X005410Y014268D01*
X005414Y014031D02*
X004694Y014031D01*
X004647Y013912D02*
X005461Y013912D01*
X005547Y013794D02*
X004561Y013794D01*
X004393Y013675D02*
X005716Y013675D01*
X006143Y013675D02*
X021144Y013675D01*
X021714Y013675D02*
X025116Y013675D01*
X025187Y013746D02*
X024844Y013404D01*
X024844Y013201D01*
X025389Y013201D01*
X021994Y013201D01*
X021994Y013082D02*
X024844Y013082D01*
X024844Y013121D02*
X024844Y012919D01*
X025187Y012576D01*
X025389Y012576D01*
X025389Y013121D01*
X024844Y013121D01*
X024844Y012964D02*
X021994Y012964D01*
X021919Y012845D02*
X024918Y012845D01*
X025036Y012727D02*
X021919Y012727D01*
X021919Y012608D02*
X025155Y012608D01*
X025389Y012608D02*
X025469Y012608D01*
X025469Y012576D02*
X025672Y012576D01*
X026014Y012919D01*
X026014Y013121D01*
X025470Y013121D01*
X025470Y013201D01*
X030475Y013201D01*
X030407Y013320D02*
X026014Y013320D01*
X026014Y013404D02*
X026014Y013201D01*
X025470Y013201D01*
X025469Y013201D02*
X025389Y013201D01*
X025389Y013121D01*
X025469Y013121D01*
X025469Y012576D01*
X025469Y012727D02*
X025389Y012727D01*
X025389Y012845D02*
X025469Y012845D01*
X025469Y012964D02*
X025389Y012964D01*
X025389Y013082D02*
X025469Y013082D01*
X025469Y013201D02*
X025469Y013746D01*
X025672Y013746D01*
X026014Y013404D01*
X025980Y013438D02*
X030358Y013438D01*
X030327Y013557D02*
X025861Y013557D01*
X025743Y013675D02*
X030307Y013675D01*
X030307Y013794D02*
X006311Y013794D01*
X006397Y013912D02*
X030311Y013912D01*
X030343Y014031D02*
X006444Y014031D01*
X005970Y014149D02*
X030375Y014149D01*
X030442Y014268D02*
X006449Y014268D01*
X006409Y014386D02*
X030511Y014386D01*
X030629Y014505D02*
X006335Y014505D01*
X006189Y014624D02*
X030785Y014624D01*
X030569Y013082D02*
X026014Y013082D01*
X026014Y012964D02*
X030688Y012964D01*
X030886Y012845D02*
X025941Y012845D01*
X025822Y012727D02*
X031965Y012727D01*
X031965Y012845D02*
X031750Y012845D01*
X031948Y012964D02*
X031965Y012964D01*
X031965Y012608D02*
X025704Y012608D01*
X025672Y011996D02*
X025469Y011996D01*
X025469Y011451D01*
X025470Y011451D02*
X026014Y011451D01*
X026014Y011654D01*
X025672Y011996D01*
X025771Y011897D02*
X031965Y011897D01*
X031965Y011779D02*
X025889Y011779D01*
X026008Y011660D02*
X031966Y011660D01*
X031966Y011541D02*
X026014Y011541D01*
X026014Y011371D02*
X025470Y011371D01*
X025470Y011451D01*
X025469Y011451D02*
X025389Y011451D01*
X025389Y011371D01*
X024844Y011371D01*
X024844Y011169D01*
X025187Y010826D01*
X025389Y010826D01*
X025389Y011371D01*
X025469Y011371D01*
X025469Y010826D01*
X025672Y010826D01*
X026014Y011169D01*
X026014Y011371D01*
X026014Y011304D02*
X031966Y011304D01*
X031966Y011186D02*
X026014Y011186D01*
X025913Y011067D02*
X031966Y011067D01*
X031966Y010949D02*
X025794Y010949D01*
X025676Y010830D02*
X031966Y010830D01*
X031966Y010712D02*
X024322Y010712D01*
X024387Y010593D02*
X031966Y010593D01*
X031966Y010475D02*
X024424Y010475D01*
X024424Y010356D02*
X031966Y010356D01*
X031966Y010237D02*
X024424Y010237D01*
X024424Y010119D02*
X031966Y010119D01*
X031966Y010000D02*
X024424Y010000D01*
X024424Y009882D02*
X031966Y009882D01*
X031966Y009763D02*
X024424Y009763D01*
X024424Y009645D02*
X031966Y009645D01*
X031966Y009526D02*
X024424Y009526D01*
X024424Y009408D02*
X031966Y009408D01*
X031966Y009289D02*
X024424Y009289D01*
X024424Y009171D02*
X031966Y009171D01*
X031966Y009052D02*
X024424Y009052D01*
X024424Y008933D02*
X031966Y008933D01*
X031966Y008815D02*
X024424Y008815D01*
X024424Y008696D02*
X031967Y008696D01*
X031967Y008578D02*
X024382Y008578D01*
X024310Y008459D02*
X025524Y008459D01*
X025302Y008341D02*
X024163Y008341D01*
X023705Y008341D02*
X023131Y008341D01*
X023302Y008459D02*
X023558Y008459D01*
X023486Y008578D02*
X023381Y008578D01*
X023424Y008696D02*
X023444Y008696D01*
X023444Y008815D02*
X023424Y008815D01*
X023444Y008933D02*
X023398Y008933D01*
X023225Y009171D02*
X023643Y009171D01*
X023904Y009171D02*
X023929Y009171D01*
X023929Y009289D02*
X019557Y009289D01*
X019439Y009171D02*
X022684Y009171D01*
X022522Y008961D02*
X022484Y008870D01*
X022484Y008683D01*
X022512Y008617D01*
X022104Y008209D01*
X022104Y008043D01*
X022104Y007369D01*
X020189Y005454D01*
X018909Y005454D01*
X018909Y005620D01*
X018918Y005635D01*
X018929Y005676D01*
X018929Y005765D01*
X018494Y005765D01*
X018494Y005766D01*
X018929Y005766D01*
X018929Y005855D01*
X018918Y005896D01*
X018909Y005912D01*
X018909Y006077D01*
X019463Y006077D01*
X019628Y006077D01*
X020262Y006711D01*
X020379Y006828D01*
X020379Y007282D01*
X020385Y007269D01*
X020607Y007047D01*
X020897Y006926D01*
X021211Y006926D01*
X021502Y007047D01*
X021724Y007269D01*
X021844Y007559D01*
X021844Y007873D01*
X021724Y008164D01*
X021502Y008386D01*
X021211Y008506D01*
X020932Y008506D01*
X021387Y008961D01*
X022522Y008961D01*
X022511Y008933D02*
X021359Y008933D01*
X021241Y008815D02*
X022484Y008815D01*
X022484Y008696D02*
X021122Y008696D01*
X021004Y008578D02*
X022473Y008578D01*
X022355Y008459D02*
X021325Y008459D01*
X021547Y008341D02*
X022236Y008341D01*
X022117Y008222D02*
X021666Y008222D01*
X021749Y008104D02*
X022104Y008104D01*
X022104Y007985D02*
X021798Y007985D01*
X021844Y007867D02*
X022104Y007867D01*
X022104Y007748D02*
X021844Y007748D01*
X021844Y007629D02*
X022104Y007629D01*
X022104Y007511D02*
X021824Y007511D01*
X021775Y007392D02*
X022104Y007392D01*
X022009Y007274D02*
X021726Y007274D01*
X021611Y007155D02*
X021891Y007155D01*
X021772Y007037D02*
X021478Y007037D01*
X021653Y006918D02*
X020379Y006918D01*
X020379Y007037D02*
X020630Y007037D01*
X020498Y007155D02*
X020379Y007155D01*
X020379Y007274D02*
X020382Y007274D01*
X020179Y007274D02*
X018909Y007274D01*
X018909Y007392D02*
X020179Y007392D01*
X020179Y007511D02*
X018909Y007511D01*
X018909Y007629D02*
X020179Y007629D01*
X020179Y007748D02*
X018909Y007748D01*
X018909Y007867D02*
X020179Y007867D01*
X020179Y007985D02*
X018909Y007985D01*
X018909Y008104D02*
X020247Y008104D01*
X020365Y008222D02*
X018909Y008222D01*
X018909Y008341D02*
X020484Y008341D01*
X020602Y008459D02*
X018901Y008459D01*
X018079Y008222D02*
X018023Y008222D01*
X018079Y008104D02*
X017905Y008104D01*
X017786Y007985D02*
X018079Y007985D01*
X018059Y007867D02*
X017667Y007867D01*
X017549Y007748D02*
X018059Y007748D01*
X018059Y007629D02*
X017430Y007629D01*
X017312Y007511D02*
X018059Y007511D01*
X018079Y007392D02*
X017193Y007392D01*
X017148Y007629D02*
X016054Y007629D01*
X016054Y007748D02*
X017266Y007748D01*
X017385Y007867D02*
X016054Y007867D01*
X016411Y007985D02*
X017503Y007985D01*
X017622Y008104D02*
X016504Y008104D01*
X016504Y008222D02*
X017740Y008222D01*
X017859Y008341D02*
X016504Y008341D01*
X016602Y008459D02*
X017977Y008459D01*
X017109Y008933D02*
X021077Y008933D01*
X020958Y008815D02*
X016991Y008815D01*
X016872Y008696D02*
X020839Y008696D01*
X020721Y008578D02*
X016721Y008578D01*
X016054Y009411D02*
X015679Y009036D01*
X013804Y009036D01*
X013054Y008286D01*
X015218Y008325D02*
X015615Y008325D01*
X015615Y007557D02*
X015636Y007536D01*
X016030Y007274D02*
X018079Y007274D01*
X018079Y007155D02*
X016030Y007155D01*
X016030Y007037D02*
X018079Y007037D01*
X018079Y006918D02*
X016039Y006918D01*
X016050Y006800D02*
X018079Y006800D01*
X018079Y006681D02*
X016045Y006681D01*
X016030Y006563D02*
X018059Y006563D01*
X018059Y006533D02*
X018493Y006533D01*
X018059Y006533D01*
X018059Y006444D02*
X018070Y006403D01*
X018079Y006387D01*
X018493Y006533D02*
X018493Y006533D01*
X018909Y006563D02*
X019831Y006563D01*
X019949Y006681D02*
X018909Y006681D01*
X018909Y006800D02*
X020068Y006800D01*
X020179Y006918D02*
X018908Y006918D01*
X018909Y007037D02*
X020179Y007037D01*
X020179Y007155D02*
X018909Y007155D01*
X018494Y007557D02*
X018493Y007557D01*
X018493Y007785D01*
X018493Y007812D01*
X018494Y007812D01*
X018494Y007785D01*
X018494Y007557D01*
X018493Y007629D02*
X018494Y007629D01*
X018493Y007748D02*
X018494Y007748D01*
X020179Y008536D02*
X020179Y013161D01*
X020179Y012964D02*
X020844Y012964D01*
X020918Y012845D02*
X020179Y012845D01*
X020179Y012727D02*
X021036Y012727D01*
X021155Y012608D02*
X020179Y012608D01*
X020179Y012490D02*
X021429Y012490D01*
X021429Y012608D02*
X021389Y012608D01*
X021389Y012727D02*
X021429Y012727D01*
X021429Y012845D02*
X021389Y012845D01*
X021389Y012964D02*
X021429Y012964D01*
X021994Y013320D02*
X024844Y013320D01*
X024879Y013438D02*
X021951Y013438D01*
X021833Y013557D02*
X024997Y013557D01*
X025187Y013746D02*
X025389Y013746D01*
X025389Y013201D01*
X025389Y013320D02*
X025469Y013320D01*
X025469Y013438D02*
X025389Y013438D01*
X025389Y013557D02*
X025469Y013557D01*
X025469Y013675D02*
X025389Y013675D01*
X021919Y012490D02*
X031965Y012490D01*
X031965Y012371D02*
X021919Y012371D01*
X021919Y012253D02*
X031965Y012253D01*
X031965Y012134D02*
X021919Y012134D01*
X021919Y012016D02*
X031965Y012016D01*
X031966Y011423D02*
X025470Y011423D01*
X025389Y011423D02*
X023611Y011423D01*
X023729Y011304D02*
X024844Y011304D01*
X024844Y011186D02*
X023848Y011186D01*
X023966Y011067D02*
X024946Y011067D01*
X025065Y010949D02*
X024085Y010949D01*
X024203Y010830D02*
X025183Y010830D01*
X025389Y010830D02*
X025469Y010830D01*
X025469Y010949D02*
X025389Y010949D01*
X025389Y011067D02*
X025469Y011067D01*
X025469Y011186D02*
X025389Y011186D01*
X025389Y011304D02*
X025469Y011304D01*
X025389Y011451D02*
X024844Y011451D01*
X024844Y011654D01*
X025187Y011996D01*
X025389Y011996D01*
X025389Y011451D01*
X025389Y011541D02*
X025469Y011541D01*
X025469Y011660D02*
X025389Y011660D01*
X025389Y011779D02*
X025469Y011779D01*
X025469Y011897D02*
X025389Y011897D01*
X025088Y011897D02*
X023037Y011897D01*
X023255Y011779D02*
X024969Y011779D01*
X024851Y011660D02*
X023374Y011660D01*
X023492Y011541D02*
X024844Y011541D01*
X023510Y010830D02*
X021676Y010830D01*
X021794Y010949D02*
X023392Y010949D01*
X023273Y011067D02*
X021913Y011067D01*
X022014Y011186D02*
X023155Y011186D01*
X023036Y011304D02*
X022014Y011304D01*
X021469Y011304D02*
X021389Y011304D01*
X021389Y011186D02*
X021469Y011186D01*
X021469Y011067D02*
X021389Y011067D01*
X021389Y010949D02*
X021469Y010949D01*
X021469Y010830D02*
X021389Y010830D01*
X021183Y010830D02*
X020179Y010830D01*
X020179Y010712D02*
X023629Y010712D01*
X023748Y010593D02*
X020179Y010593D01*
X020179Y010475D02*
X023866Y010475D01*
X023929Y010356D02*
X020179Y010356D01*
X020179Y010237D02*
X023929Y010237D01*
X023929Y010119D02*
X020179Y010119D01*
X020179Y010000D02*
X023929Y010000D01*
X023929Y009882D02*
X020150Y009882D01*
X020031Y009763D02*
X023929Y009763D01*
X023929Y009645D02*
X019913Y009645D01*
X019794Y009526D02*
X023929Y009526D01*
X023929Y009408D02*
X019676Y009408D01*
X019564Y009579D02*
X019564Y009763D01*
X019749Y009763D01*
X019867Y009882D02*
X019515Y009882D01*
X019487Y009950D02*
X019343Y010094D01*
X019156Y010171D01*
X018953Y010171D01*
X018765Y010094D01*
X018622Y009950D01*
X018554Y009787D01*
X018487Y009950D01*
X018343Y010094D01*
X018254Y010130D01*
X018254Y010744D01*
X018137Y010861D01*
X017291Y011707D01*
X017343Y011729D01*
X017487Y011872D01*
X017554Y012036D01*
X017622Y011872D01*
X017765Y011729D01*
X017953Y011651D01*
X018156Y011651D01*
X018343Y011729D01*
X018487Y011872D01*
X018545Y012013D01*
X018563Y011958D01*
X018601Y011883D01*
X018650Y011816D01*
X018709Y011757D01*
X018777Y011708D01*
X018851Y011670D01*
X018930Y011644D01*
X019013Y011631D01*
X019014Y011631D01*
X019014Y012121D01*
X019094Y012121D01*
X019094Y011631D01*
X019096Y011631D01*
X019178Y011644D01*
X019258Y011670D01*
X019332Y011708D01*
X019400Y011757D01*
X019459Y011816D01*
X019508Y011883D01*
X019545Y011958D01*
X019571Y012037D01*
X019584Y012120D01*
X019584Y012121D01*
X019095Y012121D01*
X019095Y012201D01*
X019584Y012201D01*
X019584Y012203D01*
X019571Y012285D01*
X019545Y012365D01*
X019508Y012439D01*
X019459Y012506D01*
X019400Y012565D01*
X019332Y012615D01*
X019258Y012652D01*
X019200Y012671D01*
X019979Y012671D01*
X019979Y009994D01*
X019564Y009579D01*
X019564Y009645D02*
X019630Y009645D01*
X019564Y009763D02*
X019487Y009950D01*
X019436Y010000D02*
X019979Y010000D01*
X019979Y010119D02*
X019282Y010119D01*
X018827Y010119D02*
X018282Y010119D01*
X018254Y010237D02*
X019979Y010237D01*
X019979Y010356D02*
X018254Y010356D01*
X018254Y010475D02*
X019979Y010475D01*
X019979Y010593D02*
X018254Y010593D01*
X018254Y010712D02*
X019979Y010712D01*
X019979Y010830D02*
X018168Y010830D01*
X018050Y010949D02*
X019979Y010949D01*
X019979Y011067D02*
X017931Y011067D01*
X017813Y011186D02*
X019979Y011186D01*
X019979Y011304D02*
X017694Y011304D01*
X017576Y011423D02*
X019979Y011423D01*
X019979Y011541D02*
X017457Y011541D01*
X017338Y011660D02*
X017932Y011660D01*
X018177Y011660D02*
X018882Y011660D01*
X019014Y011660D02*
X019094Y011660D01*
X019094Y011779D02*
X019014Y011779D01*
X019014Y011897D02*
X019094Y011897D01*
X019094Y012016D02*
X019014Y012016D01*
X019095Y012134D02*
X019979Y012134D01*
X019979Y012016D02*
X019564Y012016D01*
X019514Y011897D02*
X019979Y011897D01*
X019979Y011779D02*
X019421Y011779D01*
X019227Y011660D02*
X019979Y011660D01*
X020179Y011660D02*
X020851Y011660D01*
X020844Y011654D02*
X020844Y011451D01*
X021389Y011451D01*
X021389Y011996D01*
X021187Y011996D01*
X020844Y011654D01*
X020844Y011541D02*
X020179Y011541D01*
X020179Y011423D02*
X021389Y011423D01*
X021389Y011541D02*
X021429Y011541D01*
X021429Y011660D02*
X021389Y011660D01*
X021389Y011779D02*
X021429Y011779D01*
X021429Y011897D02*
X021389Y011897D01*
X021429Y012016D02*
X020179Y012016D01*
X020179Y012134D02*
X021429Y012134D01*
X021429Y012253D02*
X020179Y012253D01*
X020179Y012371D02*
X021429Y012371D01*
X021088Y011897D02*
X020179Y011897D01*
X020179Y011779D02*
X020969Y011779D01*
X020844Y011304D02*
X020179Y011304D01*
X020179Y011186D02*
X020844Y011186D01*
X020946Y011067D02*
X020179Y011067D01*
X020179Y010949D02*
X021065Y010949D01*
X018688Y011779D02*
X018393Y011779D01*
X018497Y011897D02*
X018594Y011897D01*
X017716Y011779D02*
X017393Y011779D01*
X017497Y011897D02*
X017612Y011897D01*
X017563Y012016D02*
X017546Y012016D01*
X017054Y012161D02*
X017054Y011661D01*
X018054Y010661D01*
X018054Y009661D01*
X018515Y009882D02*
X018594Y009882D01*
X018672Y010000D02*
X018436Y010000D01*
X017854Y010130D02*
X017765Y010094D01*
X017622Y009950D01*
X017554Y009787D01*
X017487Y009950D01*
X017343Y010094D01*
X017254Y010130D01*
X017254Y010244D01*
X016254Y011244D01*
X016137Y011361D01*
X015137Y011361D01*
X014805Y011694D01*
X014851Y011670D01*
X014930Y011644D01*
X015013Y011631D01*
X015014Y011631D01*
X015014Y012121D01*
X015094Y012121D01*
X015094Y011631D01*
X015096Y011631D01*
X015178Y011644D01*
X015258Y011670D01*
X015332Y011708D01*
X015400Y011757D01*
X015459Y011816D01*
X015508Y011883D01*
X015545Y011958D01*
X015571Y012037D01*
X015584Y012120D01*
X015584Y012121D01*
X015095Y012121D01*
X015095Y012201D01*
X015584Y012201D01*
X015584Y012203D01*
X015571Y012285D01*
X015545Y012365D01*
X015508Y012439D01*
X015459Y012506D01*
X015400Y012565D01*
X015332Y012615D01*
X015258Y012652D01*
X015200Y012671D01*
X017564Y012671D01*
X017564Y012311D01*
X017554Y012287D01*
X017487Y012450D01*
X017343Y012594D01*
X017156Y012671D01*
X016953Y012671D01*
X016765Y012594D01*
X016622Y012450D01*
X016544Y012263D01*
X016544Y012060D01*
X016622Y011872D01*
X016765Y011729D01*
X016854Y011692D01*
X016854Y011578D01*
X017854Y010578D01*
X017854Y010130D01*
X017827Y010119D02*
X017282Y010119D01*
X017254Y010237D02*
X017854Y010237D01*
X017854Y010356D02*
X017142Y010356D01*
X017024Y010475D02*
X017854Y010475D01*
X017840Y010593D02*
X016905Y010593D01*
X016787Y010712D02*
X017721Y010712D01*
X017603Y010830D02*
X016668Y010830D01*
X016550Y010949D02*
X017484Y010949D01*
X017365Y011067D02*
X016431Y011067D01*
X016313Y011186D02*
X017247Y011186D01*
X017128Y011304D02*
X016194Y011304D01*
X016891Y011541D02*
X014957Y011541D01*
X015014Y011660D02*
X015094Y011660D01*
X015094Y011779D02*
X015014Y011779D01*
X015014Y011897D02*
X015094Y011897D01*
X015094Y012016D02*
X015014Y012016D01*
X015095Y012134D02*
X016544Y012134D01*
X016544Y012253D02*
X015576Y012253D01*
X015542Y012371D02*
X016589Y012371D01*
X016662Y012490D02*
X015471Y012490D01*
X015341Y012608D02*
X016801Y012608D01*
X017308Y012608D02*
X017564Y012608D01*
X017564Y012490D02*
X017447Y012490D01*
X017519Y012371D02*
X017564Y012371D01*
X016563Y012016D02*
X015564Y012016D01*
X015514Y011897D02*
X016612Y011897D01*
X016716Y011779D02*
X015421Y011779D01*
X015227Y011660D02*
X016854Y011660D01*
X017010Y011423D02*
X015076Y011423D01*
X014882Y011660D02*
X014838Y011660D01*
X014273Y011660D02*
X014177Y011660D01*
X013932Y011660D02*
X012227Y011660D01*
X012421Y011779D02*
X013716Y011779D01*
X013612Y011897D02*
X012514Y011897D01*
X012564Y012016D02*
X013563Y012016D01*
X011882Y011660D02*
X011838Y011660D01*
X011054Y012161D02*
X012429Y010786D01*
X014929Y010786D01*
X016054Y009661D01*
X016054Y009411D01*
X017228Y009052D02*
X021195Y009052D01*
X022304Y008126D02*
X022954Y008776D01*
X022683Y008222D02*
X025183Y008222D01*
X026065Y008459D02*
X031967Y008459D01*
X031967Y008341D02*
X026287Y008341D01*
X026406Y008222D02*
X031967Y008222D01*
X031967Y008104D02*
X026489Y008104D01*
X026538Y007985D02*
X031967Y007985D01*
X031967Y007867D02*
X026584Y007867D01*
X026584Y007748D02*
X031967Y007748D01*
X031967Y007629D02*
X026584Y007629D01*
X026564Y007511D02*
X031967Y007511D01*
X031967Y007392D02*
X026515Y007392D01*
X026466Y007274D02*
X031967Y007274D01*
X031967Y007155D02*
X026351Y007155D01*
X026218Y007037D02*
X031967Y007037D01*
X029769Y005851D02*
X021572Y005851D01*
X021454Y005733D02*
X029724Y005733D01*
X029724Y005614D02*
X021335Y005614D01*
X021217Y005496D02*
X029724Y005496D01*
X029704Y005377D02*
X021098Y005377D01*
X020980Y005259D02*
X029704Y005259D01*
X029704Y005236D02*
X030129Y005236D01*
X029704Y005236D01*
X029704Y005140D02*
X020861Y005140D01*
X020742Y005022D02*
X021882Y005022D01*
X021763Y004903D02*
X020624Y004903D01*
X020272Y005254D02*
X022304Y007286D01*
X022304Y008126D01*
X022504Y007867D02*
X022640Y007867D01*
X022542Y007748D02*
X022504Y007748D01*
X023269Y007867D02*
X023592Y007867D01*
X023503Y007748D02*
X023367Y007748D01*
X023416Y007629D02*
X023456Y007629D01*
X023459Y007392D02*
X023412Y007392D01*
X023363Y007274D02*
X023508Y007274D01*
X023602Y007155D02*
X023258Y007155D01*
X024039Y007037D02*
X025370Y007037D01*
X025238Y007155D02*
X024266Y007155D01*
X024361Y007274D02*
X025122Y007274D01*
X025073Y007392D02*
X024409Y007392D01*
X021535Y006800D02*
X020351Y006800D01*
X020232Y006681D02*
X021416Y006681D01*
X021298Y006563D02*
X020114Y006563D01*
X019995Y006444D02*
X021179Y006444D01*
X021061Y006326D02*
X019876Y006326D01*
X019758Y006207D02*
X020942Y006207D01*
X020824Y006088D02*
X019639Y006088D01*
X019594Y006326D02*
X018929Y006326D01*
X018909Y006444D02*
X019712Y006444D01*
X018909Y005970D02*
X020705Y005970D01*
X020587Y005851D02*
X018929Y005851D01*
X018929Y005733D02*
X020468Y005733D01*
X020349Y005614D02*
X018909Y005614D01*
X018909Y005496D02*
X020231Y005496D01*
X020272Y005254D02*
X018494Y005254D01*
X018364Y004073D02*
X018745Y004073D01*
X018626Y003955D02*
X018482Y003955D01*
X018534Y003836D02*
X018575Y003836D01*
X019054Y003661D02*
X020804Y003661D01*
X021985Y004842D01*
X030129Y004842D01*
X030129Y005236D02*
X030129Y005236D01*
X029715Y003480D02*
X023156Y003480D01*
X023038Y003362D02*
X031052Y003362D01*
X031052Y003243D02*
X022919Y003243D01*
X022801Y003125D02*
X031052Y003125D01*
X031052Y003006D02*
X022682Y003006D01*
X022564Y002888D02*
X031052Y002888D01*
X031043Y002532D02*
X022553Y002532D01*
X022564Y002651D02*
X031969Y002651D01*
X031969Y002769D02*
X022562Y002769D01*
X022245Y003134D02*
X022156Y003171D01*
X021953Y003171D01*
X021765Y003094D01*
X021622Y002950D01*
X021544Y002763D01*
X021544Y002632D01*
X020039Y001126D01*
X019262Y001126D01*
X019301Y001155D01*
X019360Y001214D01*
X019409Y001281D01*
X019447Y001355D01*
X019473Y001435D01*
X019486Y001517D01*
X019486Y001519D01*
X018996Y001519D01*
X018996Y001599D01*
X018916Y001599D01*
X018916Y002089D01*
X018914Y002089D01*
X018832Y002076D01*
X018752Y002050D01*
X018678Y002012D01*
X018611Y001963D01*
X018552Y001904D01*
X018544Y001894D01*
X018544Y002512D01*
X018564Y002560D01*
X018564Y002763D01*
X018489Y002943D01*
X018604Y002828D01*
X018721Y002711D01*
X020471Y002711D01*
X020637Y002711D01*
X022175Y004249D01*
X023359Y004249D01*
X023248Y004138D01*
X023248Y004138D01*
X022245Y003134D01*
X022354Y003243D02*
X021169Y003243D01*
X021051Y003125D02*
X021841Y003125D01*
X021678Y003006D02*
X020932Y003006D01*
X020814Y002888D02*
X021596Y002888D01*
X021547Y002769D02*
X020695Y002769D01*
X021444Y002532D02*
X018553Y002532D01*
X018544Y002414D02*
X021326Y002414D01*
X021207Y002295D02*
X018544Y002295D01*
X018544Y002176D02*
X021089Y002176D01*
X020970Y002058D02*
X019135Y002058D01*
X019159Y002050D02*
X019080Y002076D01*
X018998Y002089D01*
X018996Y002089D01*
X018996Y001599D01*
X019486Y001599D01*
X019486Y001601D01*
X019473Y001683D01*
X019447Y001762D01*
X019409Y001837D01*
X019360Y001904D01*
X019301Y001963D01*
X019234Y002012D01*
X019159Y002050D01*
X018996Y002058D02*
X018916Y002058D01*
X018916Y001939D02*
X018996Y001939D01*
X018996Y001821D02*
X018916Y001821D01*
X018916Y001702D02*
X018996Y001702D01*
X018996Y001584D02*
X020496Y001584D01*
X020615Y001702D02*
X019467Y001702D01*
X019417Y001821D02*
X020733Y001821D01*
X020852Y001939D02*
X019325Y001939D01*
X018777Y002058D02*
X018544Y002058D01*
X018544Y001939D02*
X018587Y001939D01*
X019478Y001465D02*
X020378Y001465D01*
X020259Y001347D02*
X019443Y001347D01*
X019371Y001228D02*
X020140Y001228D01*
X020746Y000873D02*
X030574Y000873D01*
X030478Y000991D02*
X020865Y000991D01*
X020983Y001110D02*
X030410Y001110D01*
X030360Y001228D02*
X021102Y001228D01*
X021221Y001347D02*
X030328Y001347D01*
X030307Y001465D02*
X021339Y001465D01*
X021458Y001584D02*
X030307Y001584D01*
X030310Y001702D02*
X021576Y001702D01*
X021695Y001821D02*
X030341Y001821D01*
X030373Y001939D02*
X021813Y001939D01*
X021932Y002058D02*
X030439Y002058D01*
X030507Y002176D02*
X022217Y002176D01*
X022409Y002295D02*
X030624Y002295D01*
X030776Y002414D02*
X022504Y002414D01*
X022054Y002661D02*
X023448Y004055D01*
X023302Y004192D02*
X022118Y004192D01*
X021999Y004073D02*
X023183Y004073D01*
X023065Y003955D02*
X021881Y003955D01*
X021762Y003836D02*
X022946Y003836D01*
X022828Y003718D02*
X021643Y003718D01*
X021525Y003599D02*
X022709Y003599D01*
X022591Y003480D02*
X021406Y003480D01*
X021288Y003362D02*
X022472Y003362D01*
X021544Y002651D02*
X018564Y002651D01*
X018562Y002769D02*
X018664Y002769D01*
X018545Y002888D02*
X018512Y002888D01*
X019482Y003955D02*
X020815Y003955D01*
X020933Y004073D02*
X019364Y004073D01*
X015200Y005851D02*
X013777Y005851D01*
X013896Y005970D02*
X015200Y005970D01*
X015200Y006088D02*
X014014Y006088D01*
X014133Y006207D02*
X015200Y006207D01*
X015200Y006326D02*
X014251Y006326D01*
X014370Y006444D02*
X015200Y006444D01*
X015200Y006563D02*
X014489Y006563D01*
X014607Y006681D02*
X015185Y006681D01*
X015180Y006789D02*
X015615Y006789D01*
X015615Y006789D01*
X015180Y006789D01*
X015180Y006800D02*
X014726Y006800D01*
X014844Y006918D02*
X015191Y006918D01*
X015200Y007037D02*
X014963Y007037D01*
X013429Y006536D02*
X008804Y006536D01*
X007745Y004073D02*
X007577Y004073D01*
X007544Y003955D02*
X007626Y003955D01*
X007575Y003836D02*
X007473Y003836D01*
X005593Y003836D02*
X005516Y003836D01*
X005516Y003718D02*
X005593Y003718D01*
X005593Y003599D02*
X005516Y003599D01*
X005516Y003480D02*
X005593Y003480D01*
X005593Y003362D02*
X005516Y003362D01*
X005516Y003243D02*
X005593Y003243D01*
X005593Y003125D02*
X005516Y003125D01*
X005516Y003006D02*
X005593Y003006D01*
X006094Y002769D02*
X011854Y002769D01*
X011761Y002651D02*
X006094Y002651D01*
X008956Y001938D02*
X008956Y001559D01*
X008956Y001938D02*
X009179Y002161D01*
X012679Y002161D01*
X013054Y002536D01*
X013054Y003661D01*
X020509Y000635D02*
X030895Y000635D01*
X030693Y000754D02*
X020628Y000754D01*
X031593Y002532D02*
X031969Y002532D01*
X031969Y002414D02*
X031860Y002414D01*
X017594Y009882D02*
X017515Y009882D01*
X017436Y010000D02*
X017672Y010000D01*
X014866Y011067D02*
X012431Y011067D01*
X009564Y012371D02*
X009542Y012371D01*
X009564Y012490D02*
X009471Y012490D01*
X009564Y012608D02*
X009341Y012608D01*
X009094Y012608D02*
X009014Y012608D01*
X009014Y012490D02*
X009094Y012490D01*
X009094Y012371D02*
X009014Y012371D01*
X009014Y012253D02*
X009094Y012253D01*
X008566Y012371D02*
X008519Y012371D01*
X008447Y012490D02*
X008638Y012490D01*
X008768Y012608D02*
X008308Y012608D01*
X007801Y012608D02*
X004264Y012608D01*
X004110Y012490D02*
X007662Y012490D01*
X006400Y012964D02*
X009598Y012964D01*
X009564Y012845D02*
X006335Y012845D01*
X006213Y012727D02*
X009564Y012727D01*
X009658Y013082D02*
X006439Y013082D01*
X006439Y013201D02*
X009776Y013201D01*
X009895Y013320D02*
X006416Y013320D01*
X006367Y013438D02*
X010013Y013438D01*
X010132Y013557D02*
X006255Y013557D01*
X003966Y013675D02*
X002802Y013675D01*
X019341Y012608D02*
X019979Y012608D01*
X019979Y012490D02*
X019471Y012490D01*
X019542Y012371D02*
X019979Y012371D01*
X019979Y012253D02*
X019576Y012253D01*
X002014Y002769D02*
X001014Y002769D01*
X001014Y002651D02*
X002014Y002651D01*
X001516Y002532D02*
X001014Y002532D01*
X001014Y002414D02*
X001249Y002414D01*
X001097Y002295D02*
X001014Y002295D01*
D22*
X004929Y001536D02*
X004952Y001559D01*
X004956Y001559D01*
X007054Y004161D02*
X007054Y005161D01*
X009054Y007161D02*
X009054Y008286D01*
X010054Y008286D01*
X011054Y009286D01*
X011054Y009661D01*
X011054Y010161D01*
X010054Y011161D01*
X010054Y012786D01*
X010429Y013161D01*
X018054Y013161D01*
X020179Y013161D01*
X021429Y013161D01*
X021429Y011411D01*
X022929Y011411D01*
X023934Y010406D01*
X023934Y008776D01*
X018054Y012161D02*
X018054Y013161D01*
X010054Y011161D02*
X008054Y011161D01*
X008054Y012161D01*
X005929Y013161D02*
X004179Y013161D01*
X002554Y011911D01*
X002554Y010911D01*
X005554Y010911D02*
X006929Y010911D01*
X008054Y009661D01*
X005554Y010911D02*
X005554Y011911D01*
X018054Y002661D02*
X018054Y001657D01*
X017956Y001559D01*
D23*
X020179Y000786D02*
X022054Y002661D01*
X020179Y000786D02*
X005054Y000786D01*
X004929Y000911D01*
X004929Y001536D01*
D24*
X004929Y005286D01*
X005804Y006161D01*
X007054Y006161D01*
M02*
